<svg xmlns="http://www.w3.org/2000/svg" xml:space="preserve" id="Layer_1" x="0" y="0" version="1.1" viewBox="0 0 507.9 507.9"><style>.st4{fill:#fff}.st5{fill:#c8a280}.st7{opacity:5.000000e-02}.st8{fill:#00303d}.st9{fill:#002f3d}.st11{fill:#10505b}</style><circle cx="253.9" cy="254" r="253.6" style="fill:#e49225"/><path d="M433.2 74.7c-99-99-259.6-99-358.6 0l358.6 358.6c99.1-99.1 99.1-259.6 0-358.6" style="fill:#f99d1c"/><path d="M116.6 112.1h244v296.2h-244z" style="fill:#b16b24"/><path d="M98 93.6h244v296.2H98z" style="fill:#f9f2e5"/><path d="M98 93.6v261.1h22.6c102.8 0 186.2-83.4 186.2-186.2V93.6z" class="st4"/><path d="M141.7 160.5h138.6v22.3H141.7zM141.7 225.5h138.6v22.3H141.7zM141.7 290.5h104.2v22.3H141.7z" class="st5"/><path d="m220 317.7 26.1-11s45-62 51.4-103.3 4.3-68.1 4.3-68.1l-85.4 13.2-35.8 75.7 35.8 95" class="st4"/><path d="m184.4 290.5 66.3 36.6s36.8-19.6 59.3-79.3c22.5-59.7 14.8-100 14.8-100l-33.7-18.9z" class="st4"/><path d="M180.7 210.6h103.4v50.7H180.7z" style="fill:#ead6c8"/><g class="st7"><circle cx="283.1" cy="234.1" r="76.9" class="st4"/></g><g class="st7"><path d="M250.2 164.6c15.3-7.2 31.7-8.9 47.1-6l-51.3 143c-13.7-7.5-25.3-19.3-32.5-34.6-18.1-38.5-1.7-84.3 36.7-102.4" class="st4"/></g><path d="M295.6 339.9c24.2-2.3 45.6-12.5 62-28l.8 8.2c.3 3.2 1.8 6.1 4.3 8.2l20.6-26.8c-2.5-2 2-10.3-1.2-10l-8.2.8c12.2-19 18.3-41.9 16-66.1-2.2-23.9-28.4-109.1-126.2-96.5-5.9.8-25.1 4-14.8 8.4-43 16.2-71.7 59.6-67.3 107.6 5.6 57.3 56.5 99.5 114 94.2m-86.1-97c-3.9-42.2 27-79.7 69.3-83.6 42.2-3.9 79.7 27 83.6 69.3 3.9 42.2-27 79.7-69.3 83.6-42.3 4-79.7-27-83.6-69.3" class="st8"/><path d="m358.4 261.5 5.3.2s1.5 3 4.9 5c4.9 2.9 12.5 5 16.2 3.4-2.7 7.5-6.2 14.7-10.5 21.4l-44.8 7.1c13.2-9.1 23.4-22 28.9-37.1" class="st9"/><path d="M183.7 243.5c-2-43.2 22.6-81.4 59.3-99l4.7 12.4 48.9-14.5 23.1 24.2C287.5 151.2 250 172 250 172c-24.2 13.8-40 40.4-38.7 70.2 1.9 42.4 37.8 75.2 80.2 73.2 5.4-.2 55.7-25.3 60.8-26.6l4.1 26.2c-25.8 21.9-56 25.9-64.4 26.3-57.6 2.6-105.7-40.1-108.3-97.8" class="st8"/><path d="M216 265.2c10.7 29.6 40.1 48.2 72.8 46.7 5.4-.2 10.6-1 15.7-2.3 0 0-60.3 35.3-99-46.4 3.4 3 7.7 4.4 10.5 2" class="st9"/><path d="M400.8 292.2c2.3 1.5 32.4 27.4 41.9 35.5 0 0 5.8 4.6 7.2 6.9 2.7 4.7.4 9.7-1.1 14.6.1-.7 0-2-1-3.6-.2 1.2-.4 2.5-.7 3.6-1.7 7-55.2-30.9-55.2-30.9l-14.8-19.8-11.3-8.9c.1 0 12.1-12.1 35 2.6" class="st8"/><path d="M448.7 349.9c.1-.2.1-.4.2-.7-.1.5-.2.7-.2.7" class="st9"/><path d="m437.5 336.8-54.6-45.2c-2.5-2-5.6-3-8.8-2.7l-8.2.8c12.2-19 18.3-41.9 16-66.1-5.4-57.5-56.3-99.8-113.8-94.4s-99.8 56.3-94.4 113.8 56.3 99.8 113.8 94.4c24.2-2.3 45.6-12.5 62-28l.8 8.2c.3 3.2 1.8 6.1 4.3 8.2l54.6 45.2c5.1 4.3 12.8 3.6 17-1.6l12.8-15.5c4.3-5.2 3.6-12.8-1.5-17.1m-152.4-25.6c-43.1 4-81.2-27.6-85.3-70.7-4-43.1 27.6-81.2 70.7-85.3 43.1-4 81.2 27.6 85.3 70.7 4.1 43.1-27.5 81.2-70.7 85.3" style="fill:#003f4d"/><path d="M427.3 373.8c-4.6 5.2-12.5 5.8-17.7 1.2l-55.3-48.3c-2.5-2.2-4-5.3-4.2-8.6l-.6-8.5c5.4-5.6 8.7-10.5 8.7-10.5s-.2 5.2 2.2 8.7c2.3 3.5 62.9 57.4 66.7 60 2.8 2 4.7.8 5.4 0z" class="st11"/><path d="M405.3 358.9c0 .7-.2 1.5-.7 2.1-1 1.2-2.8 1.2-4 .2l-44.7-40.3c-1.2-1-1.2-2.8-.2-4s2.8-1.2 4-.2l44.7 40.3c.6.5.9 1.2.9 1.9" style="fill:#1c6067"/><ellipse cx="432.7" cy="355.1" class="st8" rx="26.5" ry="11.1" transform="rotate(-52.206 432.685 355.112)"/><path d="M183.8 255.5c-9.9-55.5 27.1-108.4 82.5-118.3 38.9-6.9 76.5 9.2 98.9 38.5-20.6-31.2-57.2-50.3-97.1-46.6-57.5 5.4-99.8 56.3-94.4 113.8 4.3 45.9 37.6 82 80.1 92.1-35.1-11-63.1-40.7-70-79.5" class="st11"/></svg>