<svg xmlns="http://www.w3.org/2000/svg" xmlns:xlink="http://www.w3.org/1999/xlink" xml:space="preserve" id="Layer_1" x="0" y="0" version="1.1" viewBox="0 0 507.9 507.9"><style>.st3{fill:#281d0a}.st6{fill:#c88e2f}.st7{fill:#3e2c09}.st8{fill:#fff}.st12{fill:#fef3f7}.st13{fill:#687167}.st14{fill:#542f82}.st15{fill:none;stroke:#231f20;stroke-width:1.351;stroke-miterlimit:10}.st16{fill:#6f2c87}.st17{fill:#3a2c1c}.st18{fill:#745b45}.st22{fill:#8f6240}.st23{fill:#2a1d01}.st25{fill:#a8713f}.st28{fill:#d14e20}.st29{fill:none;stroke:#fff;stroke-width:5.75;stroke-miterlimit:10}.st30{fill:#b3431f}.st31{fill:#754b1d}.st32{fill:#54340a}.st33{fill:#f05a24}.st34{fill:#f97c55}.st35{fill:#c7c8ca}.st37{fill:#d6d4d9}</style><circle cx="253.9" cy="253.9" r="253.2" style="fill:#009f9c"/><path d="m33.5 129.2 422.4 277.3C488 364 507 311.2 507 253.9 507.1 114.2 393.8.8 253.9.8 159.4.8 77.1 52.5 33.5 129.2" style="fill:#00aba8"/><defs><circle id="SVGID_1_" cx="253.9" cy="253.9" r="253.2"/></defs><clipPath id="SVGID_00000133489920932323684000000004779728067027252884_"><use xlink:href="#SVGID_1_" style="overflow:visible"/></clipPath><g style="clip-path:url(#SVGID_00000133489920932323684000000004779728067027252884_)"><path d="M428.9 191.7c-22.8-8.7-49.6-3.7-71.5 17-21.9 20.6-32.8 74.2-13.7 105.4 19.1 31.2-9.6 36.2-9.6 36.2s10.9 6 17.8-1.4c0 0 1 14.2-6.4 28.4-9.6 18.3-5.7 29.6 5 55 5 11.9 17.3 25.7 9.6 31.6l50.1-22 54.2-30.2-26.4-21.5-12.3-125.6z" class="st3"/><path d="M399.7 195.9s18.2-8.2 36-8.7 45.4 13.4 58.1 41.4c12.8 28-4.4 85.6-2.1 94.7 2.3 9.2 9.6 11.5 13.2 7.3 0 0-2.7 11.5-16.8 5 0 0-1.8 7.3 3.2 21.5s5.9 31.2 5.5 46.7c-.9 31.6-33.2 49-30.1 55.9 3.2 6.9 8.2 3.7 8.2 3.7s-2.3 6.4-10.9 3.2c-8.7-3.2-12.8-25.2-12.8-25.2l-61.9-.9-7.3-30.2z" class="st3"/><defs><path id="SVGID_00000019654077837407272570000013290862900068473253_" d="M417.8 335.6h-16.3v25.3c0 9.6-8.4 14.2-21.8 18.7s-15.1 12.9-15.1 12.9l6.4 36.6 96.7.9 2.3-35.5s3.9-6.7-9.6-11.2c-13.4-4.5-26.2-12.6-26.2-22.2v-25.3h-16.4z"/></defs><clipPath id="SVGID_00000041995447060035507570000015688850226920244619_"><use xlink:href="#SVGID_00000019654077837407272570000013290862900068473253_" style="overflow:visible"/></clipPath><linearGradient id="SVGID_00000039853940529208343300000005988317267239556224_" x1="-45.419" x2="-44.954" y1="656.528" y2="656.528" gradientTransform="scale(304.3206)rotate(-90 307.02 -350.87)" gradientUnits="userSpaceOnUse"><stop offset="0" style="stop-color:#caaa6e"/><stop offset="1" style="stop-color:#a58c5b"/></linearGradient><path d="M316.7 335.6h195.5v141.7H316.7z" style="clip-path:url(#SVGID_00000041995447060035507570000015688850226920244619_);fill:url(#SVGID_00000039853940529208343300000005988317267239556224_)"/><path d="M476.3 262.8c0 46.8-16.5 85.1-58.9 85.1s-58.1-38.7-58.1-85.5 16.4-51.7 58.8-51.7 58.2 5.3 58.2 52.1" style="fill:#caaa6e"/><path d="M402.2 290c0 6.4-5.2 11.6-11.7 11.6-6.5 0-11.7-5.2-11.7-11.6 0-6.4 5.2-11.6 11.7-11.6 6.5 0 11.7 5.2 11.7 11.6" class="st6"/><path d="M399.2 290c0 4.5-3.6 8.1-8.1 8.1s-8.1-3.6-8.1-8.1 3.6-8.1 8.1-8.1 8.1 3.6 8.1 8.1" class="st7"/><path d="M387.7 285.8c0 1.3-1 2.4-2.3 2.4-1.3 0-2.3-1.1-2.3-2.4 0-1.3 1-2.3 2.3-2.3 1.3 0 2.3 1 2.3 2.3" class="st8"/><path d="M392 318.6c8 4.9 16.6 7.9 25.3 7.8 8.7 0 17.1-3.4 25.4-7.8-3.1 3.6-6.9 6.6-11.2 8.8-4.3 2.2-9.2 3.4-14.2 3.5-4.9 0-9.9-1.1-14.2-3.3-4.4-2.2-8.3-5.2-11.1-9" class="st7"/><defs><path id="SVGID_00000018234929441272420580000016197075759803580862_" d="M369.7 310.9c0 6 4.9 10.9 10.9 10.9s10.9-4.9 10.9-10.9c0-6.1-4.9-11-10.9-11-6.1.1-10.9 5-10.9 11"/></defs><clipPath id="SVGID_00000108987925342643284790000010157274236316929446_"><use xlink:href="#SVGID_00000018234929441272420580000016197075759803580862_" style="overflow:visible"/></clipPath><radialGradient id="SVGID_00000103950134504265339910000013011384040148143266_" cx="-77.916" cy="652.887" r=".439" gradientTransform="matrix(24.7748 0 0 -24.9353 2310.896 16590.82)" gradientUnits="userSpaceOnUse"><stop offset="0" style="stop-color:#c88c66"/><stop offset="1" style="stop-color:#caaa6e"/></radialGradient><path d="M369.7 300h21.8v21.9h-21.8z" style="clip-path:url(#SVGID_00000108987925342643284790000010157274236316929446_);fill:url(#SVGID_00000103950134504265339910000013011384040148143266_)"/><defs><path id="SVGID_00000070805346769387613380000018118268795249520012_" d="M439.2 310.9c0 6 4.9 10.9 10.9 10.9s10.9-4.9 10.9-10.9c0-6.1-4.9-11-10.9-11-6.1.1-10.9 5-10.9 11"/></defs><clipPath id="SVGID_00000152963556895782000410000009847004648204693912_"><use xlink:href="#SVGID_00000070805346769387613380000018118268795249520012_" style="overflow:visible"/></clipPath><radialGradient id="SVGID_00000143595545291152432950000016074305351818355897_" cx="-81.501" cy="652.887" r=".439" gradientTransform="matrix(24.7748 0 0 -24.9353 2469.227 16590.82)" gradientUnits="userSpaceOnUse"><stop offset="0" style="stop-color:#c88c66"/><stop offset="1" style="stop-color:#caaa6e"/></radialGradient><path d="M439.2 300H461v21.9h-21.8z" style="clip-path:url(#SVGID_00000152963556895782000410000009847004648204693912_);fill:url(#SVGID_00000143595545291152432950000016074305351818355897_)"/><path d="M433.6 290c0 6.4 5.2 11.6 11.7 11.6 6.5 0 11.7-5.2 11.7-11.6 0-6.4-5.2-11.6-11.7-11.6-6.5 0-11.7 5.2-11.7 11.6" class="st6"/><path d="M436.6 290c0 4.5 3.6 8.1 8.1 8.1s8.1-3.6 8.1-8.1-3.6-8.1-8.1-8.1-8.1 3.6-8.1 8.1" class="st7"/><path d="M437 285.8c0 1.3 1 2.4 2.3 2.4 1.3 0 2.3-1.1 2.3-2.4 0-1.3-1-2.3-2.3-2.3-1.2 0-2.3 1-2.3 2.3" class="st8"/><path d="M397.9 368.7s1.4 20.2 20 19.7c16.8-.5 20-19.2 20-19.2" style="fill:none;stroke:#231c1e;stroke-width:1.351;stroke-linecap:round;stroke-miterlimit:10"/><path d="M366.7 428.9c6 8.3 13.9 30.8 16.1 48.4h69c3.1-14.2 3.7-51.9 3.7-51.9l32.5 51.9h29.5L462.9 382l-17.6-8.6s-3 32.4-26.1 34.2c-27.9 2.2-27.9-34.2-27.9-34.2s-24.9 14.7-26.7 15.3" class="st12"/><path d="m357.4 497.4 11.4-51.8s7 19.1 9.5 31.7H410l.7-63.6c-24.3-1.8-26.7-39.1-26.7-39.1s-12.8 4-29.7 10.2c-17 6.1-16.1 95.6-34.2 125zM456.2 477.3c1.7-12.5 6.4-36.4 6.4-36.4l22.5 36.4h34.5c-17.3-32.7-49.6-93.7-50-95.9l-18.8-6.7s-2.4 37.3-26.7 39.1l.7 63.6h31.4z" class="st13"/><path d="m432.6 477.3-.8-56.9c3-.9 24.3-8.2 26.9-40.6 0-.3-.2-.5-.4-.5s-.5.2-.5.4c-2.7 34.1-26.3 39.9-26.5 39.9l-.4.1.8 57.7h.9z" class="st8"/><path d="m443.1 477.3-2.2-61.1h-.9l2.2 61.1z" class="st12"/><path d="m402.5 420.3-.8 56.9h.9l.8-57.7-.4-.1c-.2-.1-23.8-5.8-26.5-39.9 0-.3-.3-.4-.5-.4-.3 0-.4.2-.4.5 2.6 32.5 23.8 39.9 26.9 40.7" class="st8"/><path d="M394.4 416.2h-.9l-2.2 61.1h.9z" class="st12"/><path d="M417.6 406.6c3.6 0 4.8-2.4 4.8-5.1 0-3-2.8-7-3.8-9.7-.8-2.1-.9-3.2-.9-3.2s-.1.8-.9 3c-1.1 3-4.1 7.4-3.9 10.6.1 2.3 1.4 4.4 4.7 4.4" class="st14"/><path d="M418.7 388.5c0 .6-.5 1.1-1.1 1.1-.6 0-1.1-.5-1.1-1.1s.5-1.1 1.1-1.1c.6.1 1.1.5 1.1 1.1" class="st14"/><path d="M418.7 388.5c0 .6-.5 1.1-1.1 1.1-.6 0-1.1-.5-1.1-1.1s.5-1.1 1.1-1.1c.6.1 1.1.5 1.1 1.1z" class="st15"/><path d="M418.1 394.1c-1.3 1.3-3.5 7-2.5 9.4 1 2.3 3.5 2.2 4.4 1.7.9-.5 2-2 1.4-5-.6-3-2.2-5.4-2.5-5.8-.3-.5-.4-.6-.8-.3" class="st16"/><path d="M415.9 403.7c0 .5-.4.9-.9.9s-.9-.4-.9-.9.4-.9.9-.9c.5.1.9.4.9.9M417.3 404.8c0 .3-.2.5-.5.5s-.5-.2-.5-.5.2-.5.5-.5.5.2.5.5" class="st8"/><path d="M427.3 397.9c2.5 0 3.3-1.6 3.3-3.5 0-2-1.9-4.8-2.6-6.6-.5-1.4-.6-2.2-.6-2.2s-.1.6-.6 2c-.7 2-2.8 5-2.7 7.2.1 1.7.9 3.1 3.2 3.1" class="st14"/><path d="M428 385.7c0 .4-.3.7-.7.7-.4 0-.7-.3-.7-.7 0-.4.3-.7.7-.7.4-.1.7.3.7.7" class="st14"/><path d="M428 385.7c0 .4-.3.7-.7.7-.4 0-.7-.3-.7-.7 0-.4.3-.7.7-.7.4-.1.7.3.7.7z" class="st15"/><path d="M427.6 389.4c-.9.9-2.4 4.8-1.7 6.4.7 1.6 2.4 1.5 3 1.2.6-.3 1.4-1.4 1-3.4-.4-2.1-1.5-3.7-1.7-4-.2-.3-.3-.4-.6-.2" class="st16"/><path d="M426.1 396c0 .3-.3.6-.6.6s-.6-.3-.6-.6.3-.6.6-.6.6.2.6.6M427.1 396.7c0 .2-.1.3-.3.3-.2 0-.3-.2-.3-.3 0-.2.1-.3.3-.3.1 0 .3.1.3.3" class="st8"/><path d="M408.1 398.4c2.5 0 3.3-1.6 3.3-3.5 0-2-1.9-4.8-2.6-6.6-.5-1.4-.6-2.2-.6-2.2s-.1.6-.6 2c-.7 2-2.8 5-2.7 7.2 0 1.7.9 3.1 3.2 3.1" class="st14"/><path d="M408.8 386.2c0 .4-.3.7-.7.7-.4 0-.7-.3-.7-.7 0-.4.3-.7.7-.7.4-.1.7.3.7.7" class="st14"/><path d="M408.8 386.2c0 .4-.3.7-.7.7-.4 0-.7-.3-.7-.7 0-.4.3-.7.7-.7.4-.1.7.3.7.7z" class="st15"/><path d="M408.4 389.9c-.9.9-2.4 4.8-1.7 6.4.7 1.6 2.4 1.5 3 1.2.6-.3 1.4-1.4 1-3.4-.4-2.1-1.5-3.7-1.7-4-.3-.3-.4-.4-.6-.2" class="st16"/><path d="M406.9 396.5c0 .3-.3.6-.6.6s-.6-.3-.6-.6.3-.6.6-.6.6.3.6.6M407.8 397.2c0 .2-.1.3-.3.3-.2 0-.3-.2-.3-.3 0-.2.1-.3.3-.3.2 0 .3.1.3.3" class="st8"/><path d="M401.5 387.2c1.4 0 1.9-1 1.9-2 0-1.2-1.1-2.8-1.5-3.8-.3-.8-.4-1.3-.4-1.3s0 .3-.3 1.2c-.4 1.2-1.6 2.9-1.5 4.2 0 .8.5 1.7 1.8 1.7" class="st14"/><path d="M401.7 382.3c-.5.5-1.4 2.8-1 3.7.4.9 1.4.9 1.7.7.3-.2.8-.8.6-2-.2-1.2-.9-2.1-1-2.3-.1-.2-.1-.3-.3-.1" class="st16"/><path d="M400.8 386c0 .2-.1.3-.3.3-.2 0-.3-.2-.3-.3 0-.2.2-.3.3-.3.2 0 .3.1.3.3M401.4 386.5c0 .1-.1.2-.2.2s-.2-.1-.2-.2.1-.2.2-.2.2.1.2.2" class="st8"/><path d="M433.6 387.2c1.4 0 1.9-1 1.9-2 0-1.2-1.1-2.8-1.5-3.8-.3-.8-.4-1.3-.4-1.3s0 .3-.3 1.2c-.4 1.2-1.6 2.9-1.5 4.2 0 .8.5 1.7 1.8 1.7" class="st14"/><path d="M433.8 382.3c-.5.5-1.4 2.8-1 3.7.4.9 1.4.9 1.7.7.3-.2.8-.8.6-2-.2-1.2-.9-2.1-1-2.3-.1-.2-.1-.3-.3-.1" class="st16"/><path d="M432.9 386c0 .2-.1.3-.3.3-.2 0-.3-.2-.3-.3 0-.2.2-.3.3-.3.2 0 .3.1.3.3M433.5 386.5c0 .1-.1.2-.2.2s-.2-.1-.2-.2.1-.2.2-.2.2.1.2.2" class="st8"/><path d="M439.4 244.6s7.3-1.8 13.2 3.2c5.9 5 8.2 21.1-2.3 23.8 0 0 16.4 2.7 18.1-16.3 1.6-18.9-26.8-22.1-29-10.7" class="st17"/><path d="m434.5 211.5 4.9 33.2s10-2.8 18.2.5c8.2 3.2 15.9 9.9 6.1 34.8-6.1 15.3-15.5 50.2-5.2 70.4 8.7 17 28.8 6.6 28.8 6.6s-20.6 5.8-18.8-11.2c1.8-17 43.7-98.5 6.7-130.6-19.4-16.9-40.7-3.7-40.7-3.7" class="st17"/><path d="m436.8 212.1 2.6 32.5s-9.6-11.9-24.1-2.8c-14.6 9.2-8.2 30.1-40.1 34.7 0 0-1.8 30.7-20 33.5-18.2 2.8-24.1-6-24.1-6s7.7 6 17.8-5c10-11-2.3-56.4 18.7-83.4 20.8-27.1 65.5-15.5 69.2-3.5" class="st17"/><path d="M439.4 244.6c-1.1-4.6-4.3-8.3-8.2-10.4-1.9-1.1-4.1-1.9-6.3-2.4s-4.4-.8-6.7-.9c-4.5-.2-9.1.1-13.3 1.5-2.1.7-4.1 1.5-6 2.7-1.8 1.2-3.5 2.6-5 4.2-2.9 3.3-4.7 7.4-5.7 11.8l-.6 3.3c-.1 1.1-.2 2.3-.4 3.5-.4 2.4-1.1 4.7-2.1 6.9-2 4.4-5.5 8.3-10 10.1-2.2.9-4.6 1.4-7 1.2-1.2-.1-2.3-.2-3.5-.5-1.1-.3-2.2-.7-3.3-1.2 2.2.8 4.5 1.2 6.7 1.1 2.3-.1 4.5-.7 6.5-1.7 4-2 6.9-5.7 8.6-9.8.8-2.1 1.4-4.2 1.7-6.5.2-1.1.2-2.2.3-3.4.1-1.2.3-2.4.5-3.6.9-4.7 2.9-9.4 6.2-13.1 1.6-1.9 3.5-3.4 5.6-4.7 2.1-1.3 4.3-2.2 6.7-2.9 4.7-1.3 9.5-1.5 14.2-1.1 4.7.4 9.5 1.6 13.5 4.3 4.1 2.6 7.1 6.9 7.6 11.6M442.3 243.2c1.7-2.1 4.1-3.7 6.6-4.7 2.5-1.1 5.3-1.6 8.1-1.7 2.8-.1 5.5.2 8.3 1 2.7.8 5.3 2.1 7.5 3.9 2.2 1.9 3.9 4.3 5 7s1.5 5.6 1.4 8.5c-.1 2.8-.5 5.7-1.3 8.3-.4 1.4-.8 2.7-1.2 4l-1.3 3.8c-3.5 10.3-6.9 20.5-10 30.9-1.6 5.2-3.1 10.4-4.4 15.6-.7 2.6-1.3 5.3-1.7 7.9-.2 1.3-.4 2.7-.5 4-.1 1.3-.1 2.7.4 4-.7-1.2-.7-2.6-.8-4 0-1.4 0-2.7.2-4.1.2-2.7.7-5.4 1.2-8.1 1-5.4 2.3-10.7 3.7-15.9 2.8-10.5 6-20.9 9.5-31.2.8-2.6 1.8-5.2 2.5-7.6.7-2.5 1.2-5.1 1.3-7.7.1-2.6-.2-5.2-1.1-7.5-.9-2.4-2.3-4.5-4.1-6.2-1.9-1.7-4.1-3-6.6-3.8-2.4-.8-5.1-1.3-7.7-1.3-2.6-.1-5.3.3-7.8 1.1-1.3.4-2.5.9-3.6 1.6-1.6.5-2.7 1.3-3.6 2.2" class="st18"/><path d="M441 235.3c-.3-2.6-1-5.2-1.8-7.7-.9-2.5-1.9-4.9-3.3-7.1-1.4-2.2-3-4.2-4.9-5.9-1.9-1.7-4.1-3-6.5-4-2.4-.9-4.9-1.5-7.4-1.7-2.6-.2-5.1-.2-7.6.1-5 .7-9.8 2.7-13.7 5.9-3.9 3.2-7.1 7.4-9.3 12-2.3 4.6-3.7 9.7-4.6 14.8-.2 1.3-.4 2.6-.5 3.9-.2 1.4-.4 2.7-.7 4-.7 2.7-1.7 5.3-3.5 7.5s-4.3 3.7-7 4.1c-2.7.4-5.4.1-7.9-.9 2.5.7 5.3.8 7.7.1 2.5-.6 4.7-2.1 6.1-4.2 1.5-2 2.3-4.5 2.8-7 .3-1.3.4-2.5.5-3.8.1-1.3.2-2.7.4-4 .7-5.4 2.1-10.7 4.4-15.6 2.4-4.9 5.6-9.5 10-13 4.3-3.4 9.6-5.7 15.1-6.3 2.7-.3 5.5-.3 8.2 0 2.7.3 5.4 1 7.9 2.1s4.8 2.7 6.8 4.6c2 1.9 3.6 4.1 4.9 6.5 1.3 2.4 2.3 4.9 2.9 7.5.6 2.8 1 5.4 1 8.1" class="st18"/><path d="M71.2 389.3s-14.3-3.5-21-9.8c-6.7-6.3-9.9-10.3-3.2-14.1 6.7-3.8 29.5-9.6 38.1-9.6 8.6 0 33.3-.6 39.5 6.9 6.2 7.5 6.6 23.5-2.5 25.8-9.1 2.3-50.9.8-50.9.8" style="fill:#b34218"/><defs><path id="SVGID_00000167387887012794101130000016643238100751743627_" d="M88.3 326.9H69.6v28.6c0 10.9-10.5 20.1-25.7 25.2-15.2 5.1-23.3 10.9-23.3 10.9l-45.1 81.5H6.3l29.3-39.4S42 445.2 47 473.1h82.3c5-27.9 11.4-39.4 11.4-39.4l15-42.1s-8-5.8-23.3-10.9c-15.2-5.1-25.7-14.3-25.7-25.2v-28.6z"/></defs><clipPath id="SVGID_00000050635947794014091640000001303806992930135207_"><use xlink:href="#SVGID_00000167387887012794101130000016643238100751743627_" style="overflow:visible"/></clipPath><linearGradient id="SVGID_00000156546987840003452460000002861735781167803561_" x1="-45.445" x2="-44.979" y1="654.37" y2="654.37" gradientTransform="scale(313.9513)rotate(-90 305.356 -349.294)" gradientUnits="userSpaceOnUse"><stop offset="0" style="stop-color:#f4d9a3"/><stop offset=".213" style="stop-color:#f4d9a3"/><stop offset=".45" style="stop-color:#f3d8a2"/><stop offset="1" style="stop-color:#dbc494"/></linearGradient><path d="M-24.4 326.9h225.1v146.2H-24.4z" style="clip-path:url(#SVGID_00000050635947794014091640000001303806992930135207_);fill:url(#SVGID_00000156546987840003452460000002861735781167803561_)"/><path d="M157.9 245.3c0 53.1-23.4 96.5-68.9 96.5-45.4 0-70.7-43.9-70.7-97s26-58.5 71.4-58.5c45.5.1 68.2 6 68.2 59" style="fill:#f4d9a3"/><path d="M71.1 276.4c0 7.3-5.9 13.2-13.3 13.2-7.3 0-13.3-5.9-13.3-13.2 0-7.3 5.9-13.2 13.3-13.2 7.3 0 13.3 5.9 13.3 13.2" class="st22"/><path d="M67.6 276.4c0 5.1-4.1 9.2-9.2 9.2s-9.2-4.1-9.2-9.2 4.1-9.2 9.2-9.2 9.2 4.1 9.2 9.2" class="st23"/><path d="M54.6 271.6c0 1.5-1.2 2.7-2.6 2.7-1.5 0-2.7-1.2-2.7-2.7s1.2-2.7 2.7-2.7c1.4 0 2.6 1.2 2.6 2.7" class="st8"/><path d="M62.6 309.5c8.1 4.9 16.7 8 25.4 7.8 8.8 0 17.2-3.4 25.6-7.8-3.1 3.7-6.9 6.7-11.3 8.9s-9.3 3.4-14.3 3.5c-5 0-9.9-1.1-14.3-3.3-4.3-2.2-8.2-5.2-11.1-9.1" style="fill:#a8856f"/><path d="M106.6 276.4c0 7.3 5.9 13.2 13.3 13.2 7.3 0 13.3-5.9 13.3-13.2 0-7.3-5.9-13.2-13.3-13.2s-13.3 5.9-13.3 13.2" class="st22"/><path d="M110 276.4c0 5.1 4.1 9.2 9.2 9.2s9.2-4.1 9.2-9.2-4.1-9.2-9.2-9.2-9.2 4.1-9.2 9.2" class="st23"/><path d="M110.5 271.6c0 1.5 1.2 2.7 2.6 2.7 1.5 0 2.7-1.2 2.7-2.7s-1.2-2.7-2.7-2.7c-1.4 0-2.6 1.2-2.6 2.7" class="st8"/><path d="M62.4 199.9c0 1 .1 1.9.2 2.9s.2 1.9.5 2.9c.2.9.5 1.9.8 2.8.4.9.8 1.7 1.4 2.4l-.4.1 1.2-3.5 1.3-3.5.2-.6.3.6 3.4 6.3h-.6l2.8-6.3.2-.6.3.5c.9 1.6 1.8 3.2 2.6 4.8h-.4l2.9-3.3.2-.2.1.2 1.8 2.7H81l2.5-1.7h.1v.1c.2.4.5.7.8 1 .3.3.7.6 1 .8-.4-.2-.7-.5-1.1-.8-.3-.3-.7-.6-.9-1h.1l-2.4 1.9-.1.1-.1-.1-1.9-2.6h.3l-2.8 3.3-.2.3-.2-.3c-.9-1.6-1.8-3.2-2.7-4.7h.5l-2.7 6.4-.3.6-.3-.6-3.4-6.4h.5l-1.3 3.5-1.3 3.5-.2.4-.3-.3c-1.2-1.6-1.8-3.5-2.2-5.4-.2-1-.3-1.9-.3-2.9.2-1.3.2-2.3.3-3.3" class="st25"/><path d="M155.1 391.3c-2.5-2.2-39.3-20.7-39.3-20.7-1.7 4.6-13.8 10.9-26.3 11.1-13.4.2-27.2-6.2-29-11.1 0 0-36.8 18.5-39.3 20.7-2.5 2.2 15.5 51.3 15.5 51.3s1.6 19.7 3 31.1h96.8c1.4-11.5 3-31.1 3-31.1s18.2-49 15.6-51.3" style="fill:#dfe5e8"/><path d="M88.2 387.6c19.9 0 30.1-9.3 33.9-13.8l-.6-.3c-3.7 4.4-13.7 13.4-33.2 13.4-20.3 0-30.7-9.1-34.2-13l-.6.3c3.4 4 13.9 13.4 34.7 13.4" style="fill:#cbd0d4"/><path d="M67.6 473.8s.6-62 0-67.6c-.6-5.6-6.9-19.4-18.3-32.6 0 0-24.3 10.7-29.1 14.1-4.8 3.4-48 86.2-48 86.2h40.7l22.7-27.3 2.1 27.3h29.9z" class="st28"/><path d="M67.5 473.8c.6-62 .6-61.9 0-67.6-.6-5.6-3.6-16.4-18.8-29.6" class="st29"/><path d="M19.7 388.2c10.7 5.8 16.1 50.2 15.3 57.5-.1.7-.1 1.3-.2 1.8l.9-1 .2 2.8c.1-.9.3-2 .4-3.5.6-6-3.9-51-15.5-58.5-.2.1-.4.2-.5.3-.2.1-.4.3-.6.6" class="st30"/><path d="M108.5 473.8s-.6-62 0-67.6c.6-5.6 6.9-19.4 18.3-32.6 0 0 24.3 10.7 29.1 14.1 4.8 3.4 52.5 119.4 52.5 119.4l-44.3-5.5-23.6-55-3.3 42.6z" class="st28"/><path d="M108.6 473.8c-.6-62-.6-61.9 0-67.6.6-5.6 3.6-16.4 18.8-29.6" class="st29"/><path d="M156.5 388.2c-10.7 5.8-16.1 50.2-15.3 57.5.1.7.1 1.3.2 1.8l-.9-1-.2 2.8c-.1-.9-.3-2-.4-3.5-.6-6 3.9-51 15.5-58.5.2.1.4.2.5.3.2.1.4.3.6.6" class="st30"/><path d="M144.8 196c-25.1-18.7-77.3-17.4-104.6-3.6C9.8 207.7 17 255.6 21.7 277c0 0 5.3-40.6 18.5-46.5 13.2-5.9 23.2-8.8 48.1-8.8 24.9 0 34.9 2.8 48.1 8.8 13.2 5.9 18.5 46.5 18.5 46.5 4.6-21.4 9.2-66.5-10.1-81" class="st31"/><path d="M142.2 228.8c-2.3-3.3-7.3-5.9-13.9-7.8-1.5-.4-3.1-.9-4.7-1.2-.8-.2-1.5-.3-2.3-.5-.7-.1-1.4-.3-2.1-.4-.9-.2-1.9-.3-2.9-.5-9.4-1.5-20-2.2-29.8-2.2-1.2 0-3.9-.7-3.9-.7l-3.6.9-3.7-.7-2.6 1.2-3-1.2-2.5 1.9-3.7-3.1s-.3 3.8-1.1 3.9c-13.5 2.4-24.5 6.4-27.3 10.5-1.8 2.7-6.8 13.3-6.8 13.3l-2.2 1.7.6 2.9-1.3 2.1s-.6 7.4-.8 8.6c-.2 2-.4 3.8-.4 5.4 2.8-12.3 7.9-28.3 15.9-31.9 13.2-5.9 23.2-8.8 48.1-8.8 24.9 0 34.9 2.8 48.1 8.8 8.4 3.8 13.7 21.8 16.4 34.3-.1-12-4.9-28.5-10.5-36.5" class="st32"/><path d="M52.1 226h-.8l-.3-.1-.2-.1c-.3-.1-.6-.2-.8-.3-.2-.1-.5-.2-.7-.4l-.6-.4c-.8-.6-1.4-1.2-1.9-1.8l-.4-.5-.3-.5-.6-1c-.3-.7-.7-1.3-1-2-1.1-2.6-1.7-5.3-2.1-7.9-.2-1.3-.4-2.6-.5-3.9l-.3-3.9c-.1-2.6-.1-5.2-.1-7.8.5 2.5.9 5.1 1.6 7.5.3 1.2.6 2.5 1 3.7.3 1.2.8 2.4 1.2 3.6.9 2.3 1.9 4.6 3.2 6.5.3.5.7.9 1 1.3l.5.6.3.3.3.2c.4.3.7.5 1.1.7.1 0 .2.1.2.1H52.2 52c1.7 0 3 1.3 3.1 2.9-.1 1.8-1.4 3.2-3 3.2" class="st32"/><path d="M56.7 223.8c-.1 0-.2-.1-.3-.1l-.2-.1c-.1 0-.2-.1-.3-.1-.2-.1-.3-.2-.5-.3-.3-.2-.6-.4-.8-.6-.2-.2-.5-.4-.7-.7-.2-.2-.4-.5-.6-.7l-.5-.7-.4-.7c-.3-.5-.5-1-.7-1.5-.8-2-1.2-4-1.5-5.9-.2-2-.4-3.9-.4-5.9 0-1 0-1.9.1-2.9l.2-2.9.4 2.9c.1.9.4 1.9.5 2.8.4 1.9.9 3.7 1.5 5.5.6 1.7 1.4 3.4 2.3 4.9.3.3.5.7.7 1l.4.5.4.4c.1.1.3.2.4.3.1.1.3.2.4.3.1.1.3.1.4.2h.1-.1zM61.4 222.8c-.3-.1-.3-.2-.5-.3-.1-.1-.2-.2-.3-.2-.2-.2-.4-.3-.6-.5-.3-.3-.6-.7-.9-1.1-.3-.4-.5-.7-.7-1.1l-.6-1.2c-.7-1.6-1-3.2-1.1-4.8-.1-.8-.1-1.6-.1-2.3 0-.8.1-1.5.2-2.3.1-.7.2-1.5.4-2.2l.5-2.2.1 2.2c.1.7.1 1.5.2 2.2.1.7.2 1.4.4 2.1.2.7.3 1.4.6 2 .5 1.3 1.1 2.5 1.9 3.5.2.2.4.5.6.7.2.2.4.4.7.6.2.2.5.3.7.4.1 0 .2.1.3.1h.1s.1 0 0 0zM135.5 223.8s.1-.1 0 0l.2-.2.3-.3c.2-.2.4-.5.6-.7.4-.5.8-1 1.1-1.6.7-1.1 1.2-2.4 1.7-3.7.4-1.3.8-2.7 1-4.1l.3-2.1c.1-.7.1-1.4.1-2.2.1.7.3 1.4.4 2.2.1.7.2 1.5.3 2.2.2 1.5.2 3 .1 4.5s-.3 3.1-.8 4.6c-.2.8-.5 1.5-.8 2.3-.2.4-.3.8-.5 1.1l-.3.6c-.1.1-.1.2-.2.3-.1.1-.1.2-.2.4z" class="st32"/><path d="m130.9 223.3.5-.5c.2-.2.3-.4.5-.6.3-.4.7-.9 1-1.4.6-1 1.2-2 1.7-3 .5-1.1 1-2.1 1.3-3.3.4-1.1.7-2.3.9-3.5.1 1.2.2 2.4.2 3.7 0 1.2-.1 2.5-.2 3.7-.1 1.3-.4 2.5-.7 3.7-.2.6-.3 1.2-.5 1.9l-.3.9c-.1.3-.2.6-.4 1zM148.5 244c-.1.1 0 .1 0 0 0 .1.1.1 0 0 .2.1.3 0 .4 0 .2 0 .4-.1.6-.1.2 0 .4-.2.7-.2.2-.1.4-.2.7-.3.9-.5 1.8-1.3 2.5-2.1.4-.4.7-.9 1.1-1.4.3-.5.6-1 1-1.6.3-.5.6-1.1.8-1.7l.7-1.7-.2 1.9c-.1.6-.2 1.3-.3 1.9-.1.6-.3 1.3-.5 1.9-.2.6-.4 1.3-.7 1.9-.5 1.3-1.2 2.5-2.2 3.6l-.8.8c-.3.2-.6.5-.9.7-.3.2-.7.4-1.1.6l-.6.3c-.1 0-.2.1-.3.1-.2 0-.2.1-.5.1z" class="st32"/><path d="m41.4 192.4 2.4-10.4 2.8 4.4 8-6.7v5.4l9.6-6.7 1.1 3.6 6.2-1.9-.3 2.8 12.5-6 .6 5.1 4.2-3.6 1.3 3.3 18.3-3.1v2.3l9.1 1.1v1.7h4.6v2.2l13-.4 2.4 6.4 2 .5v1.6l13.1 16.4 3.6-2.7v5.6h2l-.4 7.5h1.5l-.2 12.3-10.1-21.1-13.1-12.1-32.1-13-36.6 6.5zM38.9 199.9s-.5-5.6-3.8-9l-.8 5.2-3-.5-.7 3.8-2 .5-.5 2.2-1.7 23.2 12.4-24.5v-.9z" class="st31"/><path d="m33.4 233.7-4.5-6.7 7.2 3.7z" class="st32"/><path d="m31.8 237.3-4.2-4.4 6 .8z" class="st32"/><path d="M85.8 206.9c-.1-.2-.2-.4-.3-.5-.1-.2-.2-.4-.2-.5l-.1-.4-.5.2-2.1.9c-.4-.8-.7-1.6-1.1-2.4l-.5-1.1-1.1.9c-.6.5-1.3 1-1.9 1.6-.4-1.1-.9-2.3-1.3-3.4l-1.2-2.9-1.6 2.7-1.8 3c-.5-1.2-1-2.3-1.5-3.5l-1.4-3.2-1.4 3.1c-.5 1.1-1 2.3-1.5 3.4-.2.4-.3.8-.5 1.2 0 0 0-.1-.1-.1-.3-.8-.5-1.7-.7-2.7-.2-.9-.3-1.9-.4-2.8-.1-1-.2-1.9-.2-2.9-.3.9-.5 1.9-.6 2.9-.1 1-.2 2-.2 3s.1 2 .3 3.1c.2 1 .5 2.1 1.1 3.1l1 1.8 1.1-1.9 1.8-3.3c0-.1.1-.2.1-.2.5 1.2 1 2.4 1.4 3.6l1.3 3.2 1.7-3c.6-1.1 1.2-2.3 1.8-3.4.3.7.7 1.4 1 2.1l.9 1.8 1.2-1.3c.7-.8 1.4-1.5 2.1-2.3.4.5.7 1 1.1 1.5l.5.6.5-.4c.7-.5 1.5-1.1 2.2-1.6l.2.2.5.5c.4.3.7.5 1.1.8-.2-.7-.5-1.1-.7-1.4M39.9 219.1c-.4-.4-.9-1.2-1.2-2-.4-.8-.7-1.7-1-2.6l-.9-2.8c-.3-.9-.6-1.9-.9-2.8-.2 1-.2 2-.3 3 0 1 0 2 .2 3 .1.7.2 1.3.4 2-.2-.1-.4-.3-.6-.4l-.1-.1c-.3-.2-.7-.3-1.1-.2-.6.2-1 .9-.8 1.5.2.5.3.9.5 1.3s.4.9.6 1.3l.9 1.5h-.5c-.3 0-.6-.1-.9-.1l-.9-.3c.4.5 1 .9 1.6 1.2.3.1.7.3 1 .3.2 0 .4.1.6.1.2 0 .4 0 .7-.1h.1c.3-.2.5-.5.3-.9l-.1-.2-.6-1.5c.1.1.2.1.3.2.4.2.7.4 1.1.6.5.2 1.1.2 1.5-.3.6-.4.6-1.2.1-1.7M154 220.8h-.4c.1-1.1.2-2.2.2-3.3l.1-2.5-1.2 1.3c0-.6-.1-1.1-.1-1.7l-.3-2.1c-.2-.7-.3-1.4-.7-2.2l-.5-1-.7.7-.5.5c0-.1-.1-.2-.1-.2-.2-.4-.4-.9-.6-1.3-.2-.4-.4-.9-.7-1.3-.3-.4-.5-.8-.9-1.1.2.4.3.9.5 1.3.1.4.2.9.3 1.3l.3 1.4.2 1.3.2 1.1.9-.7.3-.3c0 .3.1.5.1.8.1.6.1 1.3.2 2 .1 1.3.1 2.7.2 4.1l.1 2.7 1.3-1.6c0 .5.1 1 .1 1.5l.1.7h.6c.2 0 .4 0 .6-.1.1 1.2.3 2.5.5 3.7.3-1.4.5-2.9.6-4.3v-.5z" class="st25"/><path d="M66.5 425.7s-1.9-19.1-8-25.8c-6.1-6.7-23-14.4-25.3-23.2-1-3.8 0-8.4 3-10.2 2.6-1.5 1.9-5.5 3.7-7.4 5.3-5.6 21.3-9.7 29.7-10.8 0 0 0 8.4-.1 9.9-.1 1.6-.7 3.3-.7 3.3s-6.5 1.5-13.5 5.8c-8.5 5.3 2.5 13.9 7.3 22.9 4.8 9 4 22 3.9 35.5" class="st33"/><path d="M58.5 399.9c-1.2-1.3-2.6-2.5-4.1-3.6-1.4-1.1-2.9-2.1-4.4-3.2-3-2.1-6-4.1-8.8-6.3-1.4-1.1-2.8-2.3-4.1-3.6-1.3-1.3-2.5-2.7-3.3-4.3-.9-1.6-1.3-3.5-1.3-5.3 0-1.8.4-3.7 1.4-5.4.5-.8 1.2-1.5 2-2 .7-.4 1.2-1.1 1.5-1.9.3-.8.5-1.7.7-2.6.2-.9.5-1.8 1.1-2.6 2.6-2.9 5.9-4.4 9.3-5.9 3.3-1.4 6.8-2.5 10.3-3.4 3.5-.9 7-1.7 10.6-2.2l.2 1.3c-3.5.4-7.1 1.1-10.5 2-3.5.9-6.9 1.9-10.2 3.2-1.7.6-3.3 1.4-4.8 2.3-.7.5-1.5.9-2.2 1.4l-.5.4c-.2.1-.3.3-.5.4-.3.3-.7.6-.9.9-.5.6-.7 1.5-1 2.3-.2.9-.4 1.8-.8 2.6-.4.9-1 1.7-1.9 2.2-.7.4-1.3 1-1.8 1.8-.9 1.4-1.4 3.2-1.4 5 0 1.8.3 3.5 1.2 5.1.8 1.6 2 3 3.2 4.3 1.2 1.3 2.6 2.5 4 3.6 2.8 2.3 5.8 4.3 8.7 6.4 1.5 1.1 2.9 2.1 4.3 3.2 1.4 1.3 2.7 2.5 4 3.9" class="st34"/><path d="M59.8 452.8c-.3 0-.5-.2-.5-.5l-.1-5.3c0-.3.2-.5.5-.5s.5.2.5.5l.1 5.3c0 .3-.3.5-.5.5" class="st35"/><path d="M60.5 397.4s.4-.7-.5-1.6c-.9-.9-2.8-1.5-3.1-1-.3.5.4 1.7 1.5 2.4 1.1.8 1.8.6 2.1.2" class="st28"/><path d="M59.6 448.7c-.4 0-.7-.3-.7-.7l-1.2-51.6c0-.4.3-.7.6-.7.4 0 .7.3.7.7l1.2 51.6c.1.3-.2.7-.6.7" class="st8"/><path d="M109.7 425.7s1.9-19.1 8-25.8c6.1-6.7 23-14.4 25.3-23.2 1-3.8 0-8.4-3-10.2-2.6-1.5-1.9-5.5-3.7-7.4-5.3-5.6-21.3-9.7-29.7-10.8 0 0 0 8.4.1 9.9.1 1.6.7 3.3.7 3.3s6.5 1.5 13.5 5.8c8.5 5.3-2.5 13.9-7.3 22.9-4.9 9-4.1 22-3.9 35.5" class="st33"/><path d="M116.4 452.8c-.3 0-.5-.2-.5-.5l.1-5.3c0-.3.2-.5.5-.5s.5.2.5.5l-.1 5.3c0 .3-.3.5-.5.5" class="st35"/><path d="M117.7 399.9c1.2-1.3 2.6-2.5 4-3.6s2.9-2.2 4.3-3.2c2.9-2.1 5.9-4.2 8.7-6.4 1.4-1.1 2.7-2.3 4-3.6 1.2-1.3 2.4-2.7 3.2-4.3.8-1.6 1.2-3.3 1.2-5.1 0-1.8-.4-3.5-1.4-5-.5-.7-1.1-1.3-1.8-1.8-.9-.5-1.5-1.3-1.9-2.2-.4-.9-.6-1.8-.8-2.6-.2-.9-.5-1.7-1-2.3-.2-.3-.6-.6-.9-.9-.2-.1-.3-.3-.5-.4l-.5-.4c-.7-.5-1.5-1-2.2-1.4-1.6-.8-3.2-1.6-4.8-2.3-3.3-1.3-6.7-2.4-10.2-3.2-3.5-.9-7-1.6-10.5-2l.2-1.3c3.6.5 7.1 1.3 10.6 2.2 3.5.9 7 2 10.3 3.4 3.3 1.4 6.7 3 9.3 5.9.6.8.8 1.8 1.1 2.6.2.9.4 1.8.7 2.6.3.8.8 1.5 1.5 1.9.8.5 1.5 1.2 2 2 1 1.6 1.4 3.5 1.4 5.4 0 1.8-.4 3.7-1.3 5.3-.9 1.6-2.1 3-3.3 4.3-1.3 1.3-2.7 2.5-4.1 3.6-2.8 2.2-5.8 4.2-8.8 6.3-1.5 1-3 2.1-4.4 3.2-1.5.8-2.9 1.9-4.1 3.3" class="st34"/><path d="M115.9 397.4s-.4-.7.5-1.6c.9-.9 2.8-1.5 3.1-1 .3.5-.4 1.7-1.5 2.4-1.1.8-1.8.6-2.1.2" class="st28"/><path d="M116.5 448.7c-.4 0-.7-.3-.7-.7l1.2-51.6c0-.4.3-.7.7-.7.4 0 .7.3.6.7l-1.2 51.6c.1.4-.2.7-.6.7" class="st8"/><defs><path id="SVGID_00000134236769409588312120000008053869852435067059_" d="M134.6 120.9h164.2v152.9H134.6z"/></defs><clipPath id="SVGID_00000032637403863874080900000012501007060433905559_"><use xlink:href="#SVGID_00000134236769409588312120000008053869852435067059_" style="overflow:visible"/></clipPath><path d="M253.5 124.2H138.7v125.2h13l-.4 23.9 44.5-23.9h98.8v-37.6h-41.1z" style="clip-path:url(#SVGID_00000032637403863874080900000012501007060433905559_);fill:#1d1d1b"/><path d="M246 119H131.3v125.2h12.9l-.3 23.9 44.5-23.9h98.7v-37.6H246z" class="st8"/><path d="M202 213.3c-3.5 0-7.2 0-11-.1-30.8-.7-37.4-4.4-39.8-7.1-2-2.3-1.6-4.2-1.2-5.2 1.3-3.3 6.2-4.9 17.2-6.3-.4-1.7-.2-3.5.5-5.2.3-.7.6-1.5 1-2.3-10.1-.2-15.2-2.1-16.2-6-1.4-4.9 4.5-10.2 13.7-16.3-3.1-.1-5.9-.2-8.3-.2-3.6 0-12.1 0-12.1-5.1 0-2.9 3.3-5.6 9.7-8.1 5.4-2.1 11.6-3.4 16.4-3.4 4.8 0 9.7 2.2 14.2 5.3 11.8-4.4 26.1-3.3 41.1 3.4 1.8.8 5.6 2.5 4.9 5.6-.8 3.4-5.1 4.6-31.9 3.8 1.5 1.7 2.6 3.1 3.4 4.1 5-.2 10.7-.1 17.2.4 9.8.8 14.8 1.9 14.6 5.6-.1 2.7-3.1 4-7.8 5.2-3.7 1-9 2-15.2 2.8-12 1.7-26 2.7-38.1 2.9-1 1.6-1.6 3.1-2 4.1-.4.9-.3 1.9-.1 2.7 4-.4 8.6-.9 13.9-1.3 10.2-.9 20.7-1.8 30.2-3.3 11.8-1.9 15.1-1.6 15.8 1.4.7 2.6-2.3 4.3-3.8 5.1-1.7.9-4.1 2.1-7.3 3.4-1.1.5-2.3 1-3.5 1.5l15.4.6c.3 0 .6.1.9.2 1.8.8 3.9 2.2 3.6 4.6-.3 2.3-2.5 3.9-7.7 5.4-3 .8-5.8 1.3-5.9 1.4h-.3c-.1 0-9.6.4-21.5.4m-6.6-5.2c13.8.2 26.2-.3 27.7-.4 2.2-.4 4.5-1 6.3-1.5l-22.3-.8c-.4 0-.7-.1-1-.3-1.2.4-2.3.9-3.4 1.3-2.3.9-4.8 1.4-7.3 1.7m-40.4-5.5.1.1c.9 1 5.7 4.2 31.3 5.2-6.5-1-12.3-3.9-15.8-7.5-.3-.3-.6-.7-.9-1-1.8.2-3.5.4-5 .7-6.8 1-9 2-9.7 2.5m21.3-3.9c5.8 4.1 16.1 6.1 24.7 2.9 8.7-3.2 15.4-5.8 19.9-7.8-1.1.1-2.3.3-3.6.5-9.7 1.5-20.8 2.5-30.5 3.3-3.7.5-7.2.8-10.5 1.1m-1.2-33.6c-3.9 2.4-8.2 5.1-11.7 7.8-6.4 4.9-6.1 6.7-6.1 6.7s1.2 2.3 13.7 2.3h.9c4.2-5.2 11.6-9.8 25.5-11.4-1.3-1.5-2.7-3.1-4.4-4.8-3.6-.1-7.5-.3-11.8-.4-2 0-4-.1-6.1-.2m26.9 10.2c-11.5.8-18.4 3.5-22.6 6.6 20.2-.6 39.4-3.4 47.6-5.5-1.5-.2-3.6-.5-6.5-.7-6.6-.5-12.2-.6-17.1-.4-.5.1-1 .1-1.4 0m-6.7-14.5c5.7.2 11.2.3 16.1.4 6.3 0 10.3-.1 12.7-.4-12.1-5.1-23.3-6.4-33-3.8 1.5 1.3 2.9 2.5 4.2 3.8m-12.3-.5c1.4.1 2.9.1 4.3.2l-1.8-1.5c-.8.5-1.7.9-2.5 1.3m-31.3-1.2c1 .2 2.9.5 6.2.5 4.2 0 9.8.2 16 .4l1.5-.9c1.4-.8 2.6-1.6 3.7-2.3.5-.3 1.1-.7 1.6-1-3-1.7-5.9-2.7-8.7-2.7-8.1 0-17.4 3.7-20.3 6" class="st37"/><defs><path id="SVGID_00000160872911227098496560000006643784511837526671_" d="M262.2 71.5h164.2v152.9H262.2z"/></defs><clipPath id="SVGID_00000183245189082863597210000010938299699168065205_"><use xlink:href="#SVGID_00000160872911227098496560000006643784511837526671_" style="overflow:visible"/></clipPath><path d="M266.4 199.9V74.7h155.8v125.2h-13.9v24l-44.1-24z" style="clip-path:url(#SVGID_00000183245189082863597210000010938299699168065205_);fill:#1d1d1b"/><path d="M258.2 69.6v125.2H356l44.1 23.9v-23.9h14V69.6z" class="st8"/><path d="M274.6 154.4h57.2v10.2h-57.2zM340.5 154.4h57.2v10.2h-57.2zM365.2 126.2h32.5v10.2h-32.5zM274.6 126.2h79.8v10.2h-79.8zM274.2 98h57.2v10.2h-57.2zM340.1 98h57.2v10.2h-57.2z" class="st37"/></g></svg>