<svg xmlns="http://www.w3.org/2000/svg" xmlns:xlink="http://www.w3.org/1999/xlink" xml:space="preserve" id="Layer_1" x="0" y="0" version="1.1" viewBox="0 0 507.9 507.9"><style>.st4{fill:#fff}.st6{fill:#d8dada}.st7{fill:#0090d0}.st15{fill:#002f3e}.st19{fill:#e7d8c7}.st22{fill:#f49400}.st23{fill:#e08900}</style><circle cx="253.6" cy="253.7" r="252.6" style="fill:#00a39c"/><circle cx="253.6" cy="253.7" r="252.6" style="fill:#009f9c"/><path d="M432.2 75c-98.7-98.7-258.6-98.7-357.3 0l357.3 357.3c98.7-98.6 98.7-258.6 0-357.3" style="fill:#00aba8"/><path d="M130 96.8h232v284.8H130z" style="opacity:.3;fill:#213a38"/><path d="M138.7 104.8h232v283.5h-232z" class="st4"/><path d="M169.8 142.5h85.8v8.7h-85.8z" style="fill:#838587"/><path d="M169.8 170.7h170.7v8.7H169.8zM169.8 194.1h83.5v8.7h-83.5zM169.8 239.9h83.5v8.7h-83.5zM169.8 217h83.5v8.7h-83.5z" class="st6"/><path d="M261.7 193.1h78.7v55.5h-78.7z" class="st7"/><path d="M168.7 335.9h45.4v8.7h-45.4z" class="st6"/><circle cx="191.4" cy="308.4" r="13.8" class="st7"/><path d="M231.9 335.9h45.4v8.7h-45.4z" class="st6"/><circle cx="254.6" cy="308.4" r="13.8" class="st7"/><path d="M295.1 335.9h45.4v8.7h-45.4z" class="st6"/><circle cx="317.8" cy="308.4" r="13.8" class="st7"/><path d="M169.8 262.1h170.7v8.7H169.8z" class="st6"/><defs><path id="SVGID_1_" d="M255.3 319.8H447v94H255.3z" transform="rotate(-60.04 351.226 366.818)"/></defs><clipPath id="SVGID_00000038394506474915492020000010158233655521793174_"><use xlink:href="#SVGID_1_" style="overflow:visible"/></clipPath><path d="M421.3 308.1c-3 1.8-5.9 3.7-8.9 5.5-.9-.1-1.9-.4-2.9-.7-1.6-.5-3-1.1-4.1-1.7-24.9 12.8-32.2 19.2-33.2 22.6-.1.3-.8 2.7-2.8 5.1-.9 1.1-2.9 3.4-5.9 3.5-1 .1-1.8-.2-2.3-.3-.1-.3-.1-.6-.1-1 0-1 .5-1.7.8-2 5.7-5.4 12.7-11.3 21-17 12.9-8.9 25.2-14.8 35.4-18.8.4.1 1.2.4 1.9 1.1 1.5 1.3 1.1 3.5 1.1 3.7" style="clip-path:url(#SVGID_00000038394506474915492020000010158233655521793174_)"/><path d="M361.2 342.2c.9.3 1.7.4 2.5.4 3.1-.2 5.1-2.6 6-3.6 1.8-2.1 2.5-4.3 2.8-5.1 1.3-4.3 12.4-11.9 33.1-22.5 1.3.7 2.6 1.3 4 1.7 1 .3 1.9.5 2.9.7h.1l8.9-5.5v-.1c0-.2.4-2.5-1.1-4-.7-.7-1.4-1-2-1.1-12.5 4.9-24.4 11.2-35.5 18.8-7.4 5.1-14.5 10.8-21 17-.4.5-.8 1.2-.8 2.2-.1.3 0 .7.1 1.1" style="clip-path:url(#SVGID_00000038394506474915492020000010158233655521793174_);fill:#b6b6b6"/><path d="m342.8 359.1 10.6 15.4 77.2-53.1c3.9-2.7 4.9-8 2.2-11.9l-.9-1.3c-2.7-3.9-8-4.9-11.9-2.2z" style="clip-path:url(#SVGID_00000038394506474915492020000010158233655521793174_);fill:#003f4d"/><path d="M343.2 358.9s-28.9 20-38.9 26.9c-10 6.9-18.8 15-18.8 15l8.9 12.5s11.1-5.6 20.8-12.4l38.8-26.8zM262.8 426.5c.3.5 2.6-.3 5.4-1.9.3-.1.4-.4.3-.6l-1.3-1.9c-.1-.2-.5-.1-.7.1-2.5 2-4 3.8-3.7 4.3" style="clip-path:url(#SVGID_00000038394506474915492020000010158233655521793174_)"/><path d="m293.8 412.7-8.1-11.7c-1.5 1.3-2.9 2.6-4.4 3.9l-.4.9c-5.2 5.6-10.4 11.3-15.6 16.9.6.9 1.2 1.8 1.9 2.7l21.1-10h.9c1.6-.9 3.1-1.8 4.6-2.7" style="clip-path:url(#SVGID_00000038394506474915492020000010158233655521793174_);fill:#d3d3d3"/><path d="M437.3 307.5c0 .1.1.2.1.3 0-.1-.1-.2-.1-.3m.1.3c0 .1 0 .1.1.2-.1 0-.1-.1-.1-.2M437.1 307c0 .1.1.2.1.3 0-.1-.1-.2-.1-.3m.1.3c0 .1.1.1.1.2 0-.1-.1-.1-.1-.2" style="clip-path:url(#SVGID_00000038394506474915492020000010158233655521793174_);fill:#fff"/><path d="M436 305.4" class="st4"/><defs><path id="SVGID_00000077287102743607797330000005219596668322163882_" d="M255.3 319.8H447v94H255.3z" transform="rotate(-60.04 351.226 366.818)"/></defs><clipPath id="SVGID_00000164503298106328829890000005137095149098334895_"><use xlink:href="#SVGID_00000077287102743607797330000005219596668322163882_" style="overflow:visible"/></clipPath><path d="M436.8 306.5c.1.1.1.2.2.3-.1-.1-.2-.2-.2-.3m.1.3c0 .1.1.1.1.2 0-.1 0-.1-.1-.2" style="clip-path:url(#SVGID_00000164503298106328829890000005137095149098334895_);fill:#fff"/><path d="M434.8 304.4" class="st4"/><defs><path id="SVGID_00000093894334961113359610000013866037473794821506_" d="M255.3 319.8H447v94H255.3z" transform="rotate(-60.04 351.226 366.818)"/></defs><clipPath id="SVGID_00000131365552097579236010000011594906218369982624_"><use xlink:href="#SVGID_00000093894334961113359610000013866037473794821506_" style="overflow:visible"/></clipPath><path d="M292.4 410.5c-1.1-1.4-2.1-2.9-3.1-4.3zm-18.1 2.6c-3 3.2-5.9 6.4-8.9 9.6.1.1.1.2.2.3-.1-.2-.2-.3-.2-.3 2.3-2.5 6.5-7 8.9-9.6m-7.2 12.1c.1.1.1.2.2.3 0-.1-.1-.2-.2-.3" style="clip-path:url(#SVGID_00000131365552097579236010000011594906218369982624_);fill:#fff"/><path d="m429.6 306.9 4.3 6.2-82.7 57-4.7-6.5z" class="st15"/><defs><path id="SVGID_00000011015582267460402350000017423911859071985815_" d="M255.3 319.8H447v94H255.3z" transform="rotate(-60.04 351.226 366.818)"/></defs><clipPath id="SVGID_00000070830663519634211940000003795547873370968195_"><use xlink:href="#SVGID_00000011015582267460402350000017423911859071985815_" style="overflow:visible"/></clipPath><path d="M265.6 423c.5.7 1 1.5 1.5 2.2-.4-.6-1.1-1.7-1.5-2.2" style="clip-path:url(#SVGID_00000070830663519634211940000003795547873370968195_);fill:#404040"/><path d="M287.7 403.9c.5.8 1.1 1.5 1.6 2.3 1 1.5 2 2.9 3 4.4l-.9.6-13.1 9-11.1 5.2c-.1-.1-.1-.2-.2-.3-.5-.7-1-1.5-1.5-2.2-.1-.1-.1-.2-.2-.3 3-3.2 5.9-6.4 8.9-9.6l.1-.1z" style="clip-path:url(#SVGID_00000070830663519634211940000003795547873370968195_);fill:#ddd"/><path d="M434.4 304.1c-.2-.1-.3-.1-.5-.2.2.1.3.1.5.2M434.8 304.4c-.1 0-.1-.1-.2-.1 0 0 .1 0 .2.1m-.2-.2c-.1 0-.1-.1-.2-.1 0 .1.1.1.2.1M435.6 305c-.2-.2-.4-.4-.7-.5.2.1.5.3.7.5m-.7-.6s-.1 0-.1-.1c0 .1.1.1.1.1M435.9 305.3l-.2-.2zm-.2-.1-.1-.1c.1 0 .1 0 .1.1" class="st4"/><path d="m428.3 305 6.2 9 1-.7c2.2-1.5 2.8-4.6 1.3-6.8l-.5-.7c-1.6-2.3-4.8-2.9-7.2-1.3z" style="fill:#b6b6b6"/><path d="m333.7 431.6.7 18.5 12.2-14z" class="st19"/><path d="m334.1 442.1.3 8 5.3-6z" class="st15"/><path d="M401.4 280.3c-1.4 3.9-5.4 6.1-8.9 4.8-3.6-1.3-5.3-5.4-3.9-9.4l5.6-16c1.4-3.9 5.4-6.1 8.9-4.8 3.6 1.3 5.3 5.4 3.9 9.4z" style="fill:#c32b78"/><path d="M405 267.1c-1.7.4-3.3-.1-5.8-1.5-2.1-1.1-.5-4.9.4-6.8.7-1.5 1.8-3.2 3.4-3.9-3.5-1.2-7.5 1-8.8 4.9l-5.6 16c-1.4 3.9.4 8.1 3.9 9.4 3.6 1.3 7.6-.9 8.9-4.8l5-14.2c-.4.2-.8.7-1.4.9" style="fill:#c6236e"/><path d="m333.62 431.636 54.963-156.1 4.338 1.528-54.962 156.1z" class="st22"/><path d="M337.957 433.145 392.92 277.03l4.339 1.528-54.963 156.116z" class="st23"/><path d="m342.191 434.647 54.963-156.1 4.338 1.528-54.962 156.1z" class="st22"/><path d="M392.1 266.7h9v13.7h-9z" style="fill:#b3c1c9" transform="rotate(-70.605 396.556 273.481)"/><path d="m333.7 431.6.7 4.7 3.6-3.2z" class="st22"/><path d="m338 433.1.7 4.7 3.6-3.2z" class="st23"/><path d="m342.3 434.6.7 4.8 3.6-3.3z" class="st22"/><path d="m42.5 292.6 185.3 154.6 21.1-25.2L63.6 267.4zm23.5-1.8c-1.4 1.7-4 1.9-5.7.5-1.7-1.4-1.9-4-.5-5.7 1.4-1.7 4-1.9 5.7-.5 1.7 1.4 1.9 4 .5 5.7" class="st19"/><path d="M81.5 303.4c-.4.5-.4 1.3.2 1.7.5.4 1.3.4 1.7-.2l10.4-12.5-1.8-1.5zM101 311.4c-.4.5-.4 1.3.2 1.7.5.4 1.3.4 1.7-.2l6.3-7.5-1.8-1.5zM112.3 329.2c-.4.5-.4 1.3.2 1.7.5.4 1.3.4 1.7-.2l10.4-12.5-1.8-1.5zM131.9 337.1c-.4.5-.4 1.3.2 1.7.5.4 1.3.4 1.7-.2l6.3-7.5-1.8-1.5zM143.2 354.9c-.4.5-.4 1.3.2 1.7.5.4 1.3.4 1.7-.2l10.4-12.5-1.8-1.5zM162.7 362.9c-.4.5-.4 1.3.2 1.7.5.4 1.3.4 1.7-.2l6.3-7.5-1.8-1.5zM174 380.7c-.4.5-.4 1.3.2 1.7.5.4 1.3.4 1.7-.2l10.4-12.5-1.8-1.5zM193.6 388.7c-.4.5-.4 1.3.2 1.7.5.4 1.3.4 1.7-.2l6.3-7.5-1.8-1.5zM224.6 414.5c-.4.5-.4 1.3.2 1.7.5.4 1.3.4 1.7-.2l6.3-7.5-1.8-1.5zM205 406.5c-.4.5-.4 1.3.2 1.7.5.4 1.3.4 1.7-.2l10.4-12.5-1.8-1.5z" class="st15"/><path d="M261.7 248.6h78.7V217l-13-12.3-20.2 25.4-25.4-15.5-20.1 20.3z" style="fill:#0086c1"/></svg>