<svg xmlns="http://www.w3.org/2000/svg" xml:space="preserve" viewBox="0 0 322.3 320.7"><style>.st2{fill:none}.st3{fill:#b73d26}.st4{fill:#fff}.st5{fill:#e9f9ff}.st6{fill:#cce8ee}.st7{fill:#004152}.st9{fill:#9f3521}.st10{fill:#fdbd3a}.st12{fill:#ffc858}.st14{fill:#ff9e6e}</style><g id="Layer_4"><circle cx="161.5" cy="160.2" r="159.5" style="fill:#d94721"/><path d="m22.7 81.6 266.1 174.7c20.2-26.8 32.2-60.1 32.2-96.2C321.1 72.1 249.6.7 161.5.7 101.9.7 50.1 33.3 22.7 81.6" style="fill:#f05a24"/><circle cx="161.5" cy="160.2" r="159.5" class="st2"/><path d="M161.5.7C249.6.7 321 72.1 321 160.2s-71.4 159.5-159.5 159.5c-39.2 0-75.1-14.1-102.9-37.6-1.7-1.4-3.3-2.9-5-4.3C21.9 248.5 2 206.6 2 160.2 2 72.1 73.4.7 161.5.7" class="st2"/><path d="M244.3 219.1H115.2l-36.4-4.3C69 217.1 60 228.2 60 239.4c0 2.4.5 4.8 1.3 7 0 .1.1.2.1.2.2.5.4.9.6 1.3 0 .1.1.1.1.2.9 1.8 2 3.5 3.3 4.9l.3.3.8.8c.2.1.3.3.5.4.3.2.5.5.8.7.2.2.4.3.6.5.3.2.5.4.8.6.3.2.6.3.8.5.3.2.6.4.9.5.4.2.9.4 1.3.6.2.1.4.2.7.3.4.1.7.3 1.1.4.2.1.5.1.7.2.4.1.7.2 1.1.3.2.1.5.1.7.1.4.1.8.1 1.3.2.2 0 .4.1.6.1.6.1 1.3.1 1.9.1h162l5.3-4.9-3.3-24.2v-5.7zM77.8 233.9c3 0 5.5 2.4 5.5 5.5 0 3-2.4 5.5-5.5 5.5s-5.5-2.4-5.5-5.5c0-3 2.5-5.5 5.5-5.5" class="st3"/><path d="M247.5 214.2H84.4c-11.1 0-20.1 9-20.1 20.1 0 11.1 9 20.1 20.1 20.1h163.1zM82 228.9c3 0 5.4 2.4 5.4 5.4 0 3-2.4 5.4-5.4 5.4-3 0-5.4-2.4-5.4-5.4 0-3 2.4-5.4 5.4-5.4" class="st4"/><path d="m102.1 219.8 145.5 34.7v-40.3H84.4c-11.1 0-20.1 9-20.1 20.1 0 11.1 9 20.1 20.1 20.1zm-20.1 20c-3 0-5.4-2.4-5.4-5.4 0-3 2.4-5.4 5.4-5.4 3 0 5.4 2.4 5.4 5.4 0 2.9-2.4 5.4-5.4 5.4" class="st4"/><path d="M65 228.8c2.4-8.5 10.1-14.6 19.4-14.6h163.1v5.5H83.2c-10.9 0-15.7 3.9-18.2 9.1" class="st5"/><path d="M65 239.8c2.4 8.5 10.1 14.6 19.4 14.6h163.1V249H83.2c-10.9 0-15.7-3.9-18.2-9.2" class="st6"/><path d="M182.9 214.2h1.5v8.3h-1.5zM148.6 214.2h1.5v8.3h-1.5zM164.2 214.2h4.6v12.6h-4.6zM198.6 214.2h4.6v12.6h-4.6zM129.9 214.2h4.6v12.6h-4.6zM232.9 214.2h4.6v12.6h-4.6zM217.3 214.2h1.5v8.3h-1.5z" class="st7"/><path d="M99.3 74.1H88l-24.1-3.2-6.6 7v154.2c0 19.1 10.1 24.1 17.6 26.2 6.3 1.8 5 2.2 10.7-1.5 4.9-3.2 18.1-13.8 18.5-20.5l-4.8-44.6V84.1zm-20.1 171c-3 0-5.4-2.4-5.4-5.4 0-3 2.4-5.4 5.4-5.4 3 0 5.4 2.4 5.4 5.4 0 3-2.4 5.4-5.4 5.4" class="st3"/><path d="m95.2 214.1-12 5.6s-9 31.8-6.2 33.1 5.3 1.6 13.6 1.6c7.2 0 20.9-5.5 20.9-18.3v-22z" class="st6"/><path d="M63.9 70.9V234c0 11.1 9 20.1 20.1 20.1 11.1 0 20.1-9 20.1-20.1V70.9zm20.2 171c-3 0-5.4-2.4-5.4-5.4s2.4-5.4 5.4-5.4 5.4 2.4 5.4 5.4-2.4 5.4-5.4 5.4" class="st4"/><path d="M63.9 234c0 11.1 9 20.1 20.1 20.1 11.1 0 20.1-9 20.1-20.1V70.9H92.9l-29 117.8z" class="st4"/><path d="M89.6 253.4c8.5-2.4 14.6-10.1 14.6-19.4V70.9h-5.5v164.3c0 11-3.9 15.7-9.1 18.2" class="st5"/><path d="M78.6 253.4C70.1 251 64 243.3 64 234V70.9h5.5v164.3c0 11 3.9 15.7 9.1 18.2" class="st4"/><path d="M95.9 134h8.3v1.5h-8.3zM95.9 168.3h8.3v1.5h-8.3zM91.6 149.6h12.6v4.6H91.6zM91.6 115.3h12.6v4.6H91.6zM91.6 184h12.6v4.6H91.6zM91.6 80.9h12.6v4.6H91.6zM95.9 99.6h8.3v1.5h-8.3zM84.1 239.2c-3.2 0-5.8-2.6-5.8-5.8s2.6-5.8 5.8-5.8c3.2 0 5.8 2.6 5.8 5.8s-2.6 5.8-5.8 5.8" class="st7"/><path d="M84.1 228.1c2.9 0 5.3 2.4 5.3 5.3s-2.4 5.3-5.3 5.3-5.3-2.4-5.3-5.3 2.4-5.3 5.3-5.3m0-1c-3.5 0-6.3 2.8-6.3 6.3s2.8 6.3 6.3 6.3 6.3-2.8 6.3-6.3-2.9-6.3-6.3-6.3" style="fill:#80b8bf"/><path d="m233.4 118.7-20.3-47.3-33.5 38.7-26.9-20.6-5.6 3.1 8.3 51.3-1.5 10.2h10.2c.4 0 .9 0 1.3.1.4 0 .8 0 1.2.1.4 0 .9 0 1.3.1.4 0 .8 0 1.3.1.5 0 .9.1 1.4.1.4 0 .9.1 1.3.1 8.6.6 18.3 1.6 28.6 3.1 18.3 2.7 34.6 6.3 45.6 9.8l1.5-10.2 22.4-46.8-4.8-4.4z" class="st3"/><path d="m258.3 135.4 11.9-24.8-4.9-4.4-31.9 12.5-3.8 10.6z" class="st9"/><path d="M152.9 161.4c11.6-.2 28.2 1 46.5 3.6 18.3 2.7 34.6 6.3 45.6 9.8l1.5-10.2 23.6-54.1-39.4 15.2-19.1-44.6-31 37.3-33.4-25.8 7.2 58.6z" class="st10"/><path d="m211.6 81.1 1.5-9.7-33.4 38.7 1.1 11.7z" class="st9"/><path d="M201 154.3c-18.4-2.7-35.1-3.9-46.7-3.6l.1.6-1.5 10.2c11.6-.2 28.2 1 46.5 3.6 18.3 2.7 34.6 6.3 45.6 9.8l1.5-10.2.2-.5c-10.9-3.6-27.3-7.2-45.7-9.9" style="fill:#f6b02c"/><path d="m170.9 162 56.9-43.3-16.1-37.5-31 37.3-33.4-25.8 7.2 58.6-1.5 10.2c5-.2 11.1 0 17.9.5" class="st12"/><path d="m170.9 162 12.8-9.8c-11.4-1.2-21.6-1.7-29.4-1.5l.1.6-1.5 10.2c5.1-.2 11.2 0 18 .5" class="st10"/><path d="m154.4 151.3-1.5 10.2c2.9-.1 6.2 0 9.6.1l.6-.8 1.4-10L158 101l-10.8-8.3z" style="fill:#ffd68d"/><path d="m154.3 150.7.1.6-1.5 10.2c2.9-.1 6.2 0 9.7.1l.5-.8 1.4-9.9c-3.7-.2-7.1-.3-10.2-.2" class="st12"/><path d="M245.2 174.9c-.3 1.8-10.5 1.8-36-1.9s-56.6-9.7-56.3-11.5c.3-1.8 21.1-.2 46.6 3.5 25.6 3.7 46 8.1 45.7 9.9" class="st3"/><path d="m196.6 31.3 5 19.7.7 2.7-6.5.7.1-2.8zM155 53.7l13.1 10.2 2.3 1.8-4.9 4.5-1.6-2.5zM272.1 81.3l-14 6.8-2.6 1.3-1.8-6.5 2.9-.2zM246.7 39.5l-8.1 18.8-1.1 2.6-5.5-3.3 1.8-2.2z" class="st14"/></g></svg>