<svg xmlns="http://www.w3.org/2000/svg" xml:space="preserve" id="Laag_1" x="0" y="0" version="1.1" viewBox="0 0 367.2 351.4"><style>.st2{fill:#96cbc5}.st4{fill:#070808}.st5{fill:#121211}.st6{fill:#323232}.st7{fill:#edecec}.st8{fill:#cececd}.st9{fill:none;stroke:#a5a5a5;stroke-width:2.1467;stroke-miterlimit:10}.st10{fill:#f6f1e9}.st13{fill:#d84620}.st17{fill:#fff}.st18{fill:#014151}</style><circle cx="183.6" cy="175.7" r="173.2" style="fill:#00b4ac"/><path d="M183.6 348.9c95.7 0 173.2-77.6 173.2-173.2 0-58.4-28.9-110-73.2-141.4l-221 265.3c31.2 30.5 73.9 49.3 121 49.3" style="fill:#009e9b"/><path d="m279.8 122.7 13.6 1.9s16.2 18 24.7 37.3c8.5 19.4-33.5-6.3-33.5-6.3z" class="st2"/><path d="M79.3 212S36.9 228.6 38 230.2c1.1 1.6 1.2 5.8 9.2 8s277.1.2 279.3.1c2.1-.1 2.4-1.7 2.4-1.7l-48.1-36.1L117.3 186z" style="fill:#41180f"/><circle cx="91.2" cy="240.9" r="29.1" class="st4"/><circle cx="91.2" cy="240.9" r="16.6" class="st5"/><path d="M111.5 240.7c.2 2.6-.2 5.4-1.1 7.9s-2.4 4.9-4.2 6.9c-1.9 2-4.1 3.6-6.6 4.7s-5.2 1.7-8 1.7c-2.7 0-5.5-.5-8-1.5-2.5-1.1-4.9-2.6-6.8-4.5s-3.4-4.3-4.4-6.8-1.4-5.2-1.3-7.9c.2 2.6.8 5.2 2 7.6 1.1 2.4 2.7 4.5 4.5 6.2 3.8 3.5 8.9 5.5 14 5.4 5.1 0 10.2-2.2 13.8-5.8 1.8-1.8 3.3-4 4.4-6.4 1-2.3 1.5-4.9 1.7-7.5" class="st6"/><circle cx="91.1" cy="241.2" r="11.3" class="st7"/><path d="M91.2 252.6c6.3-.1 11.3-5.2 11.2-11.5 0-.6-.1-1.1-.1-1.6-3.2.8-7.5 1.7-11.2 1.8-3.4 0-7.7-.6-11.3-1.3-.1.5-.1.9-.1 1.4.1 6.3 5.2 11.3 11.5 11.2" class="st8"/><circle cx="91.1" cy="241.2" r="3.7" class="st9"/><path d="M325.8 178.4c-1.6-5.2-5.4-13.2-6-14.6-.6-1.4-1.9-3.3-3.3-3.3-.8 0-1.4-.5-3.2-1l-21.7-34.7c1.2-.1 1.8-.1 1.8-.1.2-.7-4.8-5.9-13.1-6.6-34.3-2.7-194.6 4-201.3 4.5-19.6 1.4-30.6 6.2-30.6 9.3 0 .1.5.2 1.5.1-5 6.9-8 26.9-8.7 31.8-.1 0-.2.1-.2.1-.8.4-1.2 1.8-1.4 2.3s-.9 2.6-.9 3 .7.7 1.1.7c.5 0 286.9 27.2 286.9 27.2h.9l3-2.4s-3.2-11.1-4.8-16.3m-32.2-46.6-.9-1.6c.6.9.9 1.6.9 1.6" class="st10"/><path d="m327.6 196.8 3-2.4s-1.4-4.7-2.7-9.5c-1.5-2.4-7.4-11.8-10.3-14.1-3.4-2.7-9.4-5.3-21.2-6.2-11.8-.9-32.9-1.2-46.1-1.1-13.2 0-199.1 3.6-201.5 3.6-2 0-6.8-.4-10 1.6v.2c0 .4.7.7 1.1.7.5 0 286.9 27.2 286.9 27.2z" style="fill:#cdbaa2"/><path d="m70.4 199.8-4 14.4c1.1 0 3.4-.1 4.1-.1.6 0 1.1-.4 1.3-.9.8-2.2 2.8-7.8 3.2-8.6.5-1 1.5-3.4 4.7-4h-1.4c-2.4-.3-7.9-.8-7.9-.8" style="fill:#ec6b51"/><path d="M331.3 233.5s.9-30.6-.5-37.7c-1.4-7.1-10.4-20.1-15-23.4-4.7-3.3-15.4-6.8-40.2-7.1-24.8-.2-214.4 3.3-214.4 3.3s-18.2.4-19.5.4-2.4.6-2.4.6-3.2 35.8-2.2 49.5.9 15.3 3.3 16.1c2 .7 10.6.4 13.2.3.5 0 .9-.3 1.1-.8.7-1.9 2.4-6.6 2.7-7.3.4-.9 1.4-3.1 4.5-3.4 3.1-.3 52.7 0 53.8 0s2.7-.1 3.8 1.7c1.1 1.8 4.6 8.1 5.4 8.8.9.7 1.8 1 2.8 1.6 1 .7 99.9.4 99.9.4s3 .3 3.7-2.1c.6-2.5 4.2-13 7.4-16.2 3.2-3.1 10.3-8.4 20.4-8.5 17.3-.2 26.2 7.1 29.6 14 3.4 6.8 4.2 10.3 5.4 11.8 1.3 1.5 2.4 2 6.7 2s26.8-.8 27.9-.9c1.2-.1 2.6-1.7 2.6-3.1" class="st13"/><path d="M40.5 235.6c2 .7 10.6.4 13.2.3.5 0 .9-.3 1.1-.8.7-1.9 2.4-6.6 2.7-7.3.4-.9 1.4-3.1 4.5-3.4 3.1-.3 52.7 0 53.8 0 1.1 0 2.7-.1 3.8 1.7 1.1 1.8 4.6 8.1 5.4 8.8.9.7 1.8 1 2.8 1.6 1 .7 99.9.4 99.9.4s3 .3 3.7-2.1c.6-2.5 4.2-13 7.4-16.2 3.2-3.1 10.3-8.4 20.4-8.5 17.3-.2 26.2 7.1 29.6 14 3.4 6.8 4.2 10.3 5.4 11.8s2.4 2 6.7 2c4.3 0 26.8-.8 27.9-.9 1.1 0 2.4-1.6 2.5-3 0 0 .9-30.6-.5-37.7-.7-3.5-3.2-8.4-6.1-12.9 0 0-18.5-4.7-26.8-4.9-79.5-2.1-169.1 37.5-241.2 31.5-7.1-.6-20.9-6.9-19.6-6-.2 6.1-.3 11.6 0 15.5 1.1 13.7 1 15.3 3.4 16.1" style="fill:#b9381c"/><path d="m306 153.3-13.8-21.7c-1.6-2.5-4.4-4.1-7.4-4l-52.2.7c-2.1 0-3.7 1.7-3.7 3.8l.3 26.3 74.6-.9c2.1-.1 3.4-2.4 2.2-4.2M215.6 128.5l-38.2.5c-2.3 0-4.1 1.9-4.1 4.2l.3 21.7c0 2.3 1.9 4.1 4.2 4.1l38.2-.5c2.3 0 4.1-1.9 4.1-4.2l-.3-21.7c0-2.3-1.9-4.1-4.2-4.1M159.8 129.2l-38.2.5c-2.3 0-4.1 1.9-4.1 4.2l.3 21.7c0 2.3 1.9 4.1 4.2 4.1l38.2-.5c2.3 0 4.1-1.9 4.1-4.2l-.3-21.7c0-2.3-1.9-4.1-4.2-4.1M103.9 129.9l-38.2.5c-2.3 0-4.1 1.9-4.1 4.2l.3 21.7c0 2.3 1.9 4.1 4.2 4.1l38.2-.5c2.3 0 4.1-1.9 4.1-4.2l-.3-21.7c0-2.3-1.9-4.1-4.2-4.1M62.2 91.3c0-.1 0-.1 0 0-.3-.1-.3-.1 0 0M62.2 91.3c-5.1 7-8.4 25.3-9.8 34.2l8.6-.1c2.7 0 4.9-2.3 4.9-5l-.3-25.8c-.1-2.8-2.7-3.3-3.4-3.3" class="st2"/><path d="m280.1 124.6 17.9 36.5h-1.9l-19.6-39.5" class="st10"/><circle cx="261.1" cy="241.5" r="29.1" class="st4"/><circle cx="261.1" cy="241.5" r="16.6" class="st5"/><path d="M281.3 241.2c.2 2.6-.2 5.4-1.1 7.9s-2.4 4.9-4.2 6.9c-1.9 2-4.1 3.6-6.6 4.7s-5.2 1.7-8 1.7c-2.7 0-5.5-.5-8-1.5-2.5-1.1-4.9-2.6-6.8-4.5-1.9-1.9-3.4-4.3-4.4-6.8s-1.4-5.2-1.3-7.9c.2 2.6.8 5.2 2 7.6 1.1 2.4 2.7 4.5 4.5 6.2 3.8 3.5 8.9 5.5 14 5.4 5.1 0 10.2-2.2 13.8-5.8 1.8-1.8 3.3-4 4.4-6.4 1-2.3 1.6-4.9 1.7-7.5" class="st6"/><circle cx="260.9" cy="241.8" r="11.3" class="st7" transform="rotate(-71.567 260.894 241.797)"/><path d="M261 253.1c6.3-.1 11.3-5.2 11.2-11.5 0-.6-.1-1.1-.1-1.6-3.2.8-7.5 1.7-11.2 1.8-3.4 0-7.7-.6-11.3-1.3-.1.5-.1.9-.1 1.4.1 6.3 5.3 11.3 11.5 11.2" class="st8"/><circle cx="260.9" cy="241.8" r="3.7" class="st9"/><path d="M330.1 193.1c.1 5.5-3.1 10-5 10s-3.4-4.4-3.5-9.9 1.4-9.9 3.2-10c1.9 0 5.2 4.4 5.3 9.9" class="st7"/><path d="M321.6 193.6c.1 5.3 1.7 9.5 3.5 9.5s4.9-4.3 5-9.6l-6-.8s.5.8-2.5.9" class="st8"/><path d="M330.2 193.1c.1 4.6-2.1 8.4-2.8 8.4-1.6 0-3.2-3.7-3.3-8.3-.1-4.6 1.2-8.3 2.9-8.4 1.2 0 3.1 3.7 3.2 8.3" style="fill:#fcf7cf"/><path d="m333.2 231.9-31.1.4c-2.6 0-4.6-2.6-4.5-5.8.1-2.9 2-5.2 4.4-5.2l31.5-.4c.8 0 .8.4.8 1.8 0 2.9-.1 9.2-1.1 9.2M36.9 232.3l9.8-.1c3 0 5.4-3.2 5.2-7-.2-3.4-2.6-6.1-5.3-6l-10.3.1c-.9 0-.9.5-.9 2.1 0 3.4.3 10.9 1.5 10.9" class="st7"/><path d="M159.3 68.5c-12.1-33.5-49-50.8-82.5-38.7s-50.8 49-38.7 82.5c10.9 30.2 42.1 47.2 72.6 41.4l25.7 18-.9-28.4c23.4-16.4 33.9-46.8 23.8-74.8" style="opacity:.2"/><circle cx="91.3" cy="84.8" r="64.4" class="st17"/><path d="M78.1 105.2c3-6.9 8.6-12.5 16-15.2s15.3-1.9 22 1.5l4.9-11.4c-9.6-4.8-20.7-5.9-31.3-2.1C79.2 81.8 71.3 89.8 67 99.6zm-19.3-9.7C64 83.5 73.6 73.7 86.5 69s26.5-3.3 38.2 2.6l5.1-11.7c-14.6-7.4-31.6-9-47.7-3.2s-28.1 18-34.6 33z" class="st18"/><path d="m129.1 166.1-37.9-26.5 36.3-19.6z" class="st17"/><circle cx="101.8" cy="111.4" r="9.6" class="st18"/></svg>