<svg xmlns="http://www.w3.org/2000/svg" xml:space="preserve" id="Laag_1" x="0" y="0" version="1.1" viewBox="0 0 301 301.6"><style>.st3{opacity:.2;fill:#231f20;enable-background:new}.st5{fill:#fff}</style><circle cx="150.5" cy="150.8" r="150.5" style="fill:#e0cab6"/><circle cx="150.5" cy="150.8" r="150.5" style="fill:#259631"/><path d="M256.9 44.4c-58.8-58.8-154-58.8-212.8 0l212.8 212.8c58.7-58.8 58.7-154 0-212.8" style="fill:#27a737"/><path d="M274.5 118.1 207 100.9c-4-1-8.1 1.4-9.1 5.4l-19.3 76.5.1.1-6.2 25.2c-.6 2.6.9 5.3 3.5 5.9l32.6 8.3 37.1 9.4c4 1 8-1.4 9.1-5.4L280 127c.9-3.9-1.5-7.9-5.5-8.9" class="st3"/><path d="m270.1 113.8-63.8-16.2c-5-1.3-10.1 1.8-11.4 6.8l-23.8 93.8 13.7 15 56.5 14.3c5 1.3 10.1-1.8 11.4-6.8l24.3-95.6c1.2-4.9-1.8-10-6.9-11.3" style="fill:#f05a24"/><path d="m231.9 128.3-9.4 9.5-8.6-7.8.6 16.2-.5 2.1s5.6-1.2 13 .5 11.9 5.3 11.9 5.3l.5-2.1 7.7-14.3-11.1 3.2zm5.4 21.7s-4.6-2.9-9.6-4.1-10.4-.6-10.4-.6l-.3-8.7 5.6 5.1 8-8.2 3.6 10.9 7.2-2.1zM235.9 175.6c-2.2-1.1-4.3-2.1-2.8-3.8 4.7-5.4 3-9.2-.4-10-2.3-.5-4.5.5-5.1 3.3-1.6 6.9 3 4.4 1.5 12.2 0 .2-1.9 6.5-2.5 8.6 3.2-.3 7.1-1.6 9.9-3.4l.8-3.3c.4-1.6.5-2.6-1.4-3.6m-4.8-5.5-.2.2c-.2-.3-.3-.6-.5-.9-.6-.9-.9-1.4-.3-3.7.3-1.2.9-1.6 2-1.4.4.1 1 .3 1.2.9.3.8-.1 2.6-2.2 4.9m3.2 10.8c-1.2.7-2.6 1.2-4 1.7.1-.3.2-.6.2-.9 1.1-3.7 1.1-3.8 1.1-3.9.1-.5.2-1 .2-1.5.8.6 1.8 1.1 2.8 1.6h.1c.1 0 .1.1.2.1 0 .2-.1.4-.1.7z" class="st5"/><path d="M224.5 171.5c-3-1.5-5.7-2.8-3.7-5.1 6.2-7.1 4.1-12.2-.5-13.3s-8.8 2.7-6.3 11.7c.8 3-2.3 3-5.6 3-2.9 0-3.4 1.3-3.9 3.6l-.5 4.1c4.3 6.4 10.3 9.1 14.7 10.1 2 .5 3.7.6 4.9.6.5-1.8 2.9-9.6 2.9-9.6.4-2.4.6-3.8-2-5.1m-2.9 11.9c-.7-.1-1.5-.2-2.4-.4-3.6-.8-8.7-3-12.6-8.3l.4-2.9c.2-.7.3-1.2.4-1.4.1 0 .3-.1.9-.1h.2c2.8 0 5.7 0 7.3-2 .6-.8 1.2-2.1.6-4.2-1-3.6-.8-6.6.5-7.9.8-.9 2-.8 2.8-.6s1.9.6 2.2 1.8c.6 1.7-.6 4.5-3.1 7.3-1.4 1.6-1.4 3.1-1.3 4 .5 2.5 3.1 3.8 5.7 5.1l.1.1c.5.3.7.4.8.5 0 .2-.1.7-.2 1.5-.2.5-1.5 4.8-2.3 7.5M199.7 144.2l1.9-1.8 7.3 7.7-1.9 1.8zM197.1 156.2l.8-2.5 6.5 2-.8 2.5zM242.9 158l10-3.6.9 2.4-10 3.6zM243.9 167.6l.4-2.6 6.7 1.1-.4 2.6z" class="st5"/><path d="m175.9 179-3.6 14-2.9 11.1c-.7 2.8 1 5.7 3.8 6.4l14.3 3.7 5.1 1.3 6.6 1.7 45.9 11.7c2.7.7 5.5-1 6.2-3.7l7.4-29.1z" style="fill:#d94721"/><path d="M190.8 72.9h-77c-4.6 0-8.2 3.7-8.2 8.2l.1 56.5 18.7 64.9h66.4c4.5 0 8.2-3.7 8.2-8.2V81.1c0-4.6-3.7-8.2-8.2-8.2" class="st3"/><path d="M185.4 69.6h-72.8c-5.7 0-10.3 4.6-10.3 10.3v55.8l20.7 63.5h62.4c5.7 0 10.3-4.6 10.3-10.3v-109c.1-5.7-4.6-10.3-10.3-10.3" style="fill:#4d2b74"/><path d="M127.2 199.2h62.9c3.1 0 5.6-2.5 5.6-5.6v-33.1l-94.9 4.2z" style="fill:#351454"/><path d="M164.4 100.2h-28.7c-2.1 0-3.8 1.7-3.8 3.8v38.9c0 2.1 1.7 3.8 3.8 3.8h28.7c2.1 0 3.8-1.7 3.8-3.8V104c0-2.1-1.7-3.8-3.8-3.8m-14.5 44.1c-1.1 0-2-.9-2-2s.9-2 2-2 2 .9 2 2-.9 2-2 2m14.5-6.2h-28.7v-33.5h28.7z" class="st5"/><path d="m157.4 118.2-2.2-2.2-6.9 7-3.2-3-2.3 2.2 5.5 5.4z" class="st5"/><path d="M168.2 125.9V104c0-2.1-1.7-3.8-3.8-3.8h-28.5l3.9 4.4h24.7v17.8z" style="fill:#e6e7e8"/><path d="m96.4 98-66.6 20.6c-3.9 1.2-6.1 5.4-4.9 9.3l30.3 97.8c1.2 3.9 5.4 6.1 9.3 4.9l66.4-20.5c3.9-1.2 6.1-5.4 4.9-9.3l-30.2-97.9c-1.1-3.9-5.3-6.1-9.2-4.9" class="st3"/><path d="m91.6 96.3-64.8 20c-4.4 1.4-6.9 6-5.5 10.5L51 222.9c1.4 4.4 6 6.9 10.5 5.5l64.8-20c4.4-1.4 6.9-6 5.5-10.5l-29.7-96.1c-1.4-4.4-6.1-6.9-10.5-5.5" style="fill:#f79420"/><path d="m44.1 201.3 7.7 25c.8 2.7 3.7 4.2 6.4 3.4l71-21.9c2.7-.8 4.2-3.7 3.4-6.4l-8.8-28.7z" style="fill:#e5801f"/><path d="m71.5 169.8 3.1-3-2.3-7.7 5-1.6-11-11.5-2.7 15.8 5-1.5z" class="st5"/><path d="m80.2 133.2-2.7 15.9 5-1.6 2.4 8c.7 2.5.1 5.2-1.6 7l-6.9 8.5c-2.1 2.3-2.9 5.6-1.9 8.6l1.5 5.1c.3 1 1.4 1.6 2.4 1.3s1.6-1.4 1.3-2.5l-1.5-5.1c-.5-1.7-.1-3.5 1.1-4.8l6.9-8.5c2.7-2.9 3.6-7.1 2.5-10.9l-2.4-8 5-1.6z" class="st5"/></svg>