<svg xmlns="http://www.w3.org/2000/svg" xml:space="preserve" id="svg2" x="0" y="0" version="1.1" viewBox="0 0 1505.8 1505.8"><style>.st0{fill:#87cff0}.st3{fill:#0f2937}.st4{fill:#e1cfb6}.st5{fill:#d1bda0}.st6{fill:#0f2a37}.st12{fill:#c26541}.st15{fill:#0a181b}.st16{fill:#bc7758}.st18{fill:#9a2d1e}</style><g id="g8" transform="matrix(1.33333 0 0 -1.33333 0 1505.8)"><g id="g10" transform="scale(.1)"><path id="path12" d="M5646.8 11293.5c3118.6 0 5646.7-2528.1 5646.7-5646.8C11293.5 2528.1 8765.4 0 5646.8 0S0 2528.1 0 5646.7c0 3118.7 2528.1 5646.8 5646.8 5646.8" class="st0"/><path id="path14" d="M11293.5 5624.5v.3zM0 5624.5v.3zm11293.5 2.9v.5zM0 5627.4v.5zm11293.5 6.3v.8zM0 5633.8v.6zm0 3v.5zm11293.5.1v.4zm0 3.3v.7zM0 5640.2v.6zm11293.5 2.9v.8zM0 5643.1v.8zm11293.5 6.1v.5zM0 5649.6v.8zm11293.5 2.3v.2zM0 5652.6v.6zm0 3.5v.5zm0 2.9v.6zm0 3.4v.1zm0 3.1v.5zm0 3.1v.3zm.1 6.5v.1z" style="fill:#49737c"/><path id="path16" d="M831.7 2697.8h-.8C308.8 3548.6 5.4 4548.1.1 5618.2v56.6c5.3 1068.2 307.5 2066 827.8 2915.8l639.7-228.9V6637.9h312.5v1134.8H2933v-632.5h1163.7v-497.1H4366V7047h637.3v-33.8h30v33.8h981.2V5668.6c-69.3 9.3-139.5 14-210.2 14-130.9 0-263.1-16.2-394.1-50.2-5.2-1.4-10.4-2.7-15.6-4.1-84.6-22.9-169.6-54.1-248.2-96.2-15.7 1.8-31.4 2.8-47.3 2.8-8.8 0-17.6-.3-26.5-1.1-13.2-1.1-26.3-2.6-39.4-4.4v33.8h-30v-38.5c-75.4-13.5-149.2-38-219.2-68.1-92.8-39.8-180.5-90.8-264.9-145.9-596.4-389.5-909.1-1132.5-767.1-1825.3h-425.4v2888.8h-2957V3636.5c125.4-328.8 280.5-642.7 462.1-938.7m4171.6 2965.4v-50h30v50zm0 100v-50h30v50zm0 100v-50h30v50zm0 100v-50h30v50zm0 100v-50h30v50zm0 100v-50h30v50zm0 100v-50h30v50zm0 100v-50h30v50zm0 100v-50h30v50zm0 100v-50h30v50zm0 100v-50h30v50zm0 100v-50h30v50zm0 100v-50h30v50zm0 100v-50h30v50zm5465.3-4255.6V5921h-948.2v274.7h115.4v1379.4h765v-414.2h128.3v-1108h204.4V5618h409.8v1320.8c96.8-413.5 149.8-843.8 150.2-1286.7V5618.2c-5.3-1066-306.5-2061.9-824.9-2910.6M7964 5921.1H6413.9v2420.3l462.6 963H7286l129.3-269.2H7760l247.8-486.7V6380.9H7964z" style="fill:#33677b"/><path id="path18" d="M369.7 6374.1V3636.5C1180 1510.7 3236.4 0 5646.8 0c2041.7 0 3830.1 1083.7 4821.8 2707.2v3213.9h-948.2v459.8h-261.1v365.8h-738.8v-365.8H7964v-459.8H6173.8V3485.3h-2847v2888.8z" class="st3"/><path id="path20" d="M8869.6 4095.1h797v212.3h-797z" class="st4"/><path id="path22" d="M8869.6 4095.1h82.7v212.3h-82.7z" class="st5"/><path id="path24" d="M7171.8 4095.1h797v212.3h-797z" class="st4"/><path id="path26" d="M7171.8 4095.1h82.7v212.3h-82.7z" class="st5"/><path id="path28" d="M8869.6 4576.9h797v212.3h-797z" class="st4"/><path id="path30" d="M8869.6 4576.9h82.7v212.3h-82.7z" class="st5"/><path id="path32" d="M7171.8 4576.9h797v212.3h-797z" class="st4"/><path id="path34" d="M7171.8 4576.9h82.7v212.3h-82.7z" class="st5"/><path id="path36" d="M8869.6 5058.8h797v212.3h-797z" class="st4"/><path id="path38" d="M8869.6 5058.8h82.7v212.3h-82.7z" class="st5"/><path id="path40" d="M7171.8 5058.8h797v212.3h-797z" class="st4"/><path id="path42" d="M7171.8 5058.8h82.7v212.3h-82.7z" class="st5"/><path id="path44" d="M8869.6 3613.3h797v212.3h-797z" class="st4"/><path id="path46" d="M8869.6 3613.3h82.7v212.3h-82.7z" class="st5"/><path id="path48" d="M7171.8 3613.3h797v212.3h-797z" class="st4"/><path id="path50" d="M7171.8 3613.3h82.7v212.3h-82.7z" class="st5"/><path id="path52" d="M809.1 4887.9h797v860.2h-797z" class="st4"/><path id="path54" d="M2074.2 4887.9h797v860.2h-797z" class="st4"/><path id="path56" d="M2074.2 4887.9h82.7v860.2h-82.7z" class="st5"/><path id="path58" d="M809.1 4887.9h82.7v860.2h-82.7z" class="st5"/><path id="path60" d="M809.1 3485.3h797v860.2h-797z" class="st4"/><path id="path62" d="M2074.2 3485.3h797v860.2h-797z" class="st4"/><path id="path64" d="M2074.2 3485.3h82.7v860.2h-82.7z" class="st5"/><path id="path66" d="M809.1 3485.3h82.7v860.2h-82.7z" class="st5"/><path id="path68" d="M2074.2 2323.3h797v860.3h-797z" class="st4"/><path id="path70" d="M7171.8 2323.3h797v860.3h-797z" class="st4"/><path id="path72" d="M8869.6 2323.3h797v860.3h-797z" class="st4"/><path id="path74" d="M8869.6 2323.3h82.7v860.3h-82.7z" class="st5"/><path id="path76" d="M7171.8 2323.3h82.7v860.3h-82.7z" class="st5"/><path id="path78" d="M7171.8 1131.9h797v860.3h-797z" class="st4"/><path id="path80" d="M7171.8 1131.9h82.7v860.3h-82.7z" class="st5"/><path id="path82" d="M5644 1131.9h548.2v860.3H5644z" class="st4"/><path id="path84" d="M5644 1131.9h82.7v860.3H5644z" class="st5"/><path id="path86" d="M4483.4 2323.3h548.1v860.3h-548.1z" class="st4"/><path id="path88" d="M4483.4 2323.3h82.7v860.3h-82.7z" class="st5"/><path id="path90" d="M4483.4 1131.9h548.1v860.3h-548.1z" class="st4"/><path id="path92" d="M4483.4 1131.9h82.7v860.3h-82.7z" class="st5"/><path id="path94" d="M3320.8 1131.9H3869v860.3h-548.2z" class="st4"/><path id="path96" d="M3320.8 1131.9h82.7v860.3h-82.7z" class="st5"/><path id="path98" d="M5644 2323.3h548.2v860.3H5644z" class="st4"/><path id="path100" d="M5644 2323.3h82.7v860.3H5644z" class="st5"/><path id="path102" d="M3320.8 2323.3H3869v860.3h-548.1v-860.3z" class="st4"/><path id="path104" d="M3320.8 2323.3h82.7v860.3h-82.7z" class="st5"/><path id="path106" d="M2074.2 2323.3h82.7v860.3h-82.7z" class="st5"/><path id="path108" d="M809.1 2736.5c85.5-141.9 176.7-279.9 273.9-413.2h523.1v860.3h-797z" class="st4"/><path id="path110" d="M1606.1 1703.8v288.4h-262.3c84.2-99.1 171.5-195.4 262.3-288.4" class="st4"/><path id="path112" d="M2256.4 1131.9h614.8v860.3h-797v-717.7c59.6-48.8 120.5-96.2 182.2-142.6" class="st4"/><path id="path114" d="M8869.6 1131.9h168.7c223 167.8 432.7 352 628.3 550.3v309.9h-797z" class="st4"/><path id="path116" d="M2156.9 1209.3v782.9h-82.7v-717.7c27.1-22.2 55.1-43.4 82.7-65.2" class="st5"/><path id="path118" d="M8869.6 1131.9h82.7v860.3h-82.7z" class="st5"/><path id="path120" d="M4178.7 7967.9c0 43.6 35.5 79 79 79 43.6 0 79-35.4 79-79s-35.5-79-79-79-79 35.5-79 79m236.8 764.1 663.8 250.8 640.5-250.8-640.5-250.8zm210.8-274.7 454-171.6 453 177.4v-259.8c-24.9-31.3-128.8-126.9-469.9-126.9-345.2 0-426.5 99.4-437.2 115.7zm-581.5-489.4c0-86.1 51.7-160.1 125.4-193.6v-161.7h182.3v165.6c69.7 35 118.1 106.5 118.1 189.7s-48.4 154.7-118.1 189.7v403.2l91.6-34.6 1.1-362.5c7.7-45 73.5-269.5 618.2-269.5 544.8 0 638.5 229.4 647.4 255.6l4.8 14.3v370.2h-1.1l505.1 197.8-1139.3 446.2L3899.7 8732l270.5-102.2v-468.2c-73.7-33.5-125.4-107.5-125.4-193.7" class="st6"/><path id="path122" d="M5003.3 7663.2v-50h30v50zm0-100v-50h30v50zm0-100v-50h30v50zm0-100v-50h30v50zm0-100v-50h30v50zm0-100v-50h30v50zm0-100v-50h30v50zm0-100v-50h30v50zm0-100v-50h30v50zm0-100v-50h30v50zm0-100v-50h30v50zm0-100v-50h30v50zm0-100v-50h30v50zm0-100v-50h30v50zm0-100v-50h30v50zm0-100v-50h30v50zm0-100v-50h30v50zm0-100v-50h30v50zm0-100v-50h30v50zm0-100v-50h30v50zm0-100v-50h30v50zm0-100v-50h30v50zm0-100v-50h30v50zm0-100v-50h30v50zm0-100v-50h30v50zm0-100v-50h30v50zm0-100v-50h30v50zm0-100v-50h30v50zm0-100v-50h30v50zm0-100v-50h30v50zm0-100v-50h30v50zm0-100v-50h30v50zm0-100v-50h30v50zm0-100v-50h30v50zm0-100v-50h30v50zm0-100v-50h30v50zm0-100v-50h30v50zm0-100v-50h30v50z" class="st6"/><path id="path124" d="M9993.2 8065.1h30v50h-30zm0-100h30v50h-30zm0-100h30v50h-30zm0-100h30v50h-30zm0-100h30v50h-30zm0-100h30v50h-30zm0-100h30v50h-30zm0-100h30v50h-30zm0-100h30v50h-30zm0-100h30v50h-30zm0-100h30v50h-30zm0-100h30v50h-30zm0-100h30v50h-30zm0-100h30v50h-30zm0-100h30v50h-30zm0-100h30v50h-30zm0-100h30v50h-30zm0-100h30v50h-30zm0-96.5h30v46.4h-30z" class="st6"/><path id="path126" d="M3105 9952.5c0-383.2-310.7-693.9-693.9-693.9-383.3 0-693.9 310.7-693.9 693.9 0 383.3 310.7 693.9 693.9 693.9s693.9-310.6 693.9-693.9" class="st0"/><path id="path128" d="M2900.5 9984.8c3.9-308.6-271.4-520.9-268.3-764.4l-147.7-1.9c-1.9 154.1 70.2 284.5 140.7 410.5 66.2 118.3 128.6 230.2 127 353.9-2.9 230.4-191.1 348.5-375.3 346.2-184-2.3-368.8-125.2-365.9-355.5 1.6-123.8 66.8-234 135.9-350.6 73.6-124.1 148.9-252.7 151-406.8l-147.6-1.9c-3.1 243.5-283.7 448.8-287.6 757.4-4.1 321.9 253 502.4 512.2 505.7 259.8 3.3 521.6-170.9 525.6-492.6M2615.1 9109c.2-20.5-16.1-37.3-36.6-37.5l-370.6-4.7c-20.4-.2-37.3 16.1-37.5 36.6-.3 20.5 16.1 37.3 36.6 37.5l370.6 4.7c20.4.2 37.2-16.1 37.5-36.6m1.9-148.2c.2-20.5-16.1-37.3-36.6-37.5l-370.6-4.7c-20.5-.3-37.3 16.2-37.5 36.6-.3 20.4 16.1 37.2 36.6 37.5l370.6 4.7c20.4.2 37.2-16.2 37.5-36.6M2493.8 8725c-13.9-16.2-34.2-25.7-55.4-26l-81.1-1c-21.3-.3-41.8 8.7-56.1 24.6l-109.1 121.6 407.6 5.2zm-82.7 1085.6-51.1-.6-.9 74.1 51.1.6zm67.7.9-31.7-.4-1 74.1 59.8.8zm-187.6-2.4-30.3 73.8 61.8.8.9-74.1zm314 77.8c-116.8-272.3-171.7-376.5-168-668.9l-92-1.2c-3.7 292.5-61.1 395.2-184.8 664.5l57.5.7c89.6-210.2 151.1-294.4 171.4-518.3 14.5 224.3 74.1 310 158.2 522.5z" class="st6"/><path id="path130" d="M2899.3 9984.8v-6.5c0-151.3-66.9-279.5-134-400s-134.3-233.2-134.4-353.8v-4.1h1.2v1.2l-147.7-1.9v-1.2h1.2v5.9c0 151.1 71 279.6 140.6 404 65.4 116.9 127.2 227.6 127.2 350v4.6c-2.9 229-188.2 347.5-371.2 347.5h-5.4c-183-2.3-367.1-123.8-367.1-351.5v-5.4c1.6-124.2 67-234.6 136.1-351.2 73.6-124.1 148.8-252.5 150.8-406.2h1.2v1.2l-147.6-1.9v-1.2h1.2c-1.6 122.3-72.7 234.6-143.7 354.9-71 120.3-142 248.6-143.9 402.4 0 2.5-.1 5-.1 7.5 0 316.4 254.3 493.6 511 496.9 2.4 0 4.8.1 7.2.1 257.1 0 513.3-173.4 517.4-491.3h2.5c-4 319.5-261.8 493.9-519.5 493.9-2.4 0-4.8-.1-7.2-.1-257.8-3.2-513.5-181.4-513.5-499.4 0-2.5 0-5 .1-7.5 2-154.7 73.3-283.3 144.3-403.7 71.1-120.3 141.8-232.4 143.3-353.7v-1.2l150.1 1.9v1.2c-2 154.5-77.5 283.3-151.1 407.4-69.2 116.6-134.2 226.7-135.8 350v5.3c0 226.1 182.6 346.6 364.7 349h5.4c182-.1 365.8-117.6 368.7-345v-4.6c0-121.5-61.5-231.9-126.9-348.8-69.6-124.3-140.9-253.2-140.9-405.2V9217.2l150.2 1.9v5.3c0 119.6 66.9 232 134 352.6 67.1 120.5 134.3 249.2 134.3 401.2v6.5zM2613.8 9109v-.5c0-19.6-15.7-35.5-35.4-35.8l-370.6-4.7h-.5c-19.5 0-35.5 15.7-35.8 35.3v.5c0 19.6 15.7 35.6 35.4 35.8l370.6 4.7h.5c19.6 0 35.6-15.7 35.8-35.3h2.5c-.3 21-17.4 37.8-38.3 37.8h-.5l-370.6-4.7c-21-.3-37.8-17.4-37.8-38.3v-.5c.3-21 17.4-37.8 38.3-37.8h.5l370.6 4.7c21 .3 37.8 17.3 37.8 38.3v.5zm1.9-148.2v-.5c0-19.6-15.8-35.6-35.4-35.8l-370.6-4.7h-.5c-19.6 0-35.6 15.8-35.8 35.4v.5c0 19.5 15.8 35.5 35.4 35.8l370.6 4.7h.4c19.7-.1 35.7-15.8 35.9-35.4h2.5c-.3 21-17.4 37.8-38.3 37.8h-.5l-370.6-4.7c-21-.3-37.9-17.4-37.9-38.3v-.5c.3-21 17.4-37.8 38.3-37.8h.5l370.6 4.7c21 .3 37.8 17.4 37.8 38.3v.5zM2493.8 8725l-.9.8c-13.6-15.9-33.6-25.3-54.5-25.5l-81.1-1h-.9c-20.6 0-40.4 8.8-54.2 24.2L2195 8843l402.1 5.1-104.2-122.2zl.9-.8 107.8 126.4-413.1-5.2 110.9-123.6c14.3-15.9 34.8-25 56.1-25h.9l81.1 1c21.6.3 42.2 9.9 56.3 26.4zm-82.7 1085.6v1.2l-49.8-.6-.9 71.6 48.6.6.9-72.9zv1.2zh1.2l-.9 75.4-53.6-.7 1-76.6 53.6.7v1.2zm67.7.9v1.2l-30.5-.4-.9 71.6 56.8.7-26.5-72.8zv1.2zl1.2-.4 27.8 76.2-62.9-.8 1-76.6 33.8.4.3.8zm-187.6-2.4 1.1.5-29.6 72 58.7.8.9-71.6-31.2-.4zl1.1.5zv-1.2l33.7.4-1 76.6-64.9-.8 31.3-76.2h.9zm314 77.8-1.1.5c-113.1-263.6-168.3-370-168.2-642.2 0-8.9.1-18 .2-27.2h1.2v1.2l-92-1.2v-1.2h1.2c-3.7 292.7-61.3 395.8-184.9 665l-1.1-.5v-1.2l57.5.7v1.2l-1.1-.5c89.6-210.3 151-294.2 171.3-517.9h2.5c14.5 224.1 73.9 309.5 158.1 522.1l-1.2.5v-1.2l57.6.7zl-1.1.5zv1.2l-58.4-.7-.3-.8c-84.1-212.3-143.7-298.3-158.3-522.9l1.2-.1 1.2.1c-20.4 224.2-82 308.6-171.5 518.7l-.3.8-60.3-.8.8-1.8c123.7-269.4 180.9-371.6 184.7-664v-1.2l94.5 1.2v1.2c-.1 9.3-.2 18.3-.2 27.2 0 271.8 54.9 377.4 168.1 641.2l.8 1.8h-1.9z" class="st6"/><path id="path132" d="M2377.7 8479.9h30v50h-30zm0-100h30v50h-30zm0-100h30v50h-30zm0-100h30v50h-30zm0-100h30v50h-30zm0-100h30v50h-30zm0-100h30v50h-30zm0-100h30v50h-30zm0-100h30v50h-30zm0-100h30v50h-30zm0-100h30v50h-30zm0-100h30v50h-30zm0-100h30v50h-30zm0-100h30v50h-30zm0-100h30v50h-30zm0-100h30v50h-30zm0-100h30v50h-30zm0-100h30v50h-30zm0-100h30v50h-30zm0-84.5h30v34.5h-30z" class="st6"/><path id="path134" d="m2734.4 4850.4-48.7 112.8 2.1 1.5s-47.7 118-55.8 131.2c-8.5 13.7-21.2 20.7-36.4 26.6 6.1 3.5 12.1 7.2 18.2 11.3 0 0-38.3 11.8-33.9 42.7 4.4 30.9 60.4 69.2 94.3 134 33.8 64.6 48.5 246.2-69.6 278.1l-2 1.8c-6.5 10.9-52.6 78.8-177.4 53-135.5-28-175.3-160.5-170.9-237.1 4.4-76.6 21.6-122 57-175.4 34.9-52.6 19.6-86.8-6.9-95.6 0 0 12-8.5 32.7-18.3-9.7-5-17.9-11.3-23.9-21-8.1-13.2-55.8-131.2-55.8-131.2l2.1-1.5-48.7-112.8h69.4l36.5 71.5 1.1-.8 36.9 71.1s17.7-93.3 19.4-141.8h196.8c1.8 48.5 19.4 141.8 19.4 141.8l36.9-71.1 1.1.8 36.5-71.5z" class="st3"/><path id="path136" d="M8123.8 2285.2c-5.5 13.4-11.5 28.7-17.6 44.9-.7 2.1-7.6 20.4-9.9 26.8-11.2 30.6-22.5 62.6-32.2 90.2l.1.1c-4.8 13.7-9.3 26.3-13.2 37.1l-.1-.1c-5 13.9-9.1 24.9-11.9 31.5 0 0-1.6 4-2.9 6l-.8 1c-4.7 2.4-44.3 17.3-68.1 26.2l-25.2 26.9v-.1l-.1.2c-1.7 2.7-7.4 4.9-15.6 6.6-.1 1.1-.2 2.3-.2 3.5v41c58.9 17.9 98.1 69.6 117 137.7v.1c8.6 31.3 13 66 13 102.4 0 4.2-.1 8.3-.2 12.3 1.1 40.8-2.4 83.1-17.6 109 1-.2 2-.4 2.8-.9 9.1-4.8 22.1-48.1 22.1-48.1s-3.6 53.3-12.6 71.6c-9.1 18.3-18.5 21.1-18.5 21.1s-3.9 15.9-22.7 15.1c-6.9-.3-15.7-4.8-23.9-18.2-6 2.4-12.3 4.6-18.9 6.6-3.5 7.5-26.4 73.7-92 69.8 0 0-19 10.9-51 .2s-39.2-27.5-39.2-27.5-23 7.7-49.5-5.4c-22.4-11.1-56-29.2-51.1-99.2 1.4-20.3-13.9-31.5-13.9-31.5s13.2-3.5 22.1 7.4c-11.1-77.7 16-175 16-175 18.9-72.5 60.6-128.3 122.4-147.2v-41.2c0-1.3-.1-2.6-.2-3.9-7.1-1.6-13-3.6-17.1-6.2l-.9-1.1-23.7-25.3c-5.8-2.2-12.7-4.8-19.8-7.4-21.9-8.2-46.1-17.5-49.7-19.3-5-2.5-54.6-155.7-88.5-237.5H7716.1l17.5 47.3 6.3 16.9 1.1 3.1s.9-4.5 2.5-20.4l2-23.1c.5-5.8 1-12.4 1.5-19.7h-.1c.1-1.3.2-2.7.3-4.1h257.5l6.3 66.6.1.6 5-17 5.8-19.6 9-30.6h67.1z" class="st3"/><path id="path138" d="m7417.9 2518.5-.2.6-.6-.1c-5.9 1.6-49 13.1-73.8 29.1-3.2 2-6.1.5-8.9-4.7-6.8 3.9-12.7 8.2-17.5 12.9 1.1.7 1.8 1.1 1.8 1.1-2 1.2-8.8 11.2-8.8 11.2l-1.5-1.6c-3.5 5.9-5.4 12.4-5.4 19.6v38.5c17.8 4.6 33.8 12.3 48 22.5 23.1-5.5 35-11.3 39-13.6l-.3-.9.4.8c1-.5 1.4-.8 1.4-.8 15.7-6.4 38.7-21.4 38.7-21.4 37.9 71.4 44.8 146 44.9 190.2v.5c0 14.4-.7 25.6-1.2 32.2-8.4 108.9-61.6 219.4-213.4 219.4-148.6 0-202.7-105.9-212.8-212.5 0 0-15.9-118.8 43-229.8 0 0 21.4 13.9 36.9 20.7 1.2.2 2.5.4 3.7.7 0 0 15.1 8 41 15.1 14-10 29.6-17.6 46.8-22.4v-39.2c0-7.2-1.9-13.7-5.3-19.6l-1.5 1.5s-6.8-10-8.8-11.2c0 0 .6-.4 1.7-1.1-4.8-4.6-10.6-8.9-17.2-12.7-2.7 5-5.6 6.6-8.8 4.5-24.8-15.9-67.8-27.5-73.8-29.1l-.6.1-.2-.6-75.4-226.4h65.4l37 86 18.1-86H7372.5l18 85.7 1.3-2.7 35.7-83.1h65.4z" class="st3"/><path id="path140" d="m1703.4 2204.4-57 97.7c1.2 2.5 1.5 4.8.8 6.2l.1-.1-46.1 82.4-35.7 18.8-.1 2-22.2 16.6.1-.1c-1.3.9-4.8 2.6-12.6 4.1-.8.8-1.7 1.6-2.6 2.3v-.1 25.2c1.8.5 3.6 1 5.4 1.6 6.3 2 12.2 4.6 17.7 7.8 2.8 1.6 5.4 3.3 7.9 5.1 6.8 4.9 12.9 10.6 18.3 17.2 1.3 1.6 2.7 3.3 3.9 5.1 1.9 2.6 3.7 5.3 5.4 8.1 3.4 5.6 6.5 11.6 9.3 18 1.8 4.2 3.5 8.6 5 13.2 1.1 3.1 2 6.3 2.9 9.6l.1-.1s15.4 31 13.6 85.4c-.4 11-.6 22.3-3.3 32.4-1.7 6.4-5.1 11.9-8 17.6-4.5 8.9-9.7 18.4-17.6 25.4-4.2 3.7-9.7 6.9-15 9.9-6.9 3.9-14 9.9-23 12.5-7.2 2.1-15.8 2.5-24.6 3.6-6.1 1.3-10.9 3.4-20.3 3.4-1.4 0-9.7-1.4-11.1-1.4-9.4 0-17-.7-23.1-2-9.3-1.2-18.5.3-26.1-2.1-11.4-3.5-20.2-12.7-28.2-18.4-5.9-4.1-14.4-10-18.7-15.1-9.7-11.4-14.5-24.9-17.7-39.7-1.8-8.4-.4-17.3-.7-26.3-1.9-54.4 13.6-85.4 13.6-85.4 11.5-42 34.4-73.6 72.4-84.7V2434v.1l-2.2-2c-11.2-2.1-13.7-4.8-13.7-4.8l-.1-.1-21.1-15.8-.1-2-35.7-18.8-46.1-82.4c-.8-1.4-.5-3.6.6-6.2l-57-97.6h45.4l51.7 72.6c1.7-.2 3.1-.1 4 .5l.7.6.1.1 9.7 16.1 8.3-89.6H1583.8l8.3 89.6 9.2-15.4.4-.7.1-.2v.1l.5-.5c.9-.6 2.2-.7 3.8-.6l51.9-72.9z" class="st3"/><path id="path142" d="M809.1 2736.5c26.9-44.7 54.6-88.8 82.7-132.7v579.7h-82.7z" class="st5"/><path id="path144" d="M1131.5 2702c-9.6-10.8-28.7-4.8-34.7 19.1-6 23.9 39.1 174.2 5.6 247.2s-106 109.2-152.7 108c-13.7-.4-27.5-2.5-40.2-5.3-32.5 7.3-67 3.2-100.4-10.2v-324.3c85.5-141.9 176.7-279.9 273.9-413.2h84.9c-20.1 37.7-47.1 88.4-71.4 134.3 7.6 15.6 12.9 33.3 13.5 53 1.2 40.6-1.2 84.9-14.3 122-13.2 37.1-8.4 56.2-8.4 56.2 37-16.7 44.2 13.2 44.2 13.2" class="st3"/><path id="path146" d="m4119.7 1172.7-.6 1.1c-.9 1.7-1.9 3.5-2.8 5.2-.6 1.1-1.2 2.3-1.8 3.4-.6 1.2-1.3 2.3-1.9 3.5l-1.4 2.5c-.8 1.4-1.5 2.7-2.3 4.1l-.2.5c-2.4 4.4-4.9 8.8-7.4 13.3l-.5.9c-21.2 37.7-45.2 77.4-68.3 109.4l-.2 1.1v.2-.1c-.1.7-.3 1.5-.6 2.6v-.1c-1.2 4.8-4.3 13.6-12 21.5-3.7 3.8-8.4 7.5-14.5 10.5-4.8 2.3-9.8 4.4-14.7 6.2l-1 .3c-1.2.4-2.4.8-3.5 1.2l-1.7.6c-1.1.4-2.2.7-3.2 1l-.9.3c-1.4.4-2.7.8-4.1 1.2-3.6 1-6.9 1.9-9.9 2.7-3.2.8-6 1.4-8.3 1.9l-.2.8s-11 3.5-14.7 5.2l-.3-1.1c-3 1.7-5.9 3.5-8.4 5.3.9 1.4 1.5 3 1.5 4.8 0 4.8-3.9 8.6-8.6 8.6-1.8 0-3.5-.6-4.9-1.5-3.7 5.4-5.7 11.6-5.7 18.7v43.1c61.1 17.8 96.1 71.3 111.2 141.5 6.8 17 28.9 79.4 21.1 145.4-.6 5.4-3.5 12.5-8.2 20.4l-.6 1-.6.9-1 1.6-.5.8-1.1 1.7-.5.7-1.3 1.9-.3.5c-3 4.3-6.4 8.8-10.2 13.3-14.1 16.8-33.4 34.8-55.7 49.9l-1.5 1-1.2.8-2.7 1.8-.9.6c-3.1 2-6.2 3.9-9.4 5.7l-1.1.6c-.9.5-1.8 1-2.8 1.5l-1.4.7-2.7 1.5-1.3.7c-3.1 1.6-6.3 3.2-9.5 4.6l-1.3.6-.9.4c-9.9 4.4-20.1 8-30.4 10.5l-.1.4c-3 .7-5.9 1.3-8.9 1.8v-.3c-8.1 1.5-16.1 2.3-24.3 2.3-88 0-175.9-94.2-179.9-128-9.2-77.6 25.2-150 25.2-150 15.4-68.6 50-120.7 110.4-137.5v-42.5c0-6.8-1.8-12.7-5.2-17.9-1.1.5-2.2.8-3.5.8-4.8 0-8.6-3.8-8.6-8.6 0-1.4.4-2.7.9-3.8-2.9-2.2-6.2-4.3-9.7-6.3l-.3 1.1c-2.3-1.1-7.1-3.2-10.4-4.7-.2 0-6.3-1-15.2-3.2l-.1.1c-2.6-.6-5.1-1.2-7.6-1.9l-.2-.2c-1.9-.5-3.9-1.1-6-1.8v.1c-3.4-1.1-6.7-2.2-9.6-3.3l-1.6-.6-2-.8c-4.1-1.6-8.3-3.4-12.4-5.3-24.9-12.1-27.2-35.8-27.2-35.8-18.4-25.4-37.2-55.6-54.8-85.7l-.5-1c-1.6-2.7-3.1-5.3-4.6-8l-.9-1.5c-1.5-2.7-3-5.3-4.5-7.9l-.9-1.6c-1.3-2.4-2.6-4.7-3.9-7l-1.4-2.5c-1.2-2.1-2.4-4.2-3.5-6.3l-.9-1.6c-15.4-27.8-28.9-53.8-39.1-73.9-1.6-3.1-3.1-6-4.4-8.8l-.6-1.1c-1.3-2.6-2.5-5.1-3.7-7.4-1.1-2.2-2.1-4.2-3-6.1l-1.1-2.3c-4.4-8.9-6.8-14-6.8-14H3644.3l35.1 47.7 5.2 7.1 2.7 3.7 5.8 7.9 3.2 4.4 4.9 6.5v.1l33 44.8.5.6.4.5.1-.5.2-.9 18.5-94 .8-4.1 4.7-23.8h82.3v-.1h9.4v.1h127.4l.2 1 1.5 7.6 1.5 7.5 1.3 6.6 14.1 71.6 2.3 11.6.5 2.6v-.1l1 5 1.9 9.9.4-.5.6-.8v.1l8.1-11 3.3-4.5 66-89.6 1.9-2.5 10.7-14.5h73.3c0 .3-19.5 41.3-47.4 93.1" class="st3"/><path id="path148" d="M9530.8 9535.4v318.3h974.5v-357.5l345.8-3.9V8506l-361.5 3.9v-326.1h-326.2" class="st0"/><path id="path150" d="M10628.9 9293.8h-344.4v344.4h-552.7v-344.4h-344.4V8741h344.4v-344.4h552.7V8741h344.4z" class="st0"/><path id="path152" d="M9811.8 8476.7h392.7V8821h344.4v392.7h-344.4v344.4h-392.7v-344.4h-344.4V8821h344.4zm552.7-160h-712.7V8661h-344.4v712.7h344.4v344.4h712.7v-344.4h344.4V8661h-344.4z" class="st6"/><path id="path154" d="M5646.8 0C6183.5 0 6702 76.5 7193.9 216.3l-203 463.1s-45 219.8-400.5 338.2c-355.3 118.5-626.1 238.9-626.1 491.5v665h-858.6v-665c0-252.6-270.8-373-626.1-491.5-355.5-118.4-400.5-338.2-400.5-338.2l-176.9-403.5C4451.9 97.5 5037.8 0 5646.8 0" style="fill:#e5c5ae"/><path id="path156" d="M7089.2 880.1s-19.3 43.3-136.6 97c-161.2 73.9-163.2 70-748.3 276.6l-669.2-34.2-672.6 34.2c-585.1-206.6-587.1-202.7-748.3-276.6-117.3-53.7-136.6-97-136.6-97l-212.1-557.9C4354.1 114.2 4986.9 0 5646.8 0 6232 0 6796.3 89 7327.2 254.2z" style="fill:#3d92d6"/><path id="path158" d="M4862.4 1253.7s25.9 244.8 104.5 233c78.6-11.8 628.7-86.4 907.6-31.4 279 55 131.7 75.6 192.4 55 96.6-32.8 137.3-256.6 137.3-256.6s-306.2-187.4-730.6-199.2c-424.2-11.8-611.2 199.2-611.2 199.2" style="fill:#fff"/><path id="path160" d="M7110 4008.7c0-1232.2-437-2238.2-1560.7-2238.2-1123.5 0-1539.1 1018.1-1539.1 2250.3 0 1232.4 1045.6 1480.6 1558.1 1480.6S7110 5241.1 7110 4008.7" style="fill:#edd0bb"/><path id="path162" d="M7334.8 4511.7c-209.4 839.9-1094.7 1336-1924.6 1120.6-89.7-23.3-180.4-55.6-263.7-100.3-24.4 2.7-48.9 3.9-73.8 1.8-99.4-8.3-197.3-38.1-288.6-77.3-92.8-39.8-180.5-90.8-264.9-145.9-675.2-441-986.8-1335.1-686.5-2096.6 129.6-328.6 351.3-614.2 615-846.5 126.3-111.3 263.7-205.1 403-298.9 68.9-46.5 136.8-94.7 199.8-149 59.9-51.7 117.5-109.1 157-178.2 17.6-30.7 30.4-63.4 36.4-98.3 2.1-12.1 19.2-1.6 21.7 4.6 15.2 38.1 19.3 79.5 18.6 120.7 16.1-53.1 32.8-105.9 61.3-153.8 6.7-11.3 24.5.6 27.5 9.1 37.5 106.5 31 224.5 69.9 329.5.8-52.9 7.7-106.3 17.8-157.5 13.2-66.8 33-146.8 85.6-194.3 8.8-7.9 24.1 3.7 27 12.1 38.7 111.6 103.4 212.5 172.6 308.2-4-46.9 4.7-95 19.6-139.5 22-65.6 56.8-127.8 100.7-181.2 9.2-11.2 25.9-.4 30.2 10 43.1 103 76.3 214.2 134.7 310 97.2 115.6 236.1 196.5 363.8 272.6 85.8 51.2 172.6 101.8 251.9 162.9 88.3 68.2 165.8 151.4 236.3 237.5 155.2 189.3 275.6 406.3 359 636.3 75.6 208.5 116.6 427.4 137.2 647.8 20.8 221.7 4.9 435.5-44.5 633.6" style="fill:#b7491f"/><path id="path164" d="M4970.3 3470.8c-65.3 153.1-98.1 322.1-116.3 486.3-21.8 196.2-22.9 399.5 18.2 593.3 11.4 53.6 26.4 106.9 46.6 157.9 38.8-142.9 67.2-288.7 85.3-435.6 22.4-182.5 29.8-368 11.8-551.1-8.4-84.6-23.2-168.7-45.6-250.8" class="st12"/><path id="path166" d="M6348.6 3681.4c-21.1 160-22.2 322.4-33.8 483.2-10.4 145-25.6 293.9-67.9 434.1 40.8-37.5 80.4-76.1 114.1-120 111.4-145.6 124.4-352.9 90.8-527.3-18.4-95.4-52.6-187.3-103.2-270" class="st12"/><path id="path168" d="M6683.6 4221c-100.5 198.2-154.9 416.2-256.7 613.9 141.6-109.4 254.1-257.4 269.2-441.9 4.8-57.7-.5-115.5-12.5-172" class="st12"/><path id="path170" d="M5718.8 3743.3c-27.9 258.2-75.2 513.8-110.6 771.1-1.3 9.2-2.3 18.4-3.6 27.7 36.7-61.2 77.3-120.6 106.5-185.8 29.4-65.6 41.7-135.8 46.9-207.1 5.5-75.4 3-151.3-5.5-226.3-6.8-60.5-17.9-120.7-33.7-179.6" class="st12"/><path id="path172" d="M6173.8 5639.1c-52.4 12.5-105.6 22.4-159.2 29.5 53.6-7.2 106.8-17.1 159.2-29.5" style="fill:#67746d"/><path id="path174" d="M5394.7 5628.2c5.2 1.4 10.4 2.8 15.6 4.1 131 34 263.2 50.2 394.1 50.2 70.6 0 140.9-4.7 210.2-14-69.3 9.3-139.5 14-210.2 14-130.9 0-263.1-16.3-394.1-50.2-5.2-1.3-10.4-2.7-15.6-4.1" style="fill:#203937"/><path id="path176" d="M7379.5 3878.1c.1.7.1 1.4.2 2.2-.1-.8-.2-1.5-.2-2.2m.2 2.3c.5 5.7 1 11.3 1.5 16.9 5.6 66.8 7.9 132.8 6.9 197.8 1-70.5-1.8-142.2-8.4-214.7m-6.6 427.1c-8.9 69.6-21.7 137.8-38.3 204.3-5.5 22-11.4 43.7-17.8 65.2 6.4-21.5 12.3-43.2 17.8-65.2 16.6-66.5 29.4-134.7 38.3-204.3M7236 4789.3c-204.9 434.4-605.4 741-1062.2 849.8 456.8-108.9 857.3-415.4 1062.2-849.8" class="st15"/><path id="path178" d="M7388.1 4095.1c-1.1 72.1-6.1 142.9-15 212.3 8.9-69.4 13.9-140.2 15-212.3" class="st16"/><path id="path180" d="M7317 4576.9c-17.5 59-38.5 116.2-62.5 171.4 24.1-55.2 45-112.4 62.5-171.4" class="st16"/><path id="path182" d="M7254.5 4748.3a1384.032 1384.032 0 0 0 0 0" style="fill:#b06d4f"/><path id="path184" d="M3832.1 3215.5c-.1.1-.1.2-.1.4 0-.2.1-.2.1-.4m-.6 1.6s-.1.1-.1.2c0 0 .1-.1.1-.2m-.7 1.7c0 .1-.1.2-.1.3.1-.1.1-.2.1-.3m-.6 1.5c0 .1-.1.2-.1.3.1-.1.1-.2.1-.3m-.6 1.7-.1.2s.1-.1.1-.2m-.6 1.5c0 .1-.1.2-.1.3 0-.1.1-.2.1-.3m-1.3 3.3c0 .1-.1.1-.1.2.1-.1.1-.2.1-.2m-1.2 3.2s0 .1-.1.1c.1 0 .1 0 .1-.1m-.6 1.6s0 .1-.1.1c.1 0 .1-.1.1-.1m-1.2 3.2c0 .1 0 .1-.1.1zm-1.2 3.2c-.1.1-.1.1 0 0" class="st15"/><path id="path186" d="M5151.8 1951.1c-2.9 0-5.9 1.2-8.4 3.9-17.9 19.6-36 39.1-54.4 58.3-144.5 151.2-302.9 288-462.1 423.3-80.8 68.7-160.6 138.7-242.1 206.4-71.7 59.6-141 122.2-206.5 188.5-128.7 130.4-241.7 275.7-335.8 433-20.8 34.8-41.7 69.7-62.2 104.8 14.5-51.3 31.6-102.3 51.3-152.6-.1.2-.1.3-.2.4 0 0-.1.1-.1.2-.2.5-.4.9-.6 1.4 0 .1-.1.2-.1.3-.2.4-.3.8-.5 1.2 0 .1-.1.2-.1.3-.2.5-.4.9-.6 1.4 0 .1-.1.1-.1.2-.2.4-.3.9-.5 1.3 0 .1-.1.2-.1.3-.4 1-.8 2-1.1 3 0 .1-.1.2-.1.2l-.6 1.5c-.2.5-.4 1-.6 1.6 0 0 0 .1-.1.1-.2.5-.4 1-.6 1.4 0 .1 0 .1-.1.1-.4 1-.8 2-1.2 3.1 0 0 0 .1-.1.1-.4 1-.8 2.1-1.2 3.1v.1c-202.7 539-102.3 1140.8 214 1600.1-42.6-116.5-71.8-237.8-87.9-361-23.8-182.1-19.5-366.9 5.6-548.6 25.5-184.6 72.9-366.1 137.4-540.9 63.8-173 144.1-340 239.4-497.7 11.8-19.5 23.8-38.8 36-58 2.6-4.1 6.7-5.9 10.7-5.9 7.6 0 15.2 6.4 12.4 15.6-67.4 228.7-98.6 466.5-92 704.9.4 13.1 1.3 26.1 1.9 39.2 14.5-111.8 39.6-222.5 73.4-329.6 52.6-166.8 127.4-329.9 235.8-468.1 56.2-71.7 122.4-135.8 199.4-184.8 2-1.2 4.1-1.8 6.1-1.8 6.6 0 12.9 5.6 12.9 12.8-.6 160.6-53.9 314.4-90.8 469.1-19.5 81.7-32.7 162.7-35.4 246.8-2.9 87.5-2 175.1.6 262.6 1.7 56.7 4.2 113.3 6.9 169.9 18.5-124.1 38.8-247.9 66.4-370.5 40.5-180.6 93-366.7 191.3-525.3 45.3-73.2 102.9-141.6 178.3-185.1 2-1.1 4.1-1.7 6.2-1.7 4.4 0 8.6 2.3 11.1 6.2 46.9 71.5 62.1 158.8 69.4 242.6 7.5 86.1 4.4 172.6 10.1 258.7 3.8 57.4 3.7 115.4 5 172.9 1.3 59.3 2.4 118.5 3.2 177.8.7 49.8.9 99.5 1.3 149.3 13.9-133.1 30.8-265.8 56.5-397.4 17.4-89.3 38.9-177.9 66.8-264.5 2-6.2 6.9-9 11.8-9 6.2 0 12.5 4.5 13 12.4 20.8 282.6 58 563.7 86.5 845.6 7.4-52.7 15.2-105.2 22.8-157.4 16.5-112.7 34.6-225.6 40.1-339.5 5-104.6 4.8-209.5 14.8-313.9 10.2-106.3 28.4-221.7 92.5-310.3 2.6-3.6 7-6.4 11.5-6.4 2 0 4 .6 5.8 1.9 78.3 56.8 123.9 144.9 154.6 234.5 33.4 97.6 50.6 199.8 67.9 301.1 17.2 100.5 32 201.2 43.7 302.2 9.4-87.6 23.8-174.4 51.5-258.5 1.9-5.6 7.5-9.2 13-9.2 4 0 7.9 1.9 10.1 6.1 32.5 62 53.3 129.1 67.9 197.4-9-133.9-16-268-9.5-402.3 3.9-80.8 12.9-161.5 30.5-240.5 1.3-5.8 7-9.3 12.6-9.3 3.2 0 6.3 1.1 8.6 3.7 150.6 170.8 239.1 390.3 299.4 607.3 27.5 98.8 49.1 199.3 66.1 300.6.2-33.8.2-67.7-.2-101.5-1.2-86.8-1.8-174.6-9-261.1-6.5-77.6-19-154.6-24.2-232.4-5.2-77.4-5.5-160.7 29.3-232 2-4.1 6.5-6.2 11-6.2 3.3 0 6.6 1.2 8.9 3.7 145 163.2 238.5 364.2 292.9 574.3 55.3 213.2 73 435.4 69.9 655.1-1.1 80-5.3 159.9-11.7 239.7 51.1-188.9 69.5-386 83.9-580.7 4.8-65.2 9.2-130.4 14.2-195.6.6-7.8 7.1-12.4 13.3-12.4 4.9 0 9.7 2.8 11.5 9.1 52.4 176.9 73 363.1 69.7 547.3-3.5 194-33.7 388.8-95.2 573-58.6 175.6-146.9 343.9-273.4 480.4-143.9 155.3-335 263.3-542.1 306.4-99.2 20.6-199.8 27.8-300.8 27.8-112 0-224.5-8.8-335.6-17.7-27.3-2.2-54.6-4.4-81.9-6.5-16.4-1.3-16.2-23.7 0-25.3 179.8-18.1 311.4-149.9 415.9-286.3 7.3-9.5 14.2-19.2 21.4-28.8-131.3 94.5-302.9 135.2-462.5 135.2-8.6 0-17.3-.1-25.8-.4-108-3-210.8-28.1-309.4-71.8-109.7-48.6-207.3-118.4-299.1-194.9-97.3-81-189.8-167.9-291.6-243.4 6.4 128.5 86.2 238.5 180.8 321.6 110.7 97.3 246.1 168.2 384.7 216.7 66.7 23.4 135.9 42.4 206.3 51 7.5.9 15.3 7.5 12.2 16-17.2 47.8-53.1 77.3-96.4 95.1 75.4 39.1 156.2 68.7 236.8 90.6 5.2 1.4 10.4 2.8 15.6 4.1 131 34 263.2 50.2 394.1 50.2 70.6 0 140.9-4.7 210.2-14 53.7-7.2 106.8-17 159.2-29.5 456.8-108.8 857.3-415.4 1062.2-849.8 6.4-13.5 12.6-27.2 18.6-41 24-55.2 45-112.4 62.5-171.4 6.4-21.5 12.3-43.2 17.8-65.2 16.6-66.4 29.4-134.6 38.3-204.3 8.9-69.4 13.9-140.3 15-212.3 1-65.1-1.3-131.1-6.9-197.8 7.4 89.4 8.6 177.3 4.4 263.6-9.6-111.9-22.3-223.5-42.3-334-32.7-180.1-86.9-356.2-172.6-518.4-98.7-186.6-238.1-345.1-388.4-491.7-140.8-137.4-292.4-265.2-458.3-371.2-136.7-87.3-295-176.7-364.6-331.1-1.9-4.2-6.2-6.1-10.7-6.1-5.7 0-11.6 3.2-12.5 9.1-24.5 166.8-8.5 333.9 2.6 501.1-105.5-173.3-191.4-358.2-236-557.1-1.4-6.1-6.5-9.1-11.7-9.1-5.4 0-11 3.1-12.7 9.1-59.8 210.4-84.6 427-80.6 645.1-81.8-195.1-122.6-404.6-164-611.4-1.2-6-6.6-9.1-12.1-9.1-4.4 0-8.8 2-11.1 6.1-92.2 164.8-153.2 345.1-244.5 510.2 39.5-200.7 109.5-398.1 99.9-604.7-.3-7.4-7.2-12.7-13.7-12.7-3.9 0-7.6 1.9-9.9 6.3-25.1 50-54.6 97.9-86.1 144.1-65.3 95.8-140.1 185.9-223.5 266.5-51.5 49.8-108.1 98.9-170.6 136.4 17-20.7 34.2-41.3 51-62.2 128.4-159.9 251-325.8 350.2-505.6 5.6-9.2-2.5-19.2-11-19.2M3832.2 3215.4v.1c-.1.1-.1.2-.1.4 0 .1-.1.2-.1.3-.1-.2 0-.5.2-.8" class="st18"/><path id="path188" d="M7379.7 3880.3v.1z" class="st15"/><path id="path190" d="M3831.8 3216.2c-.1.2-.1.3-.2.5.1-.2.2-.3.2-.5" class="st18"/><path id="path192" d="M7224.8 3183.5c6 15.5 11.9 31.1 17.5 46.8 45.1 124.6 78 252.9 101.5 383-23.5-130.1-56.3-258.4-101.5-383-5.7-15.7-11.5-31.2-17.5-46.8m149.4 642.1c1.9 17.5 3.6 34.9 5.3 52.4.6 6.4 1.2 12.8 1.7 19.2-.5-5.6-1-11.3-1.5-16.9v-.1c-.1-.7-.1-1.4-.2-2.2-1.7-17.4-3.4-34.9-5.3-52.4" style="fill:#08100f"/><path id="path194" d="M7343.8 3613.3c12.7 70.3 22.7 141.2 30.4 212.3-7.7-71.1-17.7-142-30.4-212.3" style="fill:#9e4831"/><path id="path196" d="M5876.1 1596.2c8.3 0 17.4 7.5 20.5 14.7 23.7 56.4 44.3 115.4 67.8 172.9-23.5-57.5-44.1-116.5-67.8-172.9-3-7.2-12.1-14.7-20.5-14.7" style="fill:#a14531"/><path id="path198" d="M5876.1 1596.2c-3.6 0-7 1.4-9.8 4.7-43.9 53.4-78.7 115.6-100.7 181.2-.2.5-.4 1.1-.5 1.6-12.2 36.7-20.1 75.9-20 114.7 0 7.7.3 15.5 1 23.2-69.3-95.7-133.9-196.7-172.6-308.2-2.2-6.4-11.7-14.7-20-14.7-2.5 0-4.9.8-7 2.6-46.7 42.1-67.5 109.8-80.9 171.1-1.7 7.8-3.3 15.6-4.8 23.2-10.1 51.2-17 104.6-17.8 157.5-20.9-56.4-28.7-116.7-37.3-176.8-7.4-51.8-15.3-103.5-32.6-152.7-2.1-6-11.6-13.7-19.4-13.7-3.2 0-6.1 1.3-8.1 4.6-28.5 48-45.2 100.7-61.3 153.8 0-2.9.1-5.8.1-8.7 0-38.3-4.5-76.5-18.7-112-1.7-4.2-9.8-10.2-15.7-10.2-3 0-5.3 1.5-6 5.6-6 34.9-18.8 67.6-36.4 98.3-39.6 69.1-97.1 126.6-157 178.2-62.5 53.9-129.9 101.8-198.2 148-.5.4-1.1.7-1.6 1.1-139.2 93.9-276.6 187.7-403 298.9-240.6 211.9-446.1 468.1-578.7 760.8-8.3 18.2-16.2 36.6-23.9 55.2-4.2 10.1-8.3 20.3-12.4 30.5-.2.4-.4.9-.5 1.3-.1.3-.2.5-.3.8-.1.2-.1.3-.2.5-19.8 50.4-36.8 101.3-51.3 152.6 20.5-35.1 41.4-70 62.2-104.8 94.1-157.3 207.1-302.6 335.8-433 65.5-66.4 134.7-129 206.5-188.5 81.6-67.7 161.4-137.7 242.1-206.4 159.1-135.3 317.6-272.2 462.1-423.3 18.4-19.2 36.5-38.6 54.4-58.3 2.5-2.8 5.5-3.9 8.4-3.9 8.5 0 16.6 10.1 11.5 19.3-99.2 179.9-221.8 345.7-350.2 505.6-16.8 20.9-34 41.5-51 62.2 62.5-37.6 119.1-86.6 170.6-136.4 83.4-80.7 158.2-170.7 223.5-266.5 31.5-46.2 60.9-94.1 86.1-144.1 2.2-4.4 6-6.3 9.9-6.3 6.5 0 13.4 5.3 13.7 12.7 9.5 206.6-60.5 404-99.9 604.7 91.3-165.1 152.2-345.5 244.5-510.2 2.3-4.1 6.7-6.1 11.1-6.1 5.5 0 10.9 3.1 12.1 9.1 41.3 206.8 82.2 416.3 164 611.4-4-218.1 20.8-434.6 80.6-645.1 1.7-5.9 7.3-9.1 12.7-9.1 5.2 0 10.4 2.9 11.7 9.1 44.6 199 130.5 383.9 236 557.1-11.1-167.2-27.1-334.3-2.6-501.1.9-5.9 6.7-9.1 12.5-9.1 4.5 0 8.8 1.9 10.7 6.1 69.7 154.4 227.9 243.8 364.6 331.1 165.9 106 317.5 233.8 458.3 371.2 150.3 146.7 289.8 305.1 388.4 491.7 85.7 162.2 140 338.3 172.6 518.4 20 110.5 32.7 222.1 42.3 334 4.2-86.2 3-174.2-4.4-263.6-.5-6.4-1.1-12.8-1.7-19.2-1.6-17.5-3.4-35-5.3-52.4-7.7-71.1-17.7-142-30.4-212.3-23.5-130.1-56.3-258.4-101.5-383-5.7-15.6-11.5-31.2-17.5-46.8-16.4-42.3-34-84.1-53-125.3-3.9-8.4-7.8-16.8-11.7-25.1-34.1-72-72-142.1-113.7-209.9-49.2-79.9-103.5-156.6-163.1-229.2-70.5-86.1-148-169.3-236.3-237.5-79.2-61.2-166.1-111.8-251.9-162.9-127.7-76.1-266.6-157-363.8-272.6-26.4-43.3-47.6-89.7-67-137.1-23.5-57.5-44.1-116.5-67.8-172.9-3-7.2-12.1-14.7-20.5-14.7" style="fill:#801c1b"/></g></g></svg>