<svg xmlns="http://www.w3.org/2000/svg" xml:space="preserve" id="Laag_1" x="0" y="0" version="1.1" viewBox="0 0 507.9 507.9"><style>.st2{fill:none}.st4{fill:#d84827}.st8{fill:#ffd791}.st9{fill:#f48123}.st13{fill:#fff}.st16{fill:#a9b7b9}.st17{fill:#2a2010}.st18{fill:#e4c7b6}.st19{fill:#b2cbd9}.st20{fill:#e8edf0}.st21{fill:#ccd8df}.st22{fill:#f2f5f8}.st23{fill:#7599aa}.st24{fill:#efefed}.st25{fill:#6a7894}.st27{fill:#7e8ca7}.st28{fill:#aaadaf}.st29{fill:#c2c5c7}.st30{fill:#475266}.st31{fill:#92a0b6}.st32{fill:#dbdad6}.st41{fill:#886b4f}.st47{fill:#4f4c49}</style><circle cx="253.9" cy="254" r="253.2" style="fill:#d94721"/><path d="M33.6 129.2 456 406.5c32-42.5 51-95.3 51-152.6C507.1 114.1 393.8.7 253.9.7 159.3.7 77 52.5 33.6 129.2" style="fill:#f05a24"/><circle cx="253.9" cy="254" r="253.2" class="st2"/><path d="M253.9.8C393.7.8 507.1 114.2 507.1 254S393.6 507 253.9 507c-62.2 0-119.2-22.4-163.3-59.7-2.7-2.3-5.3-4.6-7.9-6.9C32.3 394 .7 327.6.7 253.9.7 114.1 114.1.7 253.9.8" class="st2"/><ellipse cx="253.9" cy="157" rx="60.1" ry="9.1" style="fill:#b73d26"/><path d="M220.2 95.4 176 70.9l-2.4 2.4 46.7 44.7 9.4-10.6 1.8 1.2 1.9-5.4.2-.3h-.1l20.3-56.3v-3.7z" class="st4"/><path d="m334.2 73.3-2.5-2.4-44.3 24.6-33.6-52.6v3.7l22.2 62 2-1.4 9.6 10.8z" class="st4"/><path d="m286.5 100-32.7-53.4-32.7 53.4-47.5-26.7 20 73.5v10.3s9.8-9.1 60.1-9.1 60.1 9.1 60.1 9.1v-10.3l20-73.5z" style="fill:#fdbd3a"/><path d="M253.9 46.6 221.2 100l-47.5-26.7 20 73.5v10.3s7.1-6.6 40.5-8.5l40.3-68.3z" style="fill:#ffc858"/><path d="M197.6 145.2s55.6-16.9 113 0" style="fill:none;stroke:#ffd791;stroke-linecap:square;stroke-miterlimit:10"/><path d="M193.6 157c2-1.7 4.4-2.8 6.8-3.8s4.9-1.8 7.4-2.5c5.1-1.1 10.2-1.8 15.3-2.4 10.3-1 20.5-1.4 30.8-1.4s20.5.4 30.8 1.4c5.1.6 10.2 1.3 15.3 2.4 2.5.7 5 1.5 7.4 2.5s4.8 2.1 6.8 3.8c-1.1-.7-2.3-1.2-3.5-1.6-1.2-.4-2.4-.8-3.6-1.1-2.5-.7-5-1.1-7.5-1.5-5-1.1-10-1.8-15.1-2.4-10.2-1-20.3-1.4-30.5-1.4s-20.4.4-30.5 1.4c-5.1.6-10.1 1.3-15.1 2.4-2.5.4-5 .9-7.5 1.6-1.2.3-2.5.7-3.6 1.1-1.5.3-2.6.7-3.7 1.5M181.6 83c3.5 1.8 7.1 3.7 10.6 5.6l10.6 5.6 10.5 5.6 10.5 5.7-1.5.4 7.6-13.3 7.7-13.2L252.8 53l1.3-2.2 1.3 2.2 15.4 26.3 7.7 13.2 7.6 13.3-1.5-.4 10.4-5.7 10.4-5.6 10.5-5.6c3.5-1.9 7-3.7 10.5-5.6-3.4 2.1-6.8 4.1-10.2 6.2l-10.4 6.1-10.2 6.1-10.2 6-.9.5-.6-.9-7.8-13.1-7.9-13-15.6-26.2h2.6l-15.5 26.2-7.9 13-7.9 13.1-.6.9-.9-.5-10.3-6-10.3-6.1-10.3-6.2c-3.1-2-6.5-4-9.9-6" class="st8"/><path d="m106.2 116.6 9.5-7.9 41.7 50.3-9.5 7.9zM72.2 185.2l5.4-11.1 35.6 17.4-5.4 11.1zM350.5 158.9l41.7-50.3 9.5 7.9-41.7 50.4zM394.7 191.5l35.6-17.4 5.4 11.1-35.6 17.4z" class="st9"/><path d="M131.9 417.2s-10.8-16.4-7.2-20.2 11.3-11.3 33.9-12 33.7 8.9 34.4 18-61.1 14.2-61.1 14.2" style="fill:#737778"/><path d="M135.9 400.5s-.4-6.4 1.6-7.9 6.7-3.3 6.7-3.3l30.4 1.4s3.5-.4 3.9 2.5c.4 2.8-1.7 6.5-1.7 6.5z" style="fill:#858d94"/><linearGradient id="SVGID_1_" x1="157.85" x2="157.85" y1="31.55" y2="-87.15" gradientTransform="translate(0 448)" gradientUnits="userSpaceOnUse"><stop offset="0" style="stop-color:#fddcc7"/><stop offset="1" style="stop-color:#e9ccba"/></linearGradient><path d="M215.1 419.5s-1.8-8.6-15.7-13.3c-14-4.7-24.6-9.4-24.6-19.3v-26.1H141V387s-10.6 14.7-24.6 19.3c-14 4.7-15.7 13.3-15.7 13.3l8.5 37.8 20 1 34.6 21.2 27.6-.4 15.2-21.7z" style="fill:url(#SVGID_1_)"/><path d="M138.1 394.5s17.3 24.4 39.6-.6l-21.2 57.4z" class="st13"/><path d="M218.8 285.5c0 48.4-17.2 88-61.3 88-44.2 0-60.5-40-60.5-88.4s41-58.1 61.1-58.1 60.7 10.1 60.7 58.5" style="fill:#fddcc7"/><path d="M136.2 344.5c6.7 4.1 13.8 4.6 21.1 4.5 7.3 0 14.3-.9 21.2-4.5-2.6 3-9.8 8.3-21.2 8.3s-18.7-5.1-21.1-8.3" style="fill:#a48e87"/><path d="M143.6 316.5c0 6.7-5.5 12-12.2 12s-12.2-5.4-12.2-12c0-6.7 5.4-12 12.2-12s12.2 5.4 12.2 12" class="st16"/><path d="M140.4 316.5c0 4.6-3.8 8.4-8.4 8.4s-8.4-3.8-8.4-8.4 3.8-8.4 8.4-8.4 8.4 3.8 8.4 8.4" class="st17"/><path d="M128.6 312.2c0 1.3-1.1 2.4-2.4 2.4s-2.4-1.1-2.4-2.4 1.1-2.4 2.4-2.4 2.4 1.1 2.4 2.4" class="st13"/><path d="M173.4 316.5c0 6.7 5.5 12 12.2 12s12.2-5.4 12.2-12c0-6.7-5.4-12-12.2-12-6.7 0-12.2 5.4-12.2 12" class="st16"/><path d="M176.6 316.5c0 4.6 3.8 8.4 8.4 8.4s8.4-3.8 8.4-8.4-3.8-8.4-8.4-8.4c-4.8 0-8.4 3.8-8.4 8.4" class="st17"/><path d="M176.9 312.2c0 1.3 1.1 2.4 2.4 2.4s2.4-1.1 2.4-2.4-1.1-2.4-2.4-2.4-2.4 1.1-2.4 2.4" class="st13"/><path d="M133.2 351.2c.2-1 .6-2 .9-3 .4-1 .8-1.9 1.3-2.8s1-1.8 1.6-2.6c.6-.9 1.2-1.7 1.9-2.4-.3 1-.7 2-1.1 2.9s-.9 1.9-1.3 2.8c-.5.9-1 1.8-1.5 2.6-.6.8-1.2 1.8-1.8 2.5M181.6 351.2c-.6-.7-1.2-1.4-1.7-2.2s-1-1.5-1.4-2.3l-1.2-2.4c-.4-.8-.7-1.7-.9-2.6.7.7 1.2 1.4 1.8 2.1.5.7 1 1.5 1.4 2.3s.8 1.6 1.1 2.5c.6.8.9 1.6.9 2.6M168.9 359c-1.8.6-3.7.9-5.5 1.2-1.9.2-3.8.3-5.7.3s-3.8-.2-5.7-.4c-.9-.1-1.9-.3-2.8-.4-.5-.1-.9-.2-1.4-.3l-.7-.2-.3-.1H146.5l.6.1.7.1c.5.1.9.1 1.4.2.9.1 1.9.2 2.8.3 1.9.2 3.7.3 5.6.3s3.8 0 5.6-.2c.9-.1 1.9-.2 2.8-.3 1-.2 1.9-.4 2.9-.6" class="st18"/><path d="m146.6 406-1.9-1.6-11.5-5.4s-26.4 10.6-29.4 12.5l7.2 28.6 9.3 16.9 26.6 8.9 23.7 1.3-12.2-36.7z" class="st19"/><path d="M158.6 461.5c-10 .6-30 1.8-34.4 2.6l-.2 4.9c6.4-.9 24.3-1.9 34.6-2.4zM147.9 408.5c-8.6 2.8-27.6 9.1-31.7 11.3l1.4 4.7c6.2-3 23.5-9.1 32.2-12.1zM158.6 451.2c-7.8.7-30.4 2.9-35.1 4.3l.3 4.9c6.9-1.6 26-3.9 34.8-4.9z" class="st20"/><path d="M151.6 473.8c-1.3-23-3.6-52.5-7.2-69.4l-5.9-2.8c2.3 8.2 5.3 26.6 7.4 67.5.7 10.9 6.9 23.3 5.7 4.7M158.4 434.9c-.2-1.8-.4-3.6-.6-5.3l-6.6-13.8c1.5 10.6 2.9 25.9 4.1 48.2.6 11.5 3.1.8 3.1.8z" class="st21"/><path d="M142.1 400.2s-23.4 8.5-28.5 11.5l1.5 4.7c8.2-4.3 29.8-12.7 29.8-12.7zM152.4 417.9c-7.4 2-29.6 8.1-34.1 10.3l1.1 4.8c6.9-2.9 27.1-8.9 34.8-11.2zM156.9 427.5c-7.8 1.8-31.8 7.4-36.5 9.1l.7 4.8c7-2.2 37.4-9.2 37.4-9.2v-1.7zM158.4 440.1c-8.2 1.1-32.2 4.5-36.9 5.8l.2 4.9c6.9-1.5 27.2-4.3 36.7-5.6z" class="st20"/><path d="M142.1 420.8c.2 1.4.4 2.9.5 4.5 1.7-.5 3.3-1 4.9-1.5-.2-1.5-.4-2.9-.6-4.4-1.5.4-3.1.8-4.8 1.4M143.2 430.6c.2 1.6.3 3.3.5 5 1.7-.4 3.4-.8 5-1.2-.2-1.7-.3-3.4-.5-5-1.6.4-3.3.8-5 1.2M132.9 428.2l4.8-1.5c-.2-1.6-.4-3.1-.6-4.6-1.6.5-3.2.9-4.8 1.4.2 1.5.4 3 .6 4.7M122.4 422.4c1.4-.6 3.1-1.2 4.8-1.9-.3-1.7-.5-3.2-.8-4.8-1.7.6-3.3 1.2-4.8 1.7.2 1.6.5 3.2.8 5M130.9 414.1c.3 1.4.5 3 .8 4.7 1.6-.6 3.2-1.2 4.8-1.7-.2-1.6-.5-3.1-.7-4.5-1.6.4-3.3.9-4.9 1.5M144.2 442.2c.1 1.6.3 3.3.4 5 1.7-.2 3.5-.5 5.1-.7-.1-1.7-.3-3.3-.4-5-1.5.3-3.3.4-5.1.7M140.6 457.6c-.1-1.5-.2-3.1-.4-4.6-1.7.2-3.5.4-5.1.6.1 1.5.2 3.1.3 4.7 1.7-.2 3.5-.3 5.2-.7M154.9 456c1.3-.2 2.5-.3 3.5-.4v-4.3c-1 .1-2.3.2-3.8.4.2 1.4.3 2.8.3 4.3M153.2 433.5c1.9-.4 3.6-.8 5-1.1-.1-.9-.2-1.9-.3-2.9l-1-2c-1.1.3-2.5.6-4.2 1 .2 1.5.4 3.2.5 5M145.4 457.1c1.8-.2 3.5-.4 5.2-.6-.1-1.5-.2-2.9-.3-4.4-1.6.2-3.4.3-5.2.5.1 1.4.1 2.9.3 4.5M133.4 433c.2 1.6.3 3.2.5 5 1.6-.4 3.3-.8 4.9-1.2-.2-1.7-.3-3.3-.5-5-1.7.4-3.3.8-4.9 1.2M139.9 447.9c-.1-1.7-.3-3.3-.4-5-1.7.3-3.4.5-5 .8.1 1.6.3 3.2.4 4.9 1.5-.3 3.2-.5 5-.7M128.4 429.6l-.6-4.8c-1.8.5-3.4 1.1-4.8 1.5.2 1.5.4 3.2.6 4.9 1.5-.3 3-1 4.8-1.6M141.1 462.6c-1.8.1-3.6.2-5.2.4.1 1.6.2 3.2.3 4.9 1.7-.1 3.5-.2 5.3-.4-.2-1.6-.3-3.2-.4-4.9M140.6 410.9c.2 1.4.5 2.8.7 4.4 1.7-.6 3.3-1.2 4.8-1.7-.2-1.5-.5-2.9-.7-4.3-1.5.5-3.1.9-4.8 1.6M139.6 405.8c1.8-.7 3.3-1.3 4.2-1.7l-5.2-2.5c.3 1.2.6 2.5 1 4.2M153.9 440.9c.1 1.6.3 3.3.4 5 1.5-.2 3-.4 4.2-.6v-5.1c-1.3.2-2.9.3-4.6.7M151.6 418.1c.2 1.4.3 2.8.5 4.3.8-.2 1.5-.4 2.1-.6l-1.9-3.9c-.2 0-.4.1-.7.2M130.1 409.6c1.6-.7 3.2-1.3 4.7-1.9-.3-1.6-.7-3-1-4.4-1.5.6-3.1 1.2-4.8 1.8.2 1.3.6 2.8 1.1 4.5M120.9 413.5c1.5-.7 3.1-1.4 4.7-2.1-.3-1.7-.7-3.2-1.1-4.6-1.7.7-3.3 1.3-4.7 1.9.4 1.4.8 2.9 1.1 4.8M130.4 449.4c-.1-1.6-.3-3.3-.4-4.9-1.9.3-3.6.6-5 .9.1 1.6.3 3.2.4 4.9 1.5-.3 3.2-.7 5-.9M131.2 459c-.1-1.6-.2-3.2-.4-4.8-2 .3-3.7.5-5.1.8.1 1.6.2 3.2.3 4.9 1.6-.3 3.4-.6 5.2-.9M129.4 439c-.2-1.7-.3-3.3-.5-5-1.8.5-3.5.9-4.9 1.3.2 1.6.3 3.2.5 5 1.4-.4 3.1-.8 4.9-1.3M131.6 463.4c-2 .2-3.8.3-5.2.5.1 1.6.2 3.2.3 4.9 1.5-.2 3.3-.3 5.3-.5-.2-1.7-.3-3.3-.4-4.9M150.9 462c-1.7.1-3.5.2-5.3.3.1 1.6.2 3.3.3 5 1.8-.1 3.6-.2 5.3-.3-.1-1.7-.1-3.2-.3-5M158.4 461.5c-1 .1-2.1.1-3.2.2.1 1.6.2 3.3.3 5 1-.1 2-.1 3-.2v-5z" class="st22"/><path d="M140.2 391s-2.2.9-2.3 2.7 8.8 11.9 8.7 12.3c0 0-.7-1.3-1.9 2.2-1.4 4.2-3.9 9.9-3.9 9.9s-10.7-14.6-10.7-17.8c0-.8 5.3-8.4 10.5-10.3 0 0-.1.4-.2.6s-.1.5-.2.4" class="st19"/><path d="M145.1 407.5c-1.8-2.3-8.4-11.1-9-12.8-.1-.4-.2-1-.1-1.6-1 .9-1.9 1.8-2.7 2.7.2.4.4 1 .7 1.6 1.1 2.1 7.3 10.8 9.6 13.9.4-1 .8-2.1 1.1-3.1.2-.2.3-.4.4-.7M142.2 414.6c-2.4-3.4-9.8-14.2-10.4-15.8-.1-.3-.1-.7-.1-1.2-1 1.3-1.6 2.4-1.6 2.6 0 3.3 10.7 17.8 10.7 17.8s.6-1.4 1.4-3.4" class="st20"/><path d="M142.6 400.8c-.7-.9-1.5-1.9-2.2-2.8-.3 0-.6.2-1.1.5-.6.4-3.6 5.5-5.6 9.4.8 1.3 1.7 2.7 2.6 4 1.1-2.7 4.3-9.8 6.3-11.1M144.8 408.2c1.2-3.5 1.9-2.2 1.9-2.2.1-.1-.7-1.1-1.7-2.4h-.1s-.7-.1-1.5.9c-.6.8-3.3 6.8-4.7 10.6 1.2 1.8 2.1 3 2.1 3s2.4-5.7 4-9.9M130.1 400.4c0 .6.4 1.7 1.1 3 1.9-2.7 5.4-7.3 7.5-7.9-.5-.8-.7-1.4-.7-1.7 0-.5.2-.9.5-1.3-.2-.2-.6-.6-1.3-.5-3.8 3-7.1 7.8-7.1 8.4" class="st21"/><path d="M133.9 397.5c.2.3.4.8.8 1.3.8-.9 1.5-1.7 2.3-2.3-.5-.8-.9-1.5-1-1.8-.1-.4-.2-1-.1-1.6-1 .9-1.9 1.8-2.7 2.7.2.5.4 1 .7 1.7M143.1 405c-.4.7-1 1.9-1.7 3.4.8 1.2 1.6 2.2 2.1 2.9.1-.2.1-.4.2-.6v-.1c.2-.5.4-1 .5-1.4 0-.1.1-.3.1-.4.1-.2.1-.4.2-.6.1-.3.2-.5.3-.8-.2-.5-.8-1.4-1.7-2.4M132.9 400.9c-.6-1-1-1.7-1.1-2s-.1-.7-.1-1.2c-.9 1.2-1.5 2.1-1.6 2.5V400.9c0 .1 0 .2.1.3.2.6.5 1.3.9 2.1.5-.7 1.2-1.5 1.8-2.4M140.1 411.5c-.5 1.3-1 2.5-1.4 3.6 1.2 1.8 2.1 3 2.1 3s.6-1.5 1.5-3.5c-.5-.7-1.3-1.7-2.2-3.1M136.9 406.9l-.5-.7c-.3-.5-.7-1-1-1.5-.6 1.1-1.2 2.2-1.7 3.2.8 1.3 1.7 2.7 2.6 4 .3-.8.9-2 1.6-3.4-.3-.6-.6-1.1-1-1.6M138.8 399c-.5.6-1.1 1.7-1.9 2.9l2.4 3.5c.6-1.1 1.2-2.2 1.8-3.1-.7-1.1-1.5-2.2-2.3-3.3" class="st22"/><path d="M130.4 401.8c.6 1.5 1.5 2.9 2.4 4.2.9 1.4 1.8 2.7 2.7 4 1.8 2.7 3.7 5.3 5.6 7.9l-.8.1c1.2-3.1 2.4-6.1 3.6-9.2.3-.8.7-1.5 1-2.3l.3-.6c.2-.3.4-.5.8-.6.2-.1.5 0 .7.1.1.1.2.1.2.2.1.1.1.2.1.2l.3.6 2.1 4.5c1.4 3 2.8 6 4.1 8.9 1.4 3 2.7 6 4 9-1.5-2.9-3.1-5.8-4.5-8.8-1.5-2.9-3-5.9-4.4-8.8l-2.2-4.4-.3-.6v-.1h.1l-.1.1c-.1 0 0 .1-.1.1l-.3.5c-.3.7-.7 1.5-1 2.2-1.3 3-2.5 6.1-3.7 9.1l-.3.7-.5-.6c-1.9-2.6-3.7-5.3-5.4-8.1-.9-1.4-1.7-2.8-2.5-4.2-.5-1.1-1.3-2.5-1.9-4.1" class="st23"/><path d="m169.1 406 1.9-1.6 11.5-5.4s26.4 10.6 29.4 12.5l-7.2 28.6 2.1 21.8-14 20.2-37.3-15.4 1.7-36.2z" class="st19"/><path d="M157.1 461.5c10 .6 30 1.8 34.4 2.6l.2 4.9c-6.4-.9-24.3-1.9-34.6-2.4zM167.9 408.5c8.6 2.8 27.6 9.1 31.7 11.3l-1.4 4.7c-6.2-3-23.5-9.1-32.2-12.1zM157.1 451.2c7.8.7 30.4 2.9 35.1 4.3l-.3 4.9c-6.9-1.6-26-3.9-34.8-4.9z" class="st20"/><path d="M163.9 478.2c1.3-23.5 3.6-55.9 7.4-73.9l5.9-2.8c-2.5 9.1-5.9 30.4-8 80.6-.4 7.6-6.3 12.6-5.3-3.9M157.2 434.9c.2-1.8.4-3.6.6-5.3l6.6-13.8c-1.6 11.3-3.1 28-4.3 52.8-.5 10.4-2.9-.8-2.9-.8z" class="st21"/><path d="M173.6 400.2s23.4 8.5 28.5 11.5l-1.5 4.7c-8.2-4.3-29.8-12.7-29.8-12.7zM163.4 417.9c7.4 2 29.6 8.1 34.1 10.3l-1.1 4.8c-6.9-2.9-27.1-8.9-34.8-11.2zM158.8 427.5c7.8 1.8 31.8 7.4 36.5 9.1l-.7 4.8c-7-2.2-37.4-9.2-37.4-9.2v-1.7zM157.2 440.1c8.2 1.1 32.2 4.5 36.9 5.8l-.2 4.9c-6.9-1.5-27.2-4.3-36.7-5.6z" class="st20"/><path d="M173.6 420.8c-.2 1.4-.4 2.9-.5 4.5-1.7-.5-3.3-1-4.9-1.5.2-1.5.4-2.9.6-4.4 1.4.4 3.1.8 4.8 1.4M172.4 430.6c-.2 1.6-.3 3.3-.5 5-1.7-.4-3.4-.8-5-1.2.2-1.7.3-3.4.5-5 1.7.4 3.4.8 5 1.2M182.8 428.2l-4.8-1.5c.2-1.6.4-3.1.6-4.6 1.6.5 3.2.9 4.8 1.4-.2 1.5-.4 3-.6 4.7M193.2 422.4c-1.4-.6-3.1-1.2-4.8-1.9.3-1.7.5-3.2.8-4.8 1.7.6 3.3 1.2 4.8 1.7-.1 1.6-.4 3.2-.8 5M184.8 414.1c-.3 1.4-.5 3-.8 4.7-1.6-.6-3.2-1.2-4.8-1.7.2-1.6.5-3.1.7-4.5 1.6.4 3.3.9 4.9 1.5M171.4 442.2c-.1 1.6-.3 3.3-.4 5-1.7-.2-3.5-.5-5.1-.7.1-1.7.3-3.3.4-5 1.6.3 3.4.4 5.1.7M175.1 457.6c.1-1.5.2-3.1.4-4.6 1.7.2 3.5.4 5.1.6-.1 1.5-.2 3.1-.3 4.7-1.7-.2-3.5-.3-5.2-.7M160.9 456c-1.3-.2-2.5-.3-3.5-.4v-4.3c1 .1 2.3.2 3.8.4-.2 1.4-.3 2.8-.3 4.3M162.4 433.5c-1.9-.4-3.6-.8-5-1.1.1-.9.2-1.9.3-2.9l1-2c1.1.3 2.5.6 4.2 1-.1 1.5-.3 3.2-.5 5M170.4 457.1c-1.8-.2-3.5-.4-5.2-.6.1-1.5.2-2.9.3-4.4 1.6.2 3.4.3 5.2.5-.1 1.4-.2 2.9-.3 4.5M182.2 433c-.2 1.6-.3 3.2-.5 5-1.6-.4-3.3-.8-4.9-1.2.2-1.7.3-3.3.5-5 1.8.4 3.4.8 4.9 1.2M175.8 447.9c.1-1.7.3-3.3.4-5 1.7.3 3.4.5 5 .8-.1 1.6-.3 3.2-.4 4.9-1.6-.3-3.2-.5-5-.7M187.2 429.6l.6-4.8c1.8.5 3.4 1.1 4.8 1.5-.2 1.5-.4 3.2-.6 4.9-1.3-.3-2.9-1-4.8-1.6M174.6 462.6c1.8.1 3.6.2 5.2.4-.1 1.6-.2 3.2-.3 4.9-1.7-.1-3.5-.2-5.3-.4.2-1.6.3-3.2.4-4.9M175.1 410.9c-.2 1.4-.5 2.8-.7 4.4-1.7-.6-3.3-1.2-4.8-1.7.2-1.5.5-2.9.7-4.3 1.5.5 3.1.9 4.8 1.6M176.1 405.8c-1.8-.7-3.3-1.3-4.2-1.7l5.2-2.5c-.3 1.2-.7 2.5-1 4.2M161.9 440.9c-.1 1.6-.3 3.3-.4 5-1.5-.2-3-.4-4.2-.6v-5.1c1.2.2 2.8.3 4.6.7M164.1 418.1c-.2 1.4-.3 2.8-.5 4.3-.8-.2-1.5-.4-2.1-.6l1.9-3.9c.2 0 .4.1.7.2M185.6 409.6c-1.6-.7-3.2-1.3-4.7-1.9.3-1.6.7-3 1-4.4 1.5.6 3.1 1.2 4.8 1.8-.3 1.3-.6 2.8-1.1 4.5M194.9 413.5c-1.5-.7-3.1-1.4-4.7-2.1.3-1.7.7-3.2 1.1-4.6 1.7.7 3.3 1.3 4.7 1.9-.4 1.4-.8 2.9-1.1 4.8M185.2 449.4c.1-1.6.3-3.3.4-4.9 1.9.3 3.6.6 5 .9-.1 1.6-.3 3.2-.4 4.9-1.3-.3-3.1-.7-5-.9M184.4 459c.1-1.6.2-3.2.4-4.8 2 .3 3.7.5 5.1.8-.1 1.6-.2 3.2-.3 4.9-1.5-.3-3.3-.6-5.2-.9M186.2 439c.2-1.7.3-3.3.5-5 1.8.5 3.5.9 4.9 1.3-.2 1.6-.3 3.2-.5 5-1.3-.4-3.1-.8-4.9-1.3M184.1 463.4c2 .2 3.8.3 5.2.5-.1 1.6-.2 3.2-.3 4.9-1.5-.2-3.3-.3-5.3-.5.2-1.7.3-3.3.4-4.9M164.8 462c1.7.1 3.5.2 5.3.3-.1 1.6-.2 3.3-.3 5-1.8-.1-3.6-.2-5.3-.3.1-1.7.1-3.2.3-5M157.2 461.5c1 .1 2.1.1 3.2.2-.1 1.6-.2 3.3-.3 5-1-.1-2-.1-3-.2v-5z" class="st22"/><path d="M175.4 391s2.2.9 2.3 2.7-8.8 11.9-8.7 12.3c0 0 .7-1.3 1.9 2.2 1.4 4.2 3.9 9.9 3.9 9.9s10.7-14.6 10.7-17.8c0-.8-5.3-8.4-10.5-10.3 0 0 .1.4.2.6s.2.5.2.4" class="st19"/><path d="M170.6 407.5c1.8-2.3 8.4-11.1 9-12.8.1-.4.2-1 .1-1.6 1 .9 1.9 1.8 2.7 2.7-.2.4-.4 1-.7 1.6-1.1 2.1-7.3 10.8-9.6 13.9-.4-1-.8-2.1-1.1-3.1-.2-.2-.3-.4-.4-.7M173.4 414.6c2.4-3.4 9.8-14.2 10.4-15.8.1-.3.1-.7.1-1.2 1 1.3 1.6 2.4 1.6 2.6 0 3.3-10.7 17.8-10.7 17.8s-.6-1.4-1.4-3.4" class="st20"/><path d="M173.1 400.8c.7-.9 1.5-1.9 2.2-2.8.3 0 .6.2 1.1.5.6.4 3.6 5.5 5.6 9.4-.8 1.3-1.7 2.7-2.6 4-1.2-2.7-4.3-9.8-6.3-11.1M170.9 408.2c-1.2-3.5-1.9-2.2-1.9-2.2-.1-.1.7-1.1 1.7-2.4h.1s.7-.1 1.5.9c.6.8 3.3 6.8 4.7 10.6-1.2 1.8-2.1 3-2.1 3s-2.5-5.7-4-9.9M185.6 400.4c0 .6-.4 1.7-1.1 3-1.9-2.7-5.4-7.3-7.5-7.9.5-.8.7-1.4.7-1.7 0-.5-.2-.9-.5-1.3.2-.2.6-.6 1.3-.5 3.8 3 7.1 7.8 7.1 8.4" class="st21"/><path d="M181.8 397.5c-.2.3-.4.8-.8 1.3-.8-.9-1.5-1.7-2.3-2.3.5-.8.9-1.5 1-1.8.1-.4.2-1 .1-1.6 1 .9 1.9 1.8 2.7 2.7-.2.5-.4 1-.7 1.7M172.6 405c.4.7 1 1.9 1.7 3.4-.8 1.2-1.6 2.2-2.1 2.9-.1-.2-.1-.4-.2-.6v-.1c-.2-.5-.4-1-.5-1.4 0-.1-.1-.3-.1-.4-.1-.2-.1-.4-.2-.6-.1-.3-.2-.5-.3-.8.2-.5.8-1.4 1.7-2.4M182.8 400.9c.6-1 1-1.7 1.1-2s.1-.7.1-1.2c.9 1.2 1.5 2.1 1.6 2.5V400.9c0 .1 0 .2-.1.3-.2.6-.5 1.3-.9 2.1-.5-.7-1.2-1.5-1.8-2.4M175.6 411.5c.5 1.3 1 2.5 1.4 3.6-1.2 1.8-2.1 3-2.1 3s-.6-1.5-1.5-3.5c.5-.7 1.3-1.7 2.2-3.1M178.9 406.9l.5-.7c.3-.5.7-1 1-1.5.6 1.1 1.2 2.2 1.7 3.2-.8 1.3-1.7 2.7-2.6 4-.3-.8-.9-2-1.6-3.4.2-.6.5-1.1 1-1.6M176.9 399c.5.6 1.1 1.7 1.9 2.9l-2.4 3.5c-.6-1.1-1.2-2.2-1.8-3.1.7-1.1 1.5-2.2 2.3-3.3" class="st22"/><path d="M185.2 401.8c-.5 1.5-1.3 3-2.1 4.4s-1.6 2.8-2.5 4.2c-1.7 2.7-3.5 5.4-5.4 8.1l-.5.6-.3-.7c-1.2-3-2.4-5.9-3.7-8.9-.3-.7-.6-1.5-.9-2.2-.1-.2-.2-.4-.2-.5l-.1-.3s0-.1-.1-.1l-.1-.1h.1l-.1.3-2.1 4.3c-1.4 2.9-2.9 5.7-4.3 8.6s-2.9 5.7-4.4 8.5c1.3-2.9 2.6-5.9 3.9-8.8s2.6-5.8 4-8.7l2.1-4.3.1-.3c.1-.2.2-.3.4-.4s.5-.1.7-.1c.2.1.3.1.4.2s.2.2.3.4l.1.3.3.6c.3.7.7 1.5 1 2.2l3.6 9-.8-.1c1.9-2.6 3.8-5.2 5.6-7.9.9-1.3 1.8-2.7 2.7-4 .9-1.4 1.7-2.8 2.3-4.3" class="st23"/><path d="M216.8 309.9s-5.7-3.9-7.7-12.2c-3.6-15.1.6-31.1-12-34.2-18.1-4.5-58.5-9-80.4.1-11.2 4.7-7.2 18.5-10.7 32-2.6 9.9-7.7 12.7-7.7 12.7s-1-3.7-2.2-9c-.1-.3-.4-.2-.5-.5 0-.2.2-.9.2-1.1-.1-.7-.4-2.1-.4-2.1l-.9-2.4-.3.6-.2-1-.6-.9v-2.6l-.1-.6-.7-.1.3-3.5-.1-1-.7-2.3.3-2.7-.6-1.1.6-1.5-.8-.5.9-3-.4-.8 1.3-4-.8-1.6 1-1.2-.6-1.2 1-4.5-.2-1.6.9-.7-.1-1.5.9-1.3-.3-1.6 1.1-1.3-.9-1.1 1.4-1.1-.1-1.4 2.8-2.4 14.5-12 27.2-11.2 4.5 1.3 17.8-2.7 1.8 2.7 19 1.7 5.2 3.2 15 2.9-1.3 1.5 11.6 9.6 1.8.8 5.6 18.6 2 2.6-1.9 1.9-1.3 15.2-.9 1 .2 14.9 1.4.6-3-7.1c1.4 7-1.9 18.6-1.9 18.7" class="st24"/><path d="M157.1 452.5s-2.1-5.5-5.6-12.6c-2-4.1-4.5-8.8-7.3-13.3-3.1-5-6.5-9.7-10.1-13.1-14.6-13.8-6.4-19.5-2.3-22.4l-.9-1.2s-7.5-2.6-13.1 5.2c-1.2 1.6-4.6 2.5-5.5 6.7-.9 4.2-3.6-1.1-3.9 7.2-.3 8.4 12.4 12 22.4 17.8 7.9 4.6 19.7 17.9 24.3 23.3 1.3 1.5 2 2.4 2 2.4" class="st25"/><path d="M255.6 507c-2.7-6.2-37.4-86.4-38.2-89.8-.9-3.5-3.9-8.7-12.5-10.4-8.7-1.7-45.1 41.5-46.4 45.7v1.1l-1.2 5.2-.1-5.2v-1.1c-1.2-4.2-37.7-47.3-46.4-45.7-8.7 1.7-11.6 6.9-12.5 10.4-.3 1.2-5.1 12.7-11.2 27 32.6 28.6 72.7 49 116.9 57.9l1.4-30.7 14.2 33.3c11.2 1.5 22.7 2.3 34.4 2.3z" style="fill:#5c6881"/><path d="M151.6 440c-2-4.1-4.5-8.8-7.3-13.3-3.1-5-6.5-9.7-10.1-13.1-14.6-13.8-6.4-19.5-2.3-22.4l1-3.8s-6.7 1.4-9.3 2.6c-1.6 2-2.7 7.5-2.1 11.6 1.5 9.3 15.7 21.4 19.5 28.6 1.1 2 3.5 6.5 5.3 10 4.1 4.3 6.8 7.5 9 10 1.2 1.5 2 2.4 2 2.4s-2.3-5.5-5.7-12.6" class="st27"/><path d="M140.9 382.8s-16 5.5-16 14.9c0 7.8 8.4 15.8 11.5 18.7 3 2.9 6.2 7.7 6.2 7.7-2.2-6-11.5-19.1-11.5-24.2 0-4.2-1-7.6 9.8-12.2z" class="st28"/><path d="M127.2 395.5c2.4-4.8 8.4-8.8 13.8-10.5v-2.2s-5.1 1.1-9.6 4.9c-.2 1-.5 1.9-.9 2.3-1.2 1.1-1.8.7-3.7 4.9s1.1 10.3 2.8 12.5l.1-.5c-.1-.1-4.9-6.7-2.5-11.4" class="st29"/><ellipse cx="149.1" cy="443.8" class="st30" rx="1.2" ry="1.7" transform="rotate(-84.631 149.13 443.776)scale(.99999)"/><path d="M148.9 443c-3.7-3.8-7.4-7.6-11.3-11.1-1-.9-2-1.7-3.1-2.5-1.1-.7-2.3-1.3-3.4-1.9l-7.1-3.6c-2.4-1.2-4.7-2.4-7-3.8-1.1-.7-2.3-1.4-3.3-2.2-.3-.2-.5-.4-.8-.6s-.5-.4-.8-.7l-.7-.7-.7-.8c-.4-.5-.9-1-1.3-1.5s-.8-1.1-1.1-1.7c-.1-.3-.2-.7-.2-1.1s0-.7.1-1l.2-2c.1-.7.2-1.3.3-2 .2-.6.3-1.4.8-1.9.1-.1.3-.2.5-.3l.5-.1c.3-.1.6-.1.9-.3.6-.3.8-1 .9-1.6h.1c-.1.6-.3 1.4-.9 1.8-.3.2-.6.3-1 .4l-.5.1c-.1 0-.3.1-.4.2-.4.4-.6 1.1-.7 1.7-.1.6-.2 1.3-.2 2-.1.7-.1 1.3-.2 2 0 .3-.1.6-.1 1 0 .3.1.6.2.9.3.5.7 1.1 1.1 1.6.4.5.9 1 1.3 1.5 1.6 2.1 3.8 3.5 6.1 4.9 2.2 1.4 4.6 2.6 6.9 3.9l7.1 3.6c1.2.6 2.3 1.2 3.5 2 1.1.8 2.1 1.7 3.1 2.5 4 3.6 7.7 7.4 11.2 11.3M148.6 484.1v-39.6h1.3v40.2zM111.2 463s2.9-29.8-.3-36.4c-4.6-9.4-12.3-10-12.4-10v-.6c.1 0 2.1.1 4.7 1.5 2.4 1.2 5.8 3.8 8.3 8.8 3.4 6.9.3 37 .3 37z" class="st30"/><path d="M123.9 391.2c-.6 1.4-.9 2.9-1.1 4.4-.3 1.5-.4 3-.3 4.5.1 1.5.5 2.9 1.1 4.3.6 1.4 1.3 2.7 2.2 4 1.6 2.6 3.5 5 5.4 7.4 1 1.2 2 2.4 2.9 3.5.9 1.2 1.8 2.5 2.7 3.7l-3-3.3c-1-1.2-2-2.3-3-3.5-1.9-2.4-3.8-4.8-5.5-7.4-.8-1.3-1.6-2.7-2.2-4.1-.6-1.4-1.1-2.9-1.2-4.5-.1-1.6 0-3.1.3-4.7.2-.8.4-1.5.7-2.2.2-.7.5-1.4 1-2.1" class="st31"/><path d="M158.6 452.5s2.1-5.5 5.6-12.6c2-4.1 4.5-8.8 7.3-13.3 3.1-5 6.5-9.7 10.1-13.1 14.6-13.8 6.4-19.5 2.3-22.4l.9-1.2s7.5-2.6 13.1 5.2c1.2 1.6 4.6 2.5 5.5 6.7s3.6-1.1 3.9 7.2-12.4 12-22.4 17.8c-7.9 4.6-19.7 17.9-24.3 23.3-1.3 1.5-2 2.4-2 2.4" class="st25"/><path d="M164.1 440c2-4.1 4.5-8.8 7.3-13.3 3.1-5 6.5-9.7 10.1-13.1 14.6-13.8 6.4-19.5 2.3-22.4l-1-3.8s6.7 1.4 9.3 2.6c1.6 2 2.7 7.5 2.1 11.6-1.5 9.3-15.7 21.4-19.5 28.6-1.1 2-3.5 6.5-5.3 10-4.1 4.3-6.8 7.5-9 10-1.2 1.5-2 2.4-2 2.4s2.3-5.5 5.7-12.6" class="st27"/><path d="M174.8 382.1s16 6.1 16 15.6c0 7.8-8.4 15.8-11.5 18.7-3 2.9-6.2 7.7-6.2 7.7 2.2-6 11.5-19.1 11.5-24.2 0-4.2 1-7.6-9.8-12.2z" class="st28"/><path d="M188.6 395.5c-2.4-4.8-8.4-8.8-13.8-10.5v-2.9s5.1 1.4 9.6 5.2c.2 1 .5 2.2.9 2.6 1.2 1.1 1.8.7 3.7 4.9s-1.1 10.3-2.8 12.5l-.1-.5c0 .1 4.8-6.5 2.5-11.3" class="st29"/><ellipse cx="166.5" cy="443.7" class="st30" rx="1.7" ry="1.2" transform="rotate(-5.371 166.537 443.743)scale(.99999)"/><path d="M166.8 443c3.6-3.9 7.3-7.7 11.2-11.3 1-.9 2-1.8 3.1-2.5 1.1-.8 2.3-1.4 3.5-2l7.1-3.6c2.3-1.2 4.7-2.5 6.9-3.9s4.5-2.8 6.1-4.9c.4-.5.9-1 1.3-1.5s.8-1 1.1-1.6c.1-.3.2-.6.2-.9s0-.6-.1-1c-.1-.7-.1-1.3-.2-2s-.1-1.3-.2-2c-.1-.6-.3-1.3-.7-1.7-.1-.1-.2-.2-.4-.2l-.5-.1c-.3-.1-.7-.2-1-.4-.6-.4-.8-1.1-.9-1.8h.1c.1.6.4 1.3.9 1.6l.9.3.5.1c.2 0 .4.1.5.3.5.5.7 1.2.8 1.9s.2 1.3.3 2l.2 2c0 .3.1.7.1 1 0 .4-.1.7-.2 1.1-.3.7-.7 1.2-1.1 1.7s-.8 1-1.3 1.5l-.7.8-.7.7c-.2.3-.5.5-.8.7s-.5.4-.8.6c-1.1.8-2.2 1.5-3.3 2.2-2.3 1.4-4.6 2.6-7 3.8l-7.1 3.6c-1.2.6-2.3 1.2-3.4 1.9s-2.1 1.6-3.1 2.5c-3.8 3.6-7.5 7.3-11.3 11.1M165.9 444.5h1.3v43h-1.3z" class="st30"/><path d="m159.9 450.9-.7.2c-.7 1.2-1.1 6.6-1.3 13.7-.2-7-.6-12.5-1.3-13.7l-.7-.2s1.4 8.3 1.1 36.9l1.8.8c-.1-29.3 1.1-37.8 1.1-37.7" class="st25"/><path d="M205.1 471.5c-.2-1.4-5.5-35.4-.8-45 2.5-5.1 5.9-7.6 8.3-8.8 2.6-1.3 4.6-1.5 4.7-1.5v.6c-.1 0-7.8.6-12.4 10-4.6 9.5.8 44.3.9 44.7z" class="st30"/><path d="M191.9 391.2c.4.7.7 1.4 1 2.1s.5 1.5.7 2.2c.3 1.5.4 3.1.3 4.7s-.6 3.1-1.2 4.5c-.7 1.4-1.4 2.8-2.2 4.1-1.6 2.6-3.5 5-5.5 7.4-1 1.2-2 2.4-3 3.5l-3.2 3.3c.9-1.3 1.8-2.5 2.7-3.7 1-1.2 2-2.3 2.9-3.5 1.9-2.4 3.8-4.8 5.4-7.4.8-1.3 1.5-2.6 2.2-4 .6-1.4 1-2.8 1.1-4.3s0-3-.3-4.5c0-1.4-.4-2.8-.9-4.4" class="st31"/><path d="m108.2 279.4-2.9-9.9h1.4l-1.4-1.6h1.4l1.4-3.1-2.9-2.8 4.6 1.4v-2h3.4l-6.8-8 10.3 7-1.4-3.7 2.4 2.4V258l1.3.9 3.8.4-5.2-16.3 5.8 7.1s-.1-10.4.7-12.8c0 0 0 6.6 1.1 8.6l2.2-4.6.9 7.1s-.3-4.9 4.9-9.9l-1.4 4.6 11.5-9.9-1.2 4 3.2-.9v3.2l13-8.5.3 5.1 10.5-2.9-3.9 2.8 12.4-4.1-2.1 5.6h2.7l-1.6 1.5 12-.5-2 2 2 .6-1.4 1.1s8.7.9 10.1.9 3.3 1.5 3.3 1.5l-6.8 1.2 4.1 1.1 1.9.5 1.7 2.8h-3.7l7.6 3.4 2.4 3.4-3.6-1.9 4.5 5.1-3.4-1.5 4.8 6.6v3.1l3.2 1.7 2.5 4.2-2-1.2.3 1.5.5 2.2-2-.9 2.5 7.1-3.2-3.5-1.1 3.5.3 3.7.2 1.9-3.5-2.8v3s-1.1-18.5-5-22.4c-4.4-4.4-13.8-9.3-34.8-9.6s-30.6.2-40.7 3.7c-9.2 3-18.1 2.8-19.1 18.9" class="st32"/><path d="M202.9 262c-1-.7-4.4-2.1-4.4-2.1l.4-.9-11.5-1.2 4.7-1.7-12.9.4 5.6-3.8s-11.2 1-13.1.6l2.8-3.7-21.2 2.7 3-6.7-13.7 7-1-8.2-6.9 10.2-8.6-10.4.4 12.1c-.7.2.3.2.3.2l-5.9-8.1 4.1 11.8-5.2-3.7 2.8 4.4-4.7-2.2 2.6 2.7-4.2-.6.6 2.3-4.8.5.7 1.9-1.6 1.7-2.8.2 1.4 1.8-1.6.7 1.2 1.1-1.4.8h1.5s1.4-4.7 4.8-6.8c4.6-2.9 12.2-4.5 12.4-4.6 31.8-5.6 65.1 1.3 72.7 3.8 6.9 2.3 8 18.5 8 18.5s1.6-16.5-4.5-20.7" style="fill:#a49e99"/><path d="M128.6 258.9s2-14.4 2.5-16.3v13.7l3.7-9.5-.6 7.9 1.9-3.9v5l5.2-12.4-.7 11.3s3-4.4 3.1-4.7c.1-.3-.9 4.6-.9 4.6l11.1-14.4-4.6 11.2 1.4-.7-1.2 4.4 5.7-1s-7.2 3.4-11 3.7c-4 .3-12.3 0-15.6 1.1" class="st24"/><path d="M152.8 255.8s8.5 5.5 14 5.9l-9-4.9 16.6 4.3-9.6-4.5 14.2 1.1c-.1-.3-10.8-3.7-26.2-1.9" style="fill:#c8c7c2"/><path d="M160.6 246.4s6.6-5.8 9.1-7.4c2.5-1.5 5.8-4.9 5.8-4.9l-5.8 8.5 12.3-5.1-5.3 5.1s14.1-1.1 16.8-1.4 0 2.8 0 2.8l8.7 2.4-15.1 3.4-10 1v-4.2z" class="st24"/><path d="m108.2 305-2.9-1.8-7.5 8.6.5 3 8.1-7.8zM207.1 305l2.8-1.8 7.6 8.6-.5 3-8.2-7.8z" class="st16"/><path d="m211.1 259.9 6.5 5-.8-2.5h1.3l-2-1h3.8l-4.4-2.5h2.9l-2.3-1.7h.8l-2.8-2.4h4.5l-3.9-2.1 3.7-1.6-2.5-.8 3-2h-4l.9-.7-1.1-1.3 1.2-1.7-5.1-.1.8-2.9-7.9.8 4.5 2.6-1.6.8 1 .5-1 .8 3.6.6-4.4.9 4.5 1-1 1.2h2l-4.4.8 3.4 2.1-2.1-.5 5.8 4h-2.2l1.2 1.7h-2.7zM115.6 247.6l-1-1.1.3 1.3-2.2-1.6.5 1.4-4.3-3.4 3.1 4-2.6-1.1 1.4 2.5-2.8-1.5 1.3 2.7-3.2-2.7 2.1 4.7-3-2.8.3 2.6-3.1-1.8 1.7 3.6-1-.5-.8 1.5-2-.4 2.1 4.7-3 .5 4.1 6.8.5-5.1 1.3 1 .1-1 1.1.5-1-3.5 2.7 3.6-1-4.5 1.5.4-1.4-3.4 4.4 1.6-.6-3.9 3.6.5-2-2.8 2 .9-.2-2.4 1.7.8z" class="st32"/><path d="m152.8 313.1.8-1s.8-4 1.4-4.4 2.6-.7 2.6-.7 2.2.6 2.6.7.9 1.3 1.5 4.4 2-.9 2-.9l-.6-5.7-9.1-.4-1.8 3z" style="fill:#443e3b"/><path d="M200.4 300.6c-6.2-2.4-15.2-3.1-21.8-2-8.1 1.2-14.5 6.3-14.5 6.3s-1.1-1.2-2.1-1.3c-.6-.1-3.9-.3-4.3-.3s-3.6.2-4.3.3c-1 .1-2.1 1.3-2.1 1.3s-6.4-5.1-14.5-6.3c-6.6-1-15.6-.4-21.8 2-2 .8-9.6 2.5-9.6 2.5v4.6s3.1-.9 4.4 1.9c.6 1.4.6 10.8 5.6 17.9 4.1 5.8 10.5 7.2 17.7 6.9 11.8-.5 17.4-9.9 20.5-22.3 0 0-3.8-4.6 4.1-4.6 7.8 0 4.1 4.6 4.1 4.6 3 12.4 8.6 21.8 20.5 22.3 7.2.3 13.6-1.1 17.7-6.9 5-7.1 5-16.5 5.6-17.9 1.3-2.8 4.4-1.9 4.4-1.9v-4.6c-.2 0-7.7-1.7-9.6-2.5m-57.6 28.2c-3.6 3.4-16.4 6.1-23.9-.6-7.4-6.5-5.6-19.3-4.4-21.3 1-1.6 5.6-6.3 14.9-6.7 9.3-.4 15.2 3.4 15.2 3.4 4.5 2 5.6 6.3 5.7 10.8.1 4.4-4 11-7.5 14.4m53.6-.6c-7.6 6.6-20.3 3.9-23.9.6-3.6-3.4-7.7-9.9-7.6-14.4s1.2-8.9 5.7-10.8c0 0 5.9-3.8 15.2-3.4s14 5.1 14.9 6.7c1.2 2.1 3.1 14.9-4.3 21.3" style="fill:#15201a"/><path d="M320.5 409.2s-3.8-18.8-1.6-20.4 30.4-5.7 42.5-.9l1.9 21.3-37.4 16.9z" style="fill:#afb0b3"/><path d="M398.1 420.1s-1.8-8.8-15.9-13.5-24.9-9.5-24.9-19.6v-26.5h-34.2V387s-10.8 14.8-24.9 19.6c-14.2 4.7-15.9 13.5-15.9 13.5l8.6 38.3h98.6z" style="fill:#bfa473"/><path d="M401.9 284.4c0 49.1-17.4 89.1-62.1 89.1s-61.3-40.5-61.3-89.6 41.6-58.9 62-58.9 61.4 10.4 61.4 59.4" style="fill:#d0b37d"/><path d="M317.6 344c6.8 4.1 14 4.7 21.4 4.6 7.4 0 14.5-.9 21.5-4.6-2.6 3-9.9 8.4-21.5 8.4s-19.1-5.2-21.4-8.4" style="fill:#494032"/><path d="M325 315.8c0 6.7-5.5 12.2-12.3 12.2s-12.3-5.5-12.3-12.2 5.5-12.2 12.3-12.2 12.3 5.3 12.3 12.2" class="st41"/><path d="M321.9 315.6c0 4.7-3.8 8.5-8.5 8.5s-8.5-3.8-8.5-8.5 3.8-8.5 8.5-8.5 8.5 3.9 8.5 8.5" class="st17"/><path d="M309.8 311.2c0 1.4-1.1 2.5-2.5 2.5s-2.5-1.1-2.5-2.5 1.1-2.5 2.5-2.5c1.3.2 2.5 1.3 2.5 2.5" class="st13"/><path d="M355.2 315.8c0 6.7 5.5 12.2 12.3 12.2s12.3-5.5 12.3-12.2-5.5-12.2-12.3-12.2-12.3 5.3-12.3 12.2" class="st41"/><path d="M358.5 315.6c0 4.7 3.8 8.5 8.5 8.5s8.5-3.8 8.5-8.5-3.8-8.5-8.5-8.5-8.5 3.9-8.5 8.5" class="st17"/><path d="M358.9 311.2c0 1.4 1.1 2.5 2.5 2.5s2.5-1.1 2.5-2.5-1.1-2.5-2.5-2.5c-1.3.2-2.5 1.3-2.5 2.5" class="st13"/><path d="M402 412.1s-.8-1.7-5.4-3.9c-6.4-2.9-6.5-2.8-29.8-11l-26.7 20-26.7-20c-23.3 8.2-23.4 8.1-29.8 11-4.7 2.1-5.4 3.9-5.4 3.9l-36 94.6c3.9.2 7.8.3 11.7.3 5.5 0 10.9-.2 16.3-.5l19.9-42.5 3 40.1c35.1-5.5 67.9-18.2 96.7-36.5l.3-3.5 1.2 2.6c8.6-5.5 16.8-11.6 24.6-18.1z" style="fill:#00b2ab"/><path d="M318.8 389c.6 7.7 21.6 28.2 21.6 28.2s22.1-18.3 21.2-29.1l10.5 12.2c0 8.2-19.7 33.1-19.7 33.1l-11.8-15.7-11.5 16.4S309 410.4 309 398.9z" style="fill:#f3f3f3"/><path d="M371.9 400.1c0 8.2-19.7 33.1-19.7 33.1l-11.8-15.7-11.5 16.4s-20-23.7-20-35.2" style="fill:none;stroke:#dadcdc;stroke-miterlimit:10"/><path d="M403.8 265.4c-.4-2-.9-3.9-1.5-5.8-.5-1.8-1.2-5.8-1.2-5.8s-1-.2-1.2-.7c-.5-1.1-.9-4.5-.9-4.5s-3.1-2.7-4.7-4.6c-1.1-1.3-4.5-5.4-4.5-5.4l-1.5.1-4.1-2.9s-1.9-3.2-3.3-4.3c-.5-.4-1.7.5-2.2.1l-2.4-1.8-1.8-2.3-5.5-1.5s-1.3-1-1.9-1.1c-1.3-.2-4.1.3-4.1.3l-1.5-1.3-5 .6-3.5-1.8-1.4 1.1-3.3-.4s-1.3-.8-2-.9c-1-.1-2.8.4-2.8.4s-2.4-.8-3.4-.8c-1.7 0-6.3 1.1-6.3 1.1l-2.3-.4-3.7 1.2s-1.9-.3-2.8-.2c-1.1.2-3.1 1.2-3.1 1.2l-3.5.1-1.5.7-3.1-.4-2.4 1.2s-1.4-.2-2.1.1c-.3.1-.8-.3-.8-.3l-3.4 2.6-2.9 2.1h-1.5s-.9 1.9-1.7 2.5c-1 .8-3.2 1.5-4.1 2.1-.7.5-.1 1-.8 1.5-.3.2-2 .5-2.3.7-.5.4.2.8-.3 1.2-2 1.5-4 3.2-5.3 4.7-.9 1-1.6 2-2.3 3.1-1.4 2.1-2.6 4.4-3.6 6.7-.4.9-.7 1.7-1 2.6-1 2.8-1.8 5.8-2.5 8.9-1 4.5-.2 9.3-.4 14.1-1 29.2 7.3 45.9 7.3 45.9 6-4.5-1.6-41 16.7-53.1 5.8-3.8 36.5-4.2 40-4.2s34 .4 39.8 4.2c18.3 12.1 10.7 48.6 16.7 53.1 0 0 8.3-16.7 7.3-45.9-.2-4.5.6-9.3-.4-13.8" style="fill:#272524"/><path d="M396.9 305.2s-1.1-1.9-1.5-5.7c-.9-10-3.1-28.4-6.9-31.6-5.4-4.4-15.9-1.9-18.6-2s-12-2.5-14-5.3c0 0-8.5 2.9-15.7 2.9s-11.2-2.8-11.2-2.8-7 3.6-9.2 3.6-5.6-1.7-5.6-1.7-.3 2-2.7 3c-4.1 1.9-14.5-.6-16.5 2.1s-8.3 9.9-8.6 22.8-3-1.4-3-2.7 1.6-20.2 2.4-20.8 3.7-2.2 3.7-2.2-3.8-7.3 2.4-12.9c1.8-1.6 10.4 0 10.4 0s-.9-10.2 2.6-11.9c3.5-1.6 7.9 2 12.8-.5 7.7-3.8 10.8 6.6 13.5 4.8 2.7-1.9 3.6-11.1 10-7.7 12.7 6.7 7.6-.1 16.4 1 8.8 1.2 5.8 5.3 12.2 9 6.7 3.8 11.8.9 13.7 3 2 2.1 2.4 10.4 10.6 13.6 8.1 3.3 3.4 32.8 3.7 34.9s.7 7.1-.9 7.1" style="fill:#393735"/><path d="M327.2 258.9s-6.2 3.9-8.6 3.8-5.6-4.5-6-9.4c0 0 3.2 6.5 5 6.9s1.6-3.9 3.2-3.1 2.8 1.4 3.7.9c2.1-1.2-1-16.7-5.8-24.6.1-.1 12.2 19.1 8.5 25.5M356.4 248.1s-.3 10.2-3.9 10.7c-3.6.4 0-30.1 0-30.1s-3 19.8-3.2 22.3-1.6 3.8-2.5 3.9c-.9.1.2 3.9-.9 4.4s-4.1 1.2-4.9-3.1c0 0-.2 4.3 3 5 3.2.6 10.5-1 11.8-2.4 1.2-1.6 1.3-8 .6-10.7M298.9 263.1c1.5-.1 3-.1 4.5-.1h4.4c.7 0 1.5-.1 2.1-.2s.9-.5 1.1-1.1.2-1.3.1-2-.2-1.4-.5-2.2c.5.6.8 1.3 1.1 2 .2.7.4 1.5.3 2.4-.1.4-.3.9-.6 1.2-.2.2-.3.4-.6.5-.2.1-.5.2-.7.3-.8.3-1.6.3-2.4.3-1.5 0-3-.1-4.5-.3-1.4-.1-3-.4-4.3-.8M360.5 241.1c-.3 3.4-.5 6.9-.5 10.3 0 1.7 0 3.4.2 5.1.1.8.2 1.7.4 2.4.2.8.5 1.5.9 2.1.2.2.5.5.8.7s.6.4 1 .6c.7.3 1.4.4 2.2.2l1.2-.3c.4-.1.8-.3 1.4-.3h.4c.2 0 .3.1.5.1.2.1.3.1.4.2l.3.3c.2.2.3.5.4.7s0 .1.1.2c.2.1.7.2 1.1.2s.8.1 1.3.1c.8 0 1.6-.1 2.4-.3 1.6-.4 3.1-1.2 4.5-2.3-1.2 1.3-2.7 2.3-4.3 2.9-.8.3-1.7.5-2.6.6h-1.3c-.5 0-.9 0-1.4-.2-.1-.1-.3-.2-.4-.3l-.2-.2-.1-.2c-.1-.2-.1-.3-.2-.4-.1 0-.1-.1-.2-.1s-.1-.1-.2-.1h-.4c-.6.1-1.5.5-2.4.7s-2 .1-2.9-.3c-.5-.2-.9-.4-1.3-.7s-.7-.5-1.1-1c-.6-.8-.9-1.7-1.1-2.6s-.3-1.8-.4-2.6c-.1-1.8-.1-3.5 0-5.2.2-3.4.7-6.9 1.5-10.3" class="st47"/></svg>