<svg xmlns="http://www.w3.org/2000/svg" xml:space="preserve" id="Layer_1" x="0" y="0" version="1.1" viewBox="0 0 507.9 507.9"><style>.st2{fill:none}.st4{fill:#a8d9e2}.st5{fill:#156b92}.st7{fill:#74285f}.st8{fill:#5d204c}.st10{fill:#d7d6d6}</style><circle cx="253.9" cy="253.9" r="252.6" style="fill:#0085c0"/><path d="m34.1 129.6 421.4 276.6c32-42.4 51-95.1 51-152.3.1-139.5-113-252.6-252.6-252.6-94.2.1-176.4 51.8-219.8 128.3" style="fill:#0095da"/><circle cx="253.9" cy="254" r="252.6" class="st2"/><path d="M253.9 1.4c139.5 0 252.6 113.1 252.6 252.6S393.4 506.5 253.9 506.5c-62.1 0-119-22.4-162.9-59.6-2.7-2.3-5.3-4.6-7.9-6.9C32.9 393.8 1.4 327.6 1.4 253.9 1.4 114.5 114.5 1.4 253.9 1.4" class="st2"/><path d="M254.1 435.6h-.1c-11.8 0-23.5-1.1-34.9-3.4l1.9-9.9c10.8 2.1 21.9 3.2 33 3.2zm35-3.5-2-9.9c10.9-2.2 21.6-5.4 31.8-9.6l3.9 9.3c-10.9 4.5-22.2 7.9-33.7 10.2M185.3 422c-10.8-4.5-21.3-10.1-31.1-16.6l5.6-8.4c9.2 6.2 19.1 11.4 29.3 15.7zm168.5-16.7-5.6-8.4c9.2-6.2 17.8-13.3 25.7-21.1l7.1 7.1c-8.3 8.3-17.4 15.8-27.2 22.4M127 383c-8.3-8.3-15.8-17.4-22.4-27.2l8.4-5.6c6.2 9.2 13.3 17.8 21.1 25.7zm276.4-27.3-8.4-5.6c6.2-9.2 11.4-19.1 15.7-29.3l9.3 3.9c-4.5 10.8-10.1 21.2-16.6 31M88 324.8c-4.5-10.8-8-22.2-10.2-33.7l9.9-2c2.2 10.9 5.4 21.6 9.7 31.8zm342.2-33.9-9.9-2c2.1-10.8 3.2-22 3.2-33.1v-.4h10.1v.4c0 11.9-1.1 23.7-3.4 35.1M84.4 256.1H74.3v-.2c0-11.7 1.1-23.4 3.4-34.8l9.9 1.9c-2.1 10.8-3.2 21.8-3.2 32.9zm335.8-33.7c-2.2-10.9-5.4-21.6-9.7-31.8l9.3-3.9c4.5 10.8 8 22.2 10.3 33.7zM97.1 191.2l-9.3-3.8c4.5-10.8 10.1-21.3 16.6-31.1l8.4 5.6c-6.2 9.2-11.4 19.1-15.7 29.3m297.7-29.8c-6.2-9.2-13.3-17.8-21.2-25.6l7.1-7.1c8.3 8.3 15.9 17.4 22.4 27.2zm-260.9-25.3-7.1-7.1c8.3-8.3 17.4-15.8 27.2-22.4l5.6 8.4c-9.3 6.2-17.9 13.3-25.7 21.1m214-21.4c-9.2-6.2-19.1-11.4-29.3-15.6l3.8-9.3c10.8 4.5 21.3 10 31.1 16.6zM188.8 99.3l-3.9-9.3c10.8-4.5 22.2-8 33.7-10.3l2 9.9c-10.9 2.2-21.6 5.4-31.8 9.7m97.9-9.8C276 87.4 265 86.3 254 86.3h-.3V76.2h.3c11.7 0 23.4 1.1 34.7 3.4z" style="fill:#61c2da"/><path d="m215.4 120-10.7-5 14.6-30.7-30.7-14.6 5.1-10.6L235 78.7zM230.6 461.3l-26.8-37 37-26.9 6.9 9.5-27.5 20 19.9 27.5z" class="st4"/><path d="M244.9 156.2h-143c-2.7 0-4.9 2.2-4.9 4.9v202c0 2.7 2.2 4.9 4.9 4.9h137.2c5.9 0 10.6-4.8 10.6-10.6V161.1c0-2.7-2.1-4.9-4.8-4.9M424.3 117.5h-143c-2.7 0-4.9 2.2-4.9 4.9V293c0 2.7 2.2 4.9 4.9 4.9h136.5c6.3 0 11.4-5.1 11.4-11.4V122.4c-.1-2.7-2.2-4.9-4.9-4.9M420.9 328.7H284.6c-4.5 0-8.2 3.7-8.2 8.2V398c0 4.5 3.7 8.2 8.2 8.2h136.3c4.5 0 8.2-3.7 8.2-8.2v-61.1c0-4.5-3.7-8.2-8.2-8.2" class="st5"/><path d="M237.7 359H90.8c-1.6 0-2.9-1.3-2.9-2.9V150.2c0-1.6 1.3-2.9 2.9-2.9h146.9c1.6 0 2.9 1.3 2.9 2.9v205.9c0 1.6-1.3 2.9-2.9 2.9" style="fill:#fff"/><path d="M417.1 288.9H270.2c-1.6 0-2.9-1.3-2.9-2.9V111.5c0-1.6 1.3-2.9 2.9-2.9h146.9c1.6 0 2.9 1.3 2.9 2.9V286c0 1.7-1.3 2.9-2.9 2.9M417 397.3H270.1c-1.6 0-2.9-1.3-2.9-2.9v-71.8c0-1.6 1.3-2.9 2.9-2.9H417c1.6 0 2.9 1.3 2.9 2.9v71.8c0 1.6-1.3 2.9-2.9 2.9" class="st7"/><path d="M415.1 319.8h-43.7v77.6h43.7c2.7 0 4.9-2.2 4.9-4.9v-67.8c-.1-2.7-2.2-4.9-4.9-4.9" class="st8"/><path d="M300.2 351.8h91.1v13.4h-91.1z" style="fill:#b565a4"/><path d="M235.8 147.3h-143c-2.7 0-4.9 2.2-4.9 4.9v38.2h152.7v-38.2c0-2.7-2.2-4.9-4.8-4.9" class="st7"/><path d="M119.4 226.5h83.2v14h-83.2zM119.4 266.5h83.2v14h-83.2zM119.4 306.5h55.2v14h-55.2z" class="st10"/><path d="M267.2 191.8v92.3c0 2.7 2.2 4.9 4.9 4.9h143c2.7 0 4.9-2.2 4.9-4.9V210z" class="st8"/><path d="M404.6 204.3c.2-2 .4-4.1.4-6.2s-.1-4.1-.4-6.2l-12-4.3c-1-4.1-2.7-8-4.8-11.6l5.5-11.5c-2.6-3.2-5.5-6.2-8.8-8.7l-11.5 5.5c-3.5-2.1-7.4-3.7-11.5-4.7l-4.3-12c-2-.2-4.1-.4-6.2-.4-2.1 0-4.2.1-6.2.4l-4.3 12c-4.1 1-8 2.6-11.5 4.7l-11.5-5.5c-3.3 2.6-6.2 5.5-8.8 8.7l5.5 11.5c-2.2 3.6-3.8 7.5-4.8 11.6l-12 4.3c-.2 2-.4 4.1-.4 6.2s.1 4.1.4 6.2l12 4.3c1 4.1 2.7 8 4.8 11.6l-5.5 11.5c2.6 3.2 5.5 6.2 8.8 8.7l11.5-5.5c3.5 2.1 7.4 3.7 11.5 4.7l4.3 12c2 .2 4.1.4 6.2.4 2.1 0 4.2-.1 6.2-.4l4.3-12c4.1-1 8-2.6 11.5-4.7l11.5 5.5c3.3-2.6 6.2-5.5 8.8-8.7l-5.5-11.5c2.2-3.6 3.8-7.5 4.8-11.6zM351 217.2c-10.5 0-19.1-8.5-19.1-19.1 0-10.5 8.5-19.1 19.1-19.1 10.5 0 19.1 8.5 19.1 19.1-.1 10.6-8.6 19.1-19.1 19.1" class="st8"/><path d="M398.9 201.4c.2-2 .4-3.9.4-6 0-2-.1-4-.4-6l-11.6-4.1c-1-4-2.6-7.8-4.7-11.2l5.3-11.1c-2.5-3.1-5.3-6-8.5-8.4l-11.1 5.3c-3.4-2-7.2-3.6-11.1-4.6l-4.1-11.6c-2-.2-4-.4-6-.4s-4 .1-6 .4l-4.1 11.6c-4 1-7.7 2.5-11.1 4.6l-11.1-5.3c-3.1 2.5-6 5.3-8.5 8.4l5.3 11.1c-2.1 3.4-3.7 7.2-4.7 11.2l-11.6 4.1c-.2 2-.4 3.9-.4 6s.1 4 .4 6l11.6 4.1c1 4 2.6 7.8 4.7 11.2l-5.3 11.1c2.5 3.1 5.3 6 8.5 8.4l11.1-5.3c3.4 2 7.2 3.6 11.1 4.6l4.1 11.6c2 .2 4 .4 6 .4s4-.1 6-.4l4.1-11.6c4-1 7.7-2.5 11.1-4.6l11.1 5.3c3.1-2.5 6-5.3 8.5-8.4l-5.3-11.1c2.1-3.4 3.7-7.2 4.7-11.2zM347 213.9c-10.2 0-18.4-8.2-18.4-18.4s8.2-18.4 18.4-18.4 18.4 8.2 18.4 18.4c0 10.1-8.2 18.4-18.4 18.4" style="fill:#eee"/><path d="M215.7 179.2h-9.1c-3.7 0-6.7-3-6.7-6.7v-9.1c0-3.7 3-6.7 6.7-6.7h9.1c3.7 0 6.7 3 6.7 6.7v9.1c0 3.7-3 6.7-6.7 6.7" class="st8"/><path d="M363.8 203c-2.9 6.4-9.3 10.9-16.8 10.9-9.1 0-16.6-6.6-18.1-15.2l-34.1-4.2v1c0 2 .1 4 .3 6l11.6 4.1c1 4 2.6 7.8 4.7 11.2l-5.3 11.1c2.5 3.1 5.3 6 8.5 8.4l11.1-5.3c3.4 2 7.2 3.6 11.1 4.6l4.1 11.6c2 .2 4 .4 6 .4s4-.1 6-.4l4.1-11.6c4-1 7.7-2.5 11.1-4.6l11.1 5.3c3.1-2.5 6-5.3 8.5-8.4l-5.3-11.1c2-3.3 3.6-7 4.6-10.9z" class="st10"/></svg>